<svg id="APP" xmlns="http://www.w3.org/2000/svg" xmlns:xlink="http://www.w3.org/1999/xlink" width="274" height="274" viewBox="0 0 274 274">
  <defs>
    <style>
      .cls-1 {
        fill: #2f2f2f;
        stroke-width: 3px;
        stroke: url(#linear-gradient);
      }

      .cls-1, .cls-2, .cls-3, .cls-4 {
        fill-rule: evenodd;
      }

      .cls-2 {
        fill: #249dd4;
      }

      .cls-3 {
        fill: #1d5fa7;
      }

      .cls-4 {
        fill: #fff;
      }
    </style>
    <linearGradient id="linear-gradient" x1="392.5" y1="563" x2="392.5" y2="292" gradientUnits="userSpaceOnUse">
      <stop offset="0" stop-color="#1a1a1a"/>
      <stop offset="1" stop-color="#484848"/>
    </linearGradient>
  </defs>
  <path id="Rounded_Rectangle_2" data-name="Rounded Rectangle 2" class="cls-1" d="M267,292H518a10,10,0,0,1,10,10V553a10,10,0,0,1-10,10H267a10,10,0,0,1-10-10V302A10,10,0,0,1,267,292Z" transform="translate(-255.5 -290.5)"/>
  <path id="Rectangle_1_copy_4" data-name="Rectangle 1 copy 4" class="cls-2" d="M279,400h47.742v36H279V400Z" transform="translate(-255.5 -290.5)"/>
  <path id="Rectangle_1_copy_4-2" data-name="Rectangle 1 copy 4" class="cls-2" d="M336.419,400h47.742v36H336.419V400Z" transform="translate(-255.5 -290.5)"/>
  <path id="Rectangle_1_copy_4-3" data-name="Rectangle 1 copy 4" class="cls-3" d="M393.839,400h47.742v36H393.839V400Z" transform="translate(-255.5 -290.5)"/>
  <path id="Rectangle_1_copy_4-4" data-name="Rectangle 1 copy 4" class="cls-4" d="M451.258,400H499v36H451.258V400Z" transform="translate(-255.5 -290.5)"/>
  <path id="GoPro" class="cls-4" d="M502.893,387.292h0.765a1.169,1.169,0,0,0,.382-0.049,0.4,0.4,0,0,0,.206-0.155,0.408,0.408,0,0,0,.07-0.237,0.37,0.37,0,0,0-.137-0.3,0.641,0.641,0,0,0-.437-0.121h-0.849v0.865m-0.356,1.464v-2.617h1.191a1.6,1.6,0,0,1,.546.069,0.621,0.621,0,0,1,.3.249,0.715,0.715,0,0,1,.108.394,0.638,0.638,0,0,1-.185.469,0.93,0.93,0,0,1-.572.244,0.823,0.823,0,0,1,.215.131,1.887,1.887,0,0,1,.3.348l0.468,0.713h-0.449l-0.353-.547c-0.1-.157-0.191-0.277-0.257-0.357a0.752,0.752,0,0,0-.185-0.179,0.448,0.448,0,0,0-.159-0.066,1.208,1.208,0,0,0-.2-0.013h-0.412v1.162h-0.356Zm0.962-3.513a2.361,2.361,0,1,1-2.411,2.364,2.39,2.39,0,0,1,2.411-2.364m0-.408a2.77,2.77,0,1,1-2.83,2.772,2.8,2.8,0,0,1,2.83-2.772m-177.335-4.979v-5.942c0-1.289-.815-1.928-2.447-1.928-1.094,0-1.95-.007-2.544.049H309.387a2.411,2.411,0,0,0,0,4.821h9.8v3.2c0,0.96-1.072,1.711-3.208,2.273a18.866,18.866,0,0,1-4.807.667H295.408q-9.432,0-9.433-3.06V364.894q0-3.057,11.257-3.054c0.225,0,.537.007,0.912,0.015s0.806,0.017,1.288.033a0.882,0.882,0,0,0,.311.025h1.922q2.542,0,2.544-2.238c0-1.487-.849-2.225-2.544-2.225h-6.288a35.2,35.2,0,0,0-10.41,1.457q-5.97,1.943-5.966,6V379.96q0,4.22,5.849,6.14a33.7,33.7,0,0,0,10.474,1.408h15.837a27.358,27.358,0,0,0,9.819-1.561q5.183-2,5.184-6.091m115.169,5.568v-14.37c0-2.025,2.513-2.99,7.6-2.99h1.227a10.782,10.782,0,0,0,1.16.052c1.929,0,2.96-.656,2.96-1.974a2.181,2.181,0,0,0-2.509-2.425c-4.895,0-8.565.3-11.012,1.009-4.057,1.113-6.054,3.188-6.054,6.328v14.37q0,1.972,2.321,1.974a15.9,15.9,0,0,0,2.895-.151,1.762,1.762,0,0,0,1.416-1.823m-57.932,1.86a15.187,15.187,0,0,0,3.033-.153,1.71,1.71,0,0,0,1.486-1.821V376.5h24.328a35,35,0,0,0,10.71-1.414c3.807-1.369,5.74-3.545,5.74-6.53v-4.707c0-2.38-2-4.2-6.065-5.417a36.058,36.058,0,0,0-10.066-1.268H383.4c-1.611,0-2.449.659-2.449,1.927v26.22c0,1.315.838,1.974,2.449,1.974m4.519-25.665h24.713c6.065,0,9.1.91,9.1,2.632v4.1c0,2.427-3.035,3.695-9.1,3.695H387.92V361.619Zm-28.546,2.1H347.617c-9.786,0-14.68,2.479-14.68,7.541v8.6c0,5.063,4.894,7.54,14.68,7.54h11.757c9.786,0,14.679-2.477,14.679-7.54v-8.6c0-5.062-4.893-7.541-14.679-7.541m8.069,11.841v4.649c0,1.87-2.79,2.787-8.263,2.787l-5.371,0v0H353.5v0l-5.687,0c-5.473,0-8.262-.917-8.262-2.787V370.91c0-1.873,2.789-2.79,8.262-2.79l5.687,0v0h0.311v0l5.371,0c5.473,0,8.263.917,8.263,2.79v4.646Zm117.833-11.839H473.521c-9.789,0-14.68,2.479-14.68,7.541v8.6c0,5.063,4.891,7.54,14.68,7.54h11.755c9.786,0,14.679-2.477,14.679-7.54v-8.6c0-5.062-4.893-7.541-14.679-7.541m8.069,11.839v4.649c0,1.87-2.788,2.787-8.26,2.787l-5.372,0v0H479.4v0l-5.684,0c-5.476,0-8.265-.917-8.265-2.787V370.91c0-1.871,2.789-2.787,8.265-2.787l5.684,0v0h0.314v0l5.372,0c5.472,0,8.26.916,8.26,2.787v4.646Z" transform="translate(-255.5 -290.5)"/>
  <path id="VR" class="cls-4" d="M357.333,503.4L334.994,463h-7l25.521,45.992h7.635L386.673,463h-7Zm84.06-14.572c1.5-1.165,4.6-2.577,4.6-9.056v-3.751c0-8.636-2.1-13.022-15.4-13.022H393.742v45.992h6.237V490.826h23L438,508.87h7.734l-15.024-18.042a37.214,37.214,0,0,0,6.663-.5c2.386-.554,3.266-0.913,4.019-1.5m-41.414-20.745h28.384c9.167,0,11.394,1.651,11.394,6.8v4.193c0,4.828-2.927,6.67-9.865,6.67H399.979V468.085Z" transform="translate(-255.5 -290.5)"/>
</svg>
