<svg id="Layer_1" data-name="Layer 1" xmlns="http://www.w3.org/2000/svg" viewBox="0 0 17 22"><defs><style>.cls-1{fill:#707377;}</style></defs><title>activities</title><circle class="cls-1" cx="11" cy="2" r="2"/><path class="cls-1" d="M255.46,1508a10,10,0,0,0-7.52-4,9.28,9.28,0,0,0-4.5,1.2,13.46,13.46,0,0,0-1.33.85l1.29,1.54c0.33-.23.69-0.45,1-0.64a7.23,7.23,0,0,1,3.51-.94c0.12,0,.24,0,0.37,0l-1.66,3.9h0l-1,2-4,1.06,1,1.7,4.44-1.06,1.32-2.56,1.58,1.42-1,4.5h2l1-5.58-2.75-2.58,1-2.36a8.88,8.88,0,0,1,3.86,3.09l0.3,0.43H258v-2h-2.54Z" transform="translate(-241 -1499)"/><rect class="cls-1" y="17" width="16" height="2"/><circle class="cls-1" cx="3.5" cy="20.5" r="1.5"/><circle class="cls-1" cx="12.5" cy="20.5" r="1.5"/></svg>