<svg id="Layer_1" data-name="Layer 1" xmlns="http://www.w3.org/2000/svg" viewBox="0 0 23 19"><defs><style>.cls-1{fill:#707377;}</style></defs><title>add-device</title><polygon class="cls-1" points="23 16 10 16 10 14 21 14 21 2 5 2 5 9 3 9 3 0 23 0 23 16"/><path class="cls-1" d="M254.5,1351a5.5,5.5,0,1,1,5.5-5.5A5.51,5.51,0,0,1,254.5,1351Zm0-9a3.5,3.5,0,1,0,3.5,3.5A3.5,3.5,0,0,0,254.5,1342Z" transform="translate(-237 -1340)"/><rect class="cls-1" x="7" y="4" width="3" height="3"/><rect class="cls-1" x="3" y="11" width="2" height="8"/><rect class="cls-1" y="14" width="8" height="2"/></svg>