<svg id="Layer_1" data-name="Layer 1" xmlns="http://www.w3.org/2000/svg" viewBox="0 0 17.94 20"><defs><style>.cls-1{fill:#707377;}</style></defs><title>auto-off</title><rect class="cls-1" x="7.94" width="2" height="8"/><path class="cls-1" d="M406.5,545l-1-1.74a8.94,8.94,0,0,0-2.34,1.94l1.67,1.13A7,7,0,0,1,406.5,545Z" transform="translate(-401.06 -540)"/><path class="cls-1" d="M403.71,547.94L402,546.81a8.79,8.79,0,0,0-1,3.19h2A7.26,7.26,0,0,1,403.71,547.94Z" transform="translate(-401.06 -540)"/><path class="cls-1" d="M414.5,543.21l-1,1.74a7,7,0,1,1-10.42,7h-2A9,9,0,1,0,414.5,543.21Z" transform="translate(-401.06 -540)"/><path class="cls-1" d="M410,555a4,4,0,1,1,4-4A4,4,0,0,1,410,555Zm0-6a2,2,0,1,0,2,2A2,2,0,0,0,410,549Z" transform="translate(-401.06 -540)"/></svg>