<svg id="Layer_1" data-name="Layer 1" xmlns="http://www.w3.org/2000/svg" viewBox="0 0 18 20.01"><defs><style>.cls-1{fill:#707377;}</style></defs><title>beeps</title><path class="cls-1" d="M727,480c-2.76,0-5-1.79-5-4s2.24-4,5-4,5,1.79,5,4S729.76,480,727,480Zm0-6c-1.63,0-3,.92-3,2s1.37,2,3,2,3-.92,3-2S728.63,474,727,474Z" transform="translate(-722 -459.99)"/><path class="cls-1" d="M732,476h-2V461l0.41-.3c0.11-.08,2.82-2,6.26,1.1a9.29,9.29,0,0,0,2.63,1.87l0.68,0.23,0,0.72v6.34l-1.14-.16c-0.26,0-1.63-.32-3.59-2.38-1.4-1.47-2.65-1.33-3.28-1.11V476Zm0.81-10.86a5.35,5.35,0,0,1,3.91,1.86,9.63,9.63,0,0,0,1.28,1.14v-2.93a14,14,0,0,1-2.67-2c-1.55-1.4-2.73-1.34-3.33-1.16v3.13A4.59,4.59,0,0,1,732.81,465.14Z" transform="translate(-722 -459.99)"/></svg>