<svg id="Layer_1" data-name="Layer 1" xmlns="http://www.w3.org/2000/svg" viewBox="0 0 14 27.63"><defs><style>.cls-1{fill:#707377;}</style></defs><title>luetooth-pairing</title><path class="cls-1" d="M808,631.63v-5.86l-3,1.77-1-1.72,3.08-1.82L804,622.18l1-1.72,3,1.77v-5.86l8.56,4.35L811,624l5.56,3.28Zm2-5.9v2.64l2.4-1.22Zm0-6.1v2.64l2.4-1.42Z" transform="translate(-803 -616.37)"/><path class="cls-1" d="M812,641h-5a4,4,0,0,1,0-8h5v2h-5a2,2,0,0,0,0,4h5v2Z" transform="translate(-803 -616.37)"/><path class="cls-1" d="M813,644h-5v-2h5a2,2,0,0,0,0-4h-5v-2h5A4,4,0,0,1,813,644Z" transform="translate(-803 -616.37)"/></svg>