<svg id="Layer_1" data-name="Layer 1" xmlns="http://www.w3.org/2000/svg" viewBox="0 0 20 18"><defs><style>.cls-1{fill:#707377;}</style></defs><title>burst</title><path class="cls-1" d="M254,73H240V61h14V73Zm-12-2h10V63H242v8Z" transform="translate(-240 -61)"/><polygon class="cls-1" points="17 15 4 15 4 13 15 13 15 4 17 4 17 15"/><polygon class="cls-1" points="20 18 7 18 7 16 18 16 18 7 20 7 20 18"/><path class="cls-1" d="M243,69c1.12-2.18,1.72-5.42,3.33-3.32,1.17,1.53,1.17,1.43,2,.83s2,0,2.67,2.49h-8Z" transform="translate(-240 -61)"/></svg>