<svg id="Layer_1" data-name="Layer 1" xmlns="http://www.w3.org/2000/svg" viewBox="0 0 27 12.25"><defs><style>.cls-1{fill:#707377;}</style></defs><title>camera-raw</title><path class="cls-1" d="M258.51,236a2.51,2.51,0,0,1-2.51-2.5V224h2v9.5a0.5,0.5,0,0,0,.5.5,0.49,0.49,0,0,0,.5-0.5V229h2v4.5A2.5,2.5,0,0,1,258.51,236Z" transform="translate(-237 -224)"/><path class="cls-1" d="M261.52,236.25A2.57,2.57,0,0,1,259,234h2a0.8,0.8,0,0,0,.51.25,0.76,0.76,0,0,0,.49-0.75V224h2v9.5A2.72,2.72,0,0,1,261.52,236.25Z" transform="translate(-237 -224)"/><rect class="cls-1" y="1" width="2" height="11"/><path class="cls-1" d="M254,236h-2v-9.5a0.5,0.5,0,0,0-.5-0.5h-2a0.5,0.5,0,0,0-.5.5V236h-2v-9.5a2.5,2.5,0,0,1,2.5-2.5h2a2.5,2.5,0,0,1,2.5,2.5V236Z" transform="translate(-237 -224)"/><rect class="cls-1" x="11" y="6" width="5" height="2"/><path class="cls-1" d="M241.52,231H237v-7h4.52A3.5,3.5,0,0,1,241.52,231ZM239,229h2.52a1.5,1.5,0,0,0,0-3H239v3Z" transform="translate(-237 -224)"/><polygon class="cls-1" points="7.62 12 5.39 12 3.11 6.45 4.89 5.55 7.62 12"/></svg>