<svg id="Layer_1" data-name="Layer 1" xmlns="http://www.w3.org/2000/svg" viewBox="0 0 23 18"><defs><style>.cls-1{fill:#707377;}</style></defs><title>chromecast</title><path class="cls-1" d="M501,1341v17H490a12.11,12.11,0,0,0-.34-2H499v-13H481v4.38a12.11,12.11,0,0,0-2-.34v-6h22Z" transform="translate(-478 -1341)"/><path class="cls-1" d="M480,1359h-2v-2A2,2,0,0,1,480,1359Z" transform="translate(-478 -1341)"/><path class="cls-1" d="M488,1359h-2a8,8,0,0,0-8-8v-2A10,10,0,0,1,488,1359Z" transform="translate(-478 -1341)"/><path class="cls-1" d="M484,1359h-2a4,4,0,0,0-4-4v-2A6,6,0,0,1,484,1359Z" transform="translate(-478 -1341)"/></svg>