<svg id="Layer_1" data-name="Layer 1" xmlns="http://www.w3.org/2000/svg" viewBox="0 0 19.93 19.54"><defs><style>.cls-1{fill:#707377;}</style></defs><title>color</title><path class="cls-1" d="M568.55,238.58a2.76,2.76,0,0,1-1.65-.56l-5.72-4.29a2.75,2.75,0,0,1-1.09-1.84,2.41,2.41,0,0,1,.51-1.83l7.76-9.59,10,7.49-7.87,9.73A2.44,2.44,0,0,1,568.55,238.58Zm0.15-15.36-6.54,8.09a0.42,0.42,0,0,0-.08.32,0.75,0.75,0,0,0,.3.49l5.72,4.29a0.6,0.6,0,0,0,.81,0l6.57-8.12Z" transform="translate(-560.07 -220.46)"/><path class="cls-1" d="M580,237.5a2.5,2.5,0,0,1-5,0c0-1.38,2.5-4.37,2.5-4.37S580,236.12,580,237.5Z" transform="translate(-560.07 -220.46)"/><path class="cls-1" d="M572.83,230.08a11.39,11.39,0,0,1-3.15-.58,10.08,10.08,0,0,0-6.11-.25L563,227.33a12.08,12.08,0,0,1,7.19.26c2.06,0.59,3.55,1,6.09-.87l1.19,1.61A7.66,7.66,0,0,1,572.83,230.08Z" transform="translate(-560.07 -220.46)"/></svg>