<svg id="Layer_1" data-name="Layer 1" xmlns="http://www.w3.org/2000/svg" viewBox="0 0 20 20"><defs><style>.cls-1{fill:#707377;}</style></defs><title>contextual-mode-settings</title><path class="cls-1" d="M416.91,160a3.07,3.07,0,0,1-2.18-.9l-5.47-5.47A6.9,6.9,0,0,1,407,154a7,7,0,0,1-7-7,6.85,6.85,0,0,1,.69-3l0.61-1.26,4.28,4.28,1.41-1.41-4.28-4.28,1.26-.61a6.85,6.85,0,0,1,3-.69,7,7,0,0,1,7,7,6.9,6.9,0,0,1-.38,2.26l5.47,5.47A3.09,3.09,0,0,1,416.91,160Zm-7.2-8.75,6.43,6.43a1.11,1.11,0,0,0,1.54,0,1.09,1.09,0,0,0,0-1.54h0l-6.43-6.43,0.29-.63A5,5,0,0,0,412,147a5,5,0,0,0-5-5,5.1,5.1,0,0,0-.72,0l3.54,3.54-4.23,4.23L402,146.28a5.1,5.1,0,0,0,0,.72,5,5,0,0,0,5,5,5,5,0,0,0,2.08-.46Z" transform="translate(-400 -140)"/></svg>