<svg id="Layer_1" data-name="Layer 1" xmlns="http://www.w3.org/2000/svg" viewBox="0 0 20 22"><defs><style>.cls-1{fill:#707377;}</style></defs><title>date-and-time</title><polygon class="cls-1" points="20 19 11 19 11 17 18 17 18 4 3 4 3 12 1 12 1 2 20 2 20 19"/><rect class="cls-1" x="2" y="6" width="17" height="2"/><rect class="cls-1" x="4" width="2" height="3"/><rect class="cls-1" x="15" width="2" height="3"/><path class="cls-1" d="M646.5,480a6.5,6.5,0,1,1,6.5-6.5A6.51,6.51,0,0,1,646.5,480Zm0-11a4.5,4.5,0,1,0,4.5,4.5A4.5,4.5,0,0,0,646.5,469Z" transform="translate(-640 -458)"/><polygon class="cls-1" points="7.22 18.21 5 15.98 5 13 7 13 7 15.16 8.64 16.79 7.22 18.21"/></svg>