<svg id="Layer_1" data-name="Layer 1" xmlns="http://www.w3.org/2000/svg" viewBox="0 0 23.67 27.26"><defs><style>.cls-1{fill:#707377;}</style></defs><title>delete-animation</title><path class="cls-1" d="M323.38,464.26l-2.2-5.58,7.44-2.94,2.2,5.58Zm0.39-4.46,0.73,1.86,3.72-1.47-0.73-1.86Z" transform="translate(-318 -455.74)"/><rect class="cls-1" x="317.73" y="460.86" width="18" height="2" transform="translate(-464.76 -303.51) rotate(-21.54)"/><path class="cls-1" d="M334.5,483h-9a2.5,2.5,0,0,1-2.5-2.5V469h14v11.5A2.5,2.5,0,0,1,334.5,483ZM325,471v9.5a0.5,0.5,0,0,0,.5.5h9a0.5,0.5,0,0,0,.5-0.5V471H325Z" transform="translate(-318 -455.74)"/><rect class="cls-1" x="9" y="17.26" width="2" height="6"/><rect class="cls-1" x="13" y="17.26" width="2" height="6"/><path class="cls-1" d="M339.72,466.31a3,3,0,0,0-3.61-2.1,3.12,3.12,0,0,0-1.8,1.18l-1.61-1.18a5.12,5.12,0,0,1,3-1.95,5,5,0,0,1,6,3.58Z" transform="translate(-318 -455.74)"/><path class="cls-1" d="M331,462v5h5S331,461.84,331,462Z" transform="translate(-318 -455.74)"/></svg>