<svg id="Layer_1" data-name="Layer 1" xmlns="http://www.w3.org/2000/svg" viewBox="0 0 18 19.9"><defs><style>.cls-1{fill:#707377;}</style></defs><title>delete</title><path class="cls-1" d="M254,466h-8v-6h8v6Zm-6-2h4v-2h-4v2Z" transform="translate(-241 -460)"/><rect class="cls-1" y="4" width="18" height="2"/><path class="cls-1" d="M254.5,479.9h-9a2.5,2.5,0,0,1-2.5-2.5V464h14v13.4A2.5,2.5,0,0,1,254.5,479.9ZM245,466v11.4a0.5,0.5,0,0,0,.5.5h9a0.5,0.5,0,0,0,.5-0.5V466H245Z" transform="translate(-241 -460)"/><rect class="cls-1" x="6" y="9" width="2" height="6"/><rect class="cls-1" x="10" y="9" width="2" height="6"/></svg>