<svg id="Layer_1" data-name="Layer 1" xmlns="http://www.w3.org/2000/svg" viewBox="0 0 24.87 22.53"><defs><style>.cls-1{fill:#707377;}</style></defs><title>dislike</title><path class="cls-1" d="M259.91,865.63a3,3,0,0,1-2.05,5.64l-2.59-.94-0.53,3.86a2.5,2.5,0,0,1-3.35,2.17l-2.14-.78a18.25,18.25,0,0,1-.39,2.86,3.55,3.55,0,0,1-1.75,2.44,4.08,4.08,0,0,1-3.33.15l-2-.72,0.35-.94c0-.05,1.78-4.95-0.65-7.68L237,870.08l4.1-11.28Zm-18.45,3.93,2.73-7.52-1.88-.68-2.73,7.52Zm2.86,9.55,0.14,0.05a2.09,2.09,0,0,0,1.69,0,1.62,1.62,0,0,0,.76-1.13,18.18,18.18,0,0,0,.38-3.81l0-1.46,4.81,1.75a0.49,0.49,0,0,0,.44-0.05,0.54,0.54,0,0,0,.23-0.45l0.87-6.39,4.92,1.79a1,1,0,0,0,.68-1.88l-13.16-4.78-2.87,7.9C245.43,873.41,244.78,877.32,244.31,879.11Z" transform="translate(-237.01 -858.8)"/></svg>