<svg id="Layer_1" data-name="Layer 1" xmlns="http://www.w3.org/2000/svg" viewBox="0 0 20 20"><defs><style>.cls-1{fill:#707377;}</style></defs><title>dolly</title><circle class="cls-1" cx="4.5" cy="15.5" r="2.5"/><circle class="cls-1" cx="15.5" cy="17.5" r="2.5"/><path class="cls-1" d="M95.54,1273.79l-0.75-.74S91,1269,91,1266.5a4.5,4.5,0,0,1,9,0c0,2.2-3.13,5.8-3.76,6.5Zm0-9.79a2.5,2.5,0,0,0-2.5,2.5c0,1,1.44,3,2.49,4.3,1.19-1.48,2.51-3.43,2.51-4.3A2.5,2.5,0,0,0,95.5,1264Z" transform="translate(-80 -1260)"/><path class="cls-1" d="M84.54,1271.79l-0.75-.74S80,1267,80,1264.5a4.5,4.5,0,0,1,9,0c0,2.2-3.13,5.8-3.76,6.5Zm0-9.79a2.5,2.5,0,0,0-2.5,2.5c0,1,1.44,3,2.49,4.3,1.19-1.48,2.51-3.43,2.51-4.3A2.5,2.5,0,0,0,84.5,1262Z" transform="translate(-80 -1260)"/><rect class="cls-1" x="89" y="1270.91" width="2" height="11.18" transform="translate(-1262.01 -123.3) rotate(-79.7)"/></svg>