<svg id="Layer_1" data-name="Layer 1" xmlns="http://www.w3.org/2000/svg" viewBox="0 0 18 20.41"><defs><style>.cls-1{fill:#707377;}</style></defs><title>extract-photo</title><polygon class="cls-1" points="18 20.41 0 20.41 0 6.41 6 6.41 6 8.41 2 8.41 2 18.41 16 18.41 16 8.41 12 8.41 12 6.41 18 6.41 18 20.41"/><circle class="cls-1" cx="12.5" cy="10.91" r="1.5"/><path class="cls-1" d="M405,1357c1.41-3.2,2.15-8,4.17-4.88,1.47,2.24,1.46,2.1,2.5,1.22s2.47,0,3.33,3.66H405Z" transform="translate(-401 -1339.59)"/><polygon class="cls-1" points="11.54 5.36 9 2.83 6.46 5.36 5.05 3.95 9 0 12.95 3.95 11.54 5.36"/><rect class="cls-1" x="8" y="1.41" width="2" height="7"/></svg>