<svg id="Layer_1" data-name="Layer 1" xmlns="http://www.w3.org/2000/svg" viewBox="0 0 20 20"><defs><style>.cls-1{fill:#707377;}</style></defs><title>face-me</title><path class="cls-1" d="M571.52,1110.32a2.48,2.48,0,0,0,.87-1.88A2.41,2.41,0,0,0,570,1106a2.38,2.38,0,0,0-2.39,2.38,2.57,2.57,0,0,0,.87,1.92,4.48,4.48,0,0,0-2.18,3.67h7.4A4.49,4.49,0,0,0,571.52,1110.32Z" transform="translate(-560 -1100)"/><path class="cls-1" d="M570,1120a10,10,0,1,1,10-10A10,10,0,0,1,570,1120Zm-1-4h2v1.94a8,8,0,0,0,6.94-6.94H576v-2h1.94a8,8,0,0,0-6.94-6.94V1104h-2v-1.94a8,8,0,0,0-6.94,6.94H564v2h-1.94a8,8,0,0,0,6.94,6.94V1116Z" transform="translate(-560 -1100)"/></svg>