<svg id="Layer_1" data-name="Layer 1" xmlns="http://www.w3.org/2000/svg" viewBox="0 0 14 21.87"><defs><style>.cls-1{fill:#707377;}</style></defs><title>fav</title><path class="cls-1" d="M577,1281.87l-7-4.67-7,4.67V1260h14v21.87Zm-7-7.07,5,3.33V1262H565v16.13Z" transform="translate(-563 -1260)"/><path class="cls-1" d="M573.8,1267c0.13,0,.16,0,0.05.1l-2.24,1.77,0.9,3c0,0.13,0,.16-0.13.09l-2.39-1.69-2.39,1.69c-0.11.08-.17,0-0.13-0.09l0.9-3-2.24-1.75c-0.1-.08-0.08-0.1.05-0.1h2.67l1-2.75c0-.13.13-0.1,0.18,0l1,2.73h2.67Z" transform="translate(-563 -1260)"/></svg>