<svg id="Layer_1" data-name="Layer 1" xmlns="http://www.w3.org/2000/svg" viewBox="0 0 23.38 21.75"><defs><style>.cls-1{fill:#707377;}</style></defs><title>flying-drone</title><path class="cls-1" d="M570,1677a3,3,0,0,1-3-2.51l-0.74-.74A1,1,0,0,1,566,1673v-6a1,1,0,0,1,.29-0.71l0.74-.74a3,3,0,0,1,5.94,0l0.74,0.74a1,1,0,0,1,.29.71v6a1,1,0,0,1-.29.71l-0.76.76A3,3,0,0,1,570,1677Zm-2-4.37,0.71,0.71a1,1,0,0,1,.29.71,1,1,0,0,0,1,1,1,1,0,0,0,1-1,1,1,0,0,1,.59-0.91l0.41-.41v-5.17l-0.71-.71A1,1,0,0,1,571,1666a1,1,0,0,0-2,0,1,1,0,0,1-.29.71l-0.71.71v5.17Z" transform="translate(-558 -1659.25)"/><path class="cls-1" d="M562.54,1676.47l-0.76-1.29,3.27-1.94a2.23,2.23,0,0,0,1-1.85V1671h1.5v0.39a3.74,3.74,0,0,1-1.67,3.12Z" transform="translate(-558 -1659.25)"/><path class="cls-1" d="M562.5,1681a4.58,4.58,0,0,1-4.5-4.37,4.4,4.4,0,0,1,4-4.37v1.5a2.93,2.93,0,0,0-2.5,2.75,2.89,2.89,0,0,0,5.75.5h1.5A4.28,4.28,0,0,1,562.5,1681Z" transform="translate(-558 -1659.25)"/><circle class="cls-1" cx="4.5" cy="17.25" r="1.5"/><path class="cls-1" d="M577.23,1676.47l-3.27-1.94a3.76,3.76,0,0,1-1.71-3.14V1671h1.5v0.39a2.25,2.25,0,0,0,1,1.87l3.24,1.92Z" transform="translate(-558 -1659.25)"/><path class="cls-1" d="M577.27,1681a4.28,4.28,0,0,1-4.25-4h1.5a2.93,2.93,0,0,0,2.75,2.5,2.75,2.75,0,0,0,2.62-2.87,2.68,2.68,0,0,0-2.88-2.87v-1.5a4.09,4.09,0,0,1,4.38,4.38A4.25,4.25,0,0,1,577.27,1681Z" transform="translate(-558 -1659.25)"/><circle class="cls-1" cx="19.27" cy="17.25" r="1.5"/><rect class="cls-1" x="572.12" y="1664.22" width="5.55" height="1.5" transform="translate(-1593.6 -707.69) rotate(-47.06)"/><path class="cls-1" d="M577,1667.75v-1.5a2.59,2.59,0,0,0,2.88-2.75,2.69,2.69,0,0,0-5.13-1.18l-1.34-.65a4.29,4.29,0,0,1,3.85-2.42,4.15,4.15,0,0,1,4.12,4.25A4,4,0,0,1,577,1667.75Z" transform="translate(-558 -1659.25)"/><circle class="cls-1" cx="19.27" cy="4.25" r="1.5"/><rect class="cls-1" x="564.63" y="1662.19" width="1.5" height="5.55" transform="translate(-1540.84 -827.82) rotate(-42.95)"/><path class="cls-1" d="M563,1667.75a4.25,4.25,0,1,1,3.84-6.08l-1.35.65a2.75,2.75,0,1,0-2.48,3.93v1.5Z" transform="translate(-558 -1659.25)"/><circle class="cls-1" cx="5" cy="4.25" r="1.5"/></svg>