<svg id="Layer_1" data-name="Layer 1" xmlns="http://www.w3.org/2000/svg" viewBox="0 0 25 12"><defs><style>.cls-1{fill:#707377;}</style></defs><title>frames-pers-second</title><path class="cls-1" d="M260,396h-4v-2h4a1,1,0,0,0,1-1v-1a1,1,0,0,0-1-1h-1a3,3,0,0,1-3-3v-1a3,3,0,0,1,3-3h4v2h-4a1,1,0,0,0-1,1v1a1,1,0,0,0,1,1h1a3,3,0,0,1,3,3v1A3,3,0,0,1,260,396Z" transform="translate(-238 -384)"/><polygon class="cls-1" points="2 12 0 12 0 0 7 0 7 2 2 2 2 5 6 5 6 7 2 7 2 12"/><path class="cls-1" d="M249,396h-2V384h4.5a2.5,2.5,0,0,1,2.5,2.5v2a2.5,2.5,0,0,1-2.5,2.5H249v5Zm0-7h2.5a0.5,0.5,0,0,0,.5-0.5v-2a0.5,0.5,0,0,0-.5-0.5H249v3Z" transform="translate(-238 -384)"/></svg>