<svg id="Layer_1" data-name="Layer 1" xmlns="http://www.w3.org/2000/svg" viewBox="0 0 17 21.91"><defs><style>.cls-1{fill:#707377;}</style></defs><title>high-five</title><path class="cls-1" d="M810,1600h-1a8,8,0,0,1-8-8v-7h2a3,3,0,0,1,1,.17v-3.69a2.49,2.49,0,0,1,2.48-2.48,2.55,2.55,0,0,1,.95.18,2.48,2.48,0,0,1,2.05-1.09,2.51,2.51,0,0,1,2.13,1.16,3.73,3.73,0,0,0,3.87,1.74,2.49,2.49,0,0,1,2.52,2.48V1592A8,8,0,0,1,810,1600Zm-7-13v5a6,6,0,0,0,6,6h1a6,6,0,0,0,6-6v-8.52a0.49,0.49,0,0,0-.48-0.48,0.49,0.49,0,0,0-.52.48V1589h-2v-7.42a0.49,0.49,0,0,0-.48-0.48,0.49,0.49,0,0,0-.52.48v7.32h-2v-8.32a0.49,0.49,0,0,0-.48-0.48,0.49,0.49,0,0,0-.52.48v8.33h-2v-7.42a0.48,0.48,0,0,0-.48-0.48,0.49,0.49,0,0,0-.52.48v6.25c0,0.09,0,.17,0,0.26v2.13a4.09,4.09,0,0,1,3.1,3.87h-2a2.08,2.08,0,0,0-2.1-2h-1v-4A1,1,0,0,0,803,1587Z" transform="translate(-801 -1578.09)"/></svg>