<svg id="Layer_1" data-name="Layer 1" xmlns="http://www.w3.org/2000/svg" viewBox="0 0 20 19"><defs><style>.cls-1{fill:#707377;}</style></defs><title>horizon</title><path class="cls-1" d="M255.71,1273H244.29l-0.17-.79A5.72,5.72,0,0,1,244,1271a6,6,0,0,1,12,0,5.72,5.72,0,0,1-.12,1.21Zm-9.71-2h8A4,4,0,0,0,246,1271Z" transform="translate(-240 -1260)"/><rect class="cls-1" y="11" width="20" height="2"/><rect class="cls-1" x="2" y="14" width="16" height="2"/><rect class="cls-1" x="4" y="17" width="12" height="2"/><rect class="cls-1" x="9" width="2" height="3"/><rect class="cls-1" x="255.22" y="1263.28" width="3" height="2" transform="translate(-1058.79 -708.17) rotate(-45)"/><rect class="cls-1" x="242.28" y="1262.78" width="2" height="3" transform="translate(-1062.81 -717.55) rotate(-45.01)"/></svg>