<svg id="Layer_1" data-name="Layer 1" xmlns="http://www.w3.org/2000/svg" viewBox="0 0 22 12"><defs><style>.cls-1{fill:#707377;}</style></defs><title>iso</title><rect class="cls-1" width="2" height="12"/><path class="cls-1" d="M728,236h-5v-2h5a1,1,0,0,0,1-1v-1a1,1,0,0,0-1-1h-2a3,3,0,0,1-3-3v-1a3,3,0,0,1,3-3h5v2h-5a1,1,0,0,0-1,1v1a1,1,0,0,0,1,1h2a3,3,0,0,1,3,3v1A3,3,0,0,1,728,236Z" transform="translate(-719 -224)"/><path class="cls-1" d="M738.46,236h-2.92a2.54,2.54,0,0,1-2.54-2.54v-6.92a2.54,2.54,0,0,1,2.54-2.54h2.92a2.54,2.54,0,0,1,2.54,2.54v6.92A2.54,2.54,0,0,1,738.46,236Zm-2.92-10a0.54,0.54,0,0,0-.54.54v6.92a0.54,0.54,0,0,0,.54.54h2.92a0.54,0.54,0,0,0,.54-0.54v-6.92a0.54,0.54,0,0,0-.54-0.54h-2.92Z" transform="translate(-719 -224)"/></svg>