<svg id="Layer_1" data-name="Layer 1" xmlns="http://www.w3.org/2000/svg" viewBox="0 0 22 20"><defs><style>.cls-1{fill:#707377;}</style></defs><title>learn</title><path class="cls-1" d="M172.55,1120h-5.11l-1.11-1.77-7.34-2.52v-15.1l3,1V1100h1c2.4,0,5.45.79,7,2.31,1.55-1.51,4.6-2.31,7-2.31h1v1.61l3-1v15.1l-7.34,2.52Zm-4-2h2.89l0.89-1.43,6.66-2.28v-10.9l-1,.33V1114h-1c-3.25,0-6,1-6,2h-2c0-1-2.75-2-6-2h-1v-10.28l-1-.33v10.9l6.66,2.28Zm2.45-13.53v8.61a11.93,11.93,0,0,1,5-1.5V1102C173.2,1102.31,171,1103.61,171,1104.47Zm-7,7.11a11.93,11.93,0,0,1,5,1.5v-8.61c0-.85-2.2-2.16-5-2.42v9.53Z" transform="translate(-159 -1100)"/></svg>