<svg id="Layer_1" data-name="Layer 1" xmlns="http://www.w3.org/2000/svg" viewBox="0 0 24.87 22.53"><defs><style>.cls-1{fill:#707377;}</style></defs><title>like</title><path class="cls-1" d="M241.11,881.33L237,870.05l4.47-1.63c2.43-2.74.67-7.63,0.65-7.68l-0.35-.94,2-.72a4.08,4.08,0,0,1,3.33.15,3.55,3.55,0,0,1,1.75,2.44,18.25,18.25,0,0,1,.39,2.86l2.14-.78a2.5,2.5,0,0,1,3.35,2.17l0.53,3.86,2.59-.94a3,3,0,0,1,2.05,5.64Zm-1.54-10.08,2.73,7.52,1.88-.68-2.73-7.52Zm3.62-1.75,2.87,7.9,13.16-4.78a1,1,0,0,0-.68-1.88l-4.92,1.79-0.87-6.39a0.54,0.54,0,0,0-.23-0.45,0.49,0.49,0,0,0-.44-0.05l-4.81,1.75,0-1.46a18.18,18.18,0,0,0-.38-3.81,1.62,1.62,0,0,0-.76-1.13,2.09,2.09,0,0,0-1.69,0l-0.14.05C244.78,862.81,245.43,866.71,243.19,869.5Z" transform="translate(-237.01 -858.8)"/></svg>