<svg id="Layer_1" data-name="Layer 1" xmlns="http://www.w3.org/2000/svg" viewBox="0 0 20.84 18.56"><defs><style>.cls-1{fill:#707377;}</style></defs><title>lost-internet-connection</title><path class="cls-1" d="M338.33,1425.76l-1.5,1.38a11.2,11.2,0,0,1,2.11,1.85l1.48-1.34A14.34,14.34,0,0,0,338.33,1425.76Z" transform="translate(-319.58 -1420.44)"/><path class="cls-1" d="M335.31,1428.54l-1.53,1.41a8.22,8.22,0,0,1,2.3,1.86l1.52-1.3A10,10,0,0,0,335.31,1428.54Z" transform="translate(-319.58 -1420.44)"/><path class="cls-1" d="M332.18,1431.42l-1.73,1.6a4,4,0,0,1,2.59,1.39l1.52-1.3A6,6,0,0,0,332.18,1431.42Z" transform="translate(-319.58 -1420.44)"/><circle class="cls-1" cx="10.42" cy="16.56" r="2"/><path class="cls-1" d="M338.06,1420.44l-3.54,3.33A13.88,13.88,0,0,0,330,1423a14.07,14.07,0,0,0-10.42,4.65l1.48,1.34a12.06,12.06,0,0,1,8.94-4,11.85,11.85,0,0,1,2.85.35l-1.8,1.69c-0.33,0-.67,0-1.05,0a10,10,0,0,0-7.6,3.51l1.52,1.3a8,8,0,0,1,5-2.72l-7.81,7.35,1.37,1.46,17-16Z" transform="translate(-319.58 -1420.44)"/></svg>