<svg id="Layer_1" data-name="Layer 1" xmlns="http://www.w3.org/2000/svg" viewBox="0 0 28 12"><defs><style>.cls-1{fill:#707377;}</style></defs><title>on-screen-display</title><path class="cls-1" d="M572,476h-5v-2h5a1,1,0,0,0,1-1v-1a1,1,0,0,0-1-1h-2a3,3,0,0,1-3-3v-1a3,3,0,0,1,3-3h5v2h-5a1,1,0,0,0-1,1v1a1,1,0,0,0,1,1h2a3,3,0,0,1,3,3v1A3,3,0,0,1,572,476Z" transform="translate(-557 -464)"/><path class="cls-1" d="M562.46,476h-2.92a2.54,2.54,0,0,1-2.54-2.54v-6.92a2.54,2.54,0,0,1,2.54-2.54h2.92a2.54,2.54,0,0,1,2.54,2.54v6.92A2.54,2.54,0,0,1,562.46,476Zm-2.92-10a0.54,0.54,0,0,0-.54.54v6.92a0.54,0.54,0,0,0,.54.54h2.92a0.54,0.54,0,0,0,.54-0.54v-6.92a0.54,0.54,0,0,0-.54-0.54h-2.92Z" transform="translate(-557 -464)"/><path class="cls-1" d="M580,476h-3V464h3a5,5,0,0,1,5,5v2A5,5,0,0,1,580,476Zm-1-2h1a3,3,0,0,0,3-3v-2a3,3,0,0,0-3-3h-1v8Z" transform="translate(-557 -464)"/></svg>