<svg id="Layer_1" data-name="Layer 1" xmlns="http://www.w3.org/2000/svg" viewBox="0 0 28 19.21"><defs><style>.cls-1{fill:#707377;}</style></defs><title>panoramic</title><path class="cls-1" d="M494,794.21l-1.19-.23a37.54,37.54,0,0,0-13.24-.19l-2.57.34V780.86l1.13,0.15c0.56,0.07,1.07.29,1.54,0.36a37.45,37.45,0,0,0,5.83.63h0a36.42,36.42,0,0,0,7.26-.83l1.19-.38v13.42Zm-15-11.07v8.71l0.29,0a40.66,40.66,0,0,1,6.35-.52,41.11,41.11,0,0,1,6.36.51v-8.62a37.1,37.1,0,0,1-6.45.81h0a38.83,38.83,0,0,1-6.1-.65C479.27,783.33,479.14,783.16,479,783.14Z" transform="translate(-477 -780.79)"/><path class="cls-1" d="M505,789v10l-4-1.43V800H489v-4.77c0.67,0.09,1.34.19,2,.31V798h8v-3.28l4,1.43v-4.3l-4,1.43V790h-3v-2h5v2.44Z" transform="translate(-477 -780.79)"/><rect class="cls-1" x="5" y="2.21" width="2" height="9"/><rect class="cls-1" x="10" y="2.21" width="2" height="9"/></svg>