<svg id="Layer_1" data-name="Layer 1" xmlns="http://www.w3.org/2000/svg" viewBox="0 0 24 18"><defs><style>.cls-1{fill:#707377;}</style></defs><title>platform-ready</title><path class="cls-1" d="M570,543a5,5,0,0,1,5,5v1h1a4,4,0,1,1,0,8H564a4,4,0,1,1,0-8h1v-1a5,5,0,0,1,5-5m0-2a7,7,0,0,0-6.94,6.08A6,6,0,0,0,564,559H576a6,6,0,0,0,1-11.92A7,7,0,0,0,570,541h0Z" transform="translate(-558 -541)"/><path class="cls-1" d="M569,555a1,1,0,0,1-.71-0.29l-2.56-2.56,1.41-1.41,1.86,1.86,3.79-3.79,1.41,1.41-4.5,4.5A1,1,0,0,1,569,555Z" transform="translate(-558 -541)"/></svg>