<svg id="Layer_1" data-name="Layer 1" xmlns="http://www.w3.org/2000/svg" viewBox="0 0 24 18"><defs><style>.cls-1{fill:#707377;}</style></defs><title>platform-unavailable</title><path class="cls-1" d="M650,543a5,5,0,0,1,5,5v1h1a4,4,0,1,1,0,8H644a4,4,0,1,1,0-8h1v-1a5,5,0,0,1,5-5m0-2a7,7,0,0,0-6.94,6.08A6,6,0,0,0,644,559H656a6,6,0,0,0,1-11.92A7,7,0,0,0,650,541h0Z" transform="translate(-638 -541)"/><rect class="cls-1" x="649" y="547.76" width="2" height="8.49" transform="translate(-837.94 80.3) rotate(-45)"/><rect class="cls-1" x="645.76" y="551" width="8.49" height="2" transform="translate(-837.94 80.3) rotate(-45)"/></svg>