<svg id="Layer_1" data-name="Layer 1" xmlns="http://www.w3.org/2000/svg" viewBox="0 0 20 20"><defs><style>.cls-1{fill:#707377;}</style></defs><title>play-all</title><path class="cls-1" d="M488,1514v-8l6,4Z" transform="translate(-480 -1500)"/><polygon class="cls-1" points="20 8 14 8 14 6 18 6 18 2 20 2 20 8"/><path class="cls-1" d="M482,1510h-2a10,10,0,0,1,19-4.45l-1.79.89A8,8,0,0,0,482,1510Z" transform="translate(-480 -1500)"/><polygon class="cls-1" points="2 18 0 18 0 12 6 12 6 14 2 14 2 18"/><path class="cls-1" d="M490,1520a10,10,0,0,1-9-5.55l1.79-.89A8,8,0,0,0,498,1510h2A10,10,0,0,1,490,1520Z" transform="translate(-480 -1500)"/></svg>