<svg id="Layer_1" data-name="Layer 1" xmlns="http://www.w3.org/2000/svg" viewBox="0 0 20 20"><defs><style>.cls-1{fill:#707377;}</style></defs><title>question-mark-circle</title><path class="cls-1" d="M810,960a10,10,0,1,1,10-10A10,10,0,0,1,810,960Zm0-18a8,8,0,1,0,8,8A8,8,0,0,0,810,942Z" transform="translate(-800 -940)"/><path class="cls-1" d="M811,953h-2v-2a1,1,0,0,1,1-1,2,2,0,1,0-2-2h-2a4,4,0,1,1,5,3.87V953Z" transform="translate(-800 -940)"/><rect class="cls-1" x="9" y="14" width="2" height="2"/></svg>