<svg id="Layer_1" data-name="Layer 1" xmlns="http://www.w3.org/2000/svg" viewBox="0 0 24.96 20"><defs><style>.cls-1{fill:#707377;}</style></defs><title>quikCapture</title><path class="cls-1" d="M159.2,400a2.11,2.11,0,0,1-.93-0.22,2.33,2.33,0,0,1-1.27-2.19c0.06-1.75,1.18-2.79,2.89-4.29a3.56,3.56,0,0,1-.23-2.57,3.18,3.18,0,0,1,2.15-2.21,3,3,0,0,1,2.34.28,3.24,3.24,0,0,1,1.16,1.17,8.53,8.53,0,0,0,3-1.45c-1.37-1.12-3.59-3.16-3.82-4.79a1.93,1.93,0,0,1,.36-1.47c1-1.36,2.72-1.09,4-.59a2.18,2.18,0,0,1,.38-0.93,1.87,1.87,0,0,1,1.55-.74c3.16,0,4.38,3.1,4.77,4.55,2.21,0.44,5.46,1.94,5.46,5.35,0,2-1.6,2.77-3,3.2a12.35,12.35,0,0,1,2.18,1.07c1.81,1.19,2.08,3,1.41,4.15a2,2,0,0,1-2.66.87c-7.94-3.89-16-1.68-18.41.3A2.13,2.13,0,0,1,159.2,400Zm3.46-9.6a1.09,1.09,0,0,0-.3,0,1.21,1.21,0,0,0-.77.83,1.47,1.47,0,0,0,.35,1.47l0.77,0.75-1.25,1.1c-1.67,1.46-2.41,2.14-2.44,3.06a0.32,0.32,0,0,0,.15.32,0.11,0.11,0,0,0,.14,0c2.8-2.34,11.71-4.9,20.57-.56a0.56,0.56,0,0,0,.11-0.32,1.55,1.55,0,0,0-.85-1.24,12.68,12.68,0,0,0-3.4-1.39h0a1.38,1.38,0,0,1-1-1.31,1.5,1.5,0,0,1,1-1.48c0.22-.08.51-0.15,0.84-0.23,1.61-.39,2.48-0.75,2.48-1.53,0-3-4.34-3.46-4.39-3.47l-0.76-.08-0.12-.76s-0.62-3.56-2.92-3.6a2.83,2.83,0,0,0,.11,1.08l0.82,2.69-2.33-1.57c-0.79-.53-2.52-1.31-3-0.73,0,0.57,1.91,2.64,4,4.19l0.86,0.63-0.69.82a10,10,0,0,1-5.76,3l-0.91.15-0.22-.9a1.32,1.32,0,0,0-.59-0.83A1,1,0,0,0,162.65,390.4Zm13.56,2.11h0Z" transform="translate(-157 -380)"/><circle class="cls-1" cx="17.5" cy="9.5" r="1.5"/></svg>