<svg id="Layer_1" data-name="Layer 1" xmlns="http://www.w3.org/2000/svg" viewBox="0 0 14 30"><defs><style>.cls-1{fill:#707377;}</style></defs><title>remote-dl-firmware</title><path class="cls-1" d="M653,644h-6a4,4,0,0,1-4-4V628a4,4,0,0,1,4-4h6a4,4,0,0,1,4,4v12A4,4,0,0,1,653,644Zm-8-5v1a2,2,0,0,0,2,2h6a2,2,0,0,0,2-2v-1H645Zm0-2h10v-3H645v3Zm0-5h10v-4a2,2,0,0,0-2-2h-6a2,2,0,0,0-2,2v4Z" transform="translate(-643 -614)"/><rect class="cls-1" x="5" y="13" width="4" height="4"/><path class="cls-1" d="M650,623a1,1,0,0,1-.71-0.29l-4-4,1.41-1.41,2.29,2.29V614h2v5.59l2.29-2.29,1.41,1.41-4,4A1,1,0,0,1,650,623Z" transform="translate(-643 -614)"/></svg>