<svg id="Layer_1" data-name="Layer 1" xmlns="http://www.w3.org/2000/svg" viewBox="0 0 14 20"><defs><style>.cls-1{fill:#707377;}</style></defs><title>remote-2</title><path class="cls-1" d="M333,640h-6a4,4,0,0,1-4-4V624a4,4,0,0,1,4-4h6a4,4,0,0,1,4,4v12A4,4,0,0,1,333,640Zm-6-18a2,2,0,0,0-2,2v12a2,2,0,0,0,2,2h6a2,2,0,0,0,2-2V624a2,2,0,0,0-2-2h-6Z" transform="translate(-323 -620)"/><rect class="cls-1" x="1" y="8" width="12" height="2"/><rect class="cls-1" x="1" y="13" width="12" height="2"/><rect class="cls-1" x="5" y="3" width="4" height="4"/><rect class="cls-1" x="6" y="14" width="2" height="5"/></svg>