<svg id="Layer_1" data-name="Layer 1" xmlns="http://www.w3.org/2000/svg" viewBox="0 0 19.67 20"><defs><style>.cls-1{fill:#707377;}</style></defs><title>settings</title><path class="cls-1" d="M492.32,160h-4.67l-0.55-3.3a7.22,7.22,0,0,1-1.46-.85L482.5,157l-2.33-4,2.58-2.13a7.31,7.31,0,0,1,0-1.69L480.18,147l2.33-4,3.14,1.18a7.23,7.23,0,0,1,1.46-.84l0.57-3.3h4.67l0.55,3.3a7.18,7.18,0,0,1,1.46.85L497.5,143l2.33,4-2.58,2.13a7.31,7.31,0,0,1,0,1.7l2.57,2.14-2.33,4-3.14-1.18a7.21,7.21,0,0,1-1.46.84Zm-3-2h1.29l0.48-2.79,0.57-.19A5.25,5.25,0,0,0,493.5,154l0.45-.4,2.65,1,0.64-1.11-2.17-1.8,0.12-.58a5.41,5.41,0,0,0,.11-1.06,5.24,5.24,0,0,0-.11-1.05l-0.12-.59,2.18-1.79-0.64-1.11-2.66,1-0.45-.4a5.25,5.25,0,0,0-1.82-1.05l-0.57-.19L490.65,142h-1.29l-0.48,2.79-0.57.19A5.26,5.26,0,0,0,486.5,146l-0.45.4-2.65-1-0.64,1.11,2.17,1.8-0.12.58a5.41,5.41,0,0,0-.11,1.06,5.24,5.24,0,0,0,.11,1.05l0.12,0.59-2.18,1.79,0.64,1.11,2.66-1,0.45,0.4a5.27,5.27,0,0,0,1.82,1.06l0.57,0.19Z" transform="translate(-480.17 -140)"/><circle class="cls-1" cx="9.83" cy="10" r="2"/></svg>