<svg id="Layer_1" data-name="Layer 1" xmlns="http://www.w3.org/2000/svg" viewBox="0 0 39.12 39.13"><defs><style>.cls-1{fill:#707377;}</style></defs><title>share</title><path class="cls-1" d="M266.61,1614.44a7.83,7.83,0,0,1-7.75-8.88l-10-5.37a7.83,7.83,0,1,1,0-10.62l10-5.37a7.84,7.84,0,1,1,1.5,3.64l-9.62,5.18a7.84,7.84,0,0,1,0,3.73l9.62,5.18A7.82,7.82,0,1,1,266.61,1614.44Zm0-11.74a3.91,3.91,0,1,0,3.91,3.91A3.92,3.92,0,0,0,266.61,1602.7ZM243.14,1591a3.91,3.91,0,1,0,3.91,3.91A3.92,3.92,0,0,0,243.14,1591Zm23.47-11.74a3.91,3.91,0,1,0,3.91,3.91A3.92,3.92,0,0,0,266.61,1579.23Z" transform="translate(-235.31 -1575.31)"/></svg>