<svg id="Layer_1" data-name="Layer 1" xmlns="http://www.w3.org/2000/svg" viewBox="0 0 17.6 22"><defs><style>.cls-1{fill:#707377;}</style></defs><title>snipper</title><path class="cls-1" d="M817.2,1424.6a9,9,0,0,0-14.4,0l-1.6-1.2a11,11,0,0,1,17.6,0Z" transform="translate(-801.2 -1419)"/><path class="cls-1" d="M814.27,1427.4a5,5,0,0,0-8.53,0l-1.71-1a7,7,0,0,1,11.95,0Z" transform="translate(-801.2 -1419)"/><path class="cls-1" d="M810,1437a4,4,0,0,1-4-4v-2a4,4,0,0,1,8,0v2A4,4,0,0,1,810,1437Zm0-8a2,2,0,0,0-2,2v2a2,2,0,0,0,4,0v-2A2,2,0,0,0,810,1429Z" transform="translate(-801.2 -1419)"/><rect class="cls-1" x="7.8" y="17" width="2" height="4"/><rect class="cls-1" x="4.8" y="20" width="8" height="2"/></svg>