<svg id="Layer_1" data-name="Layer 1" xmlns="http://www.w3.org/2000/svg" viewBox="0 0 27 20"><defs><style>.cls-1{fill:#707377;}</style></defs><title>spherical</title><path class="cls-1" d="M424,789v10l-4-1.43V800H408v-2.46a9.71,9.71,0,0,0,2-.88V798h8v-3.28l4,1.43v-4.3l-4,1.43V790h-3.2a10,10,0,0,0,.2-2h5v2.44Z" transform="translate(-397 -780)"/><path class="cls-1" d="M405,796a8,8,0,1,1,8-8A8,8,0,0,1,405,796Zm0-14a6,6,0,1,0,6,6A6,6,0,0,0,405,782Z" transform="translate(-397 -780)"/><rect class="cls-1" x="1" y="7" width="14" height="2"/><path class="cls-1" d="M405,796c-2.4,0-3.5-4.15-3.5-8s1.1-8,3.5-8,3.5,4.15,3.5,8S407.4,796,405,796Zm0-14c-0.38.12-1.48,2.16-1.48,6s1.1,5.88,1.52,6c0.38-.12,1.48-2.16,1.48-6S405.4,782.12,405,782Z" transform="translate(-397 -780)"/></svg>