<svg id="Layer_1" data-name="Layer 1" xmlns="http://www.w3.org/2000/svg" viewBox="0 0 22 21"><defs><style>.cls-1{fill:#707377;}</style></defs><title>support</title><rect class="cls-1" x="8" y="13" width="6" height="4" rx="2" ry="2"/><circle class="cls-1" cx="8.5" cy="10.5" r="1.5"/><circle class="cls-1" cx="13.5" cy="10.5" r="1.5"/><path class="cls-1" d="M650,1280a8,8,0,0,1-7.75-6H641.5a2.5,2.5,0,0,1-2.5-2.5v-3a2.5,2.5,0,0,1,2.5-2.5h0.56a7.58,7.58,0,0,1,.21-1.08A8,8,0,0,1,650,1259a7.12,7.12,0,0,1,1.27.12,8,8,0,0,1,6.56,6.26c0,0.2.08,0.41,0.11,0.62h0.57a2.5,2.5,0,0,1,2.5,2.5v3a2.5,2.5,0,0,1-2.5,2.5h-0.75A8,8,0,0,1,650,1280Zm-5.32-5.22A6,6,0,0,0,656,1272v-4a7.94,7.94,0,0,1-5.6-2.29A9.87,9.87,0,0,1,644,1268h0v3a2,2,0,0,0,2,2h4v2h-4A4,4,0,0,1,644.68,1274.78ZM658,1272h0.5a0.5,0.5,0,0,0,.5-0.5v-3a0.5,0.5,0,0,0-.5-0.5H658v4Zm-16.5-4a0.5,0.5,0,0,0-.5.5v3a0.5,0.5,0,0,0,.5.5H642v-4h-0.5Zm8.55-7a6,6,0,0,0-5.84,4.45q-0.08.28-.12,0.55a7.92,7.92,0,0,0,5.67-2.42l0.8-.82,0.7,0.91a6,6,0,0,0,4.65,2.33l0-.2a6,6,0,0,0-4.93-4.71A5.07,5.07,0,0,0,650,1261Z" transform="translate(-639 -1259)"/></svg>