<svg id="Layer_1" data-name="Layer 1" xmlns="http://www.w3.org/2000/svg" viewBox="0 0 22 18.47"><defs><style>.cls-1{fill:#707377;}</style></defs><title>touch-display-volume</title><path class="cls-1" d="M91,799.47L85.64,795H83v-6h2.64L91,784.53v14.94ZM85,793h1.36L89,795.2v-6.4L86.36,791H85v2Z" transform="translate(-79 -781)"/><path class="cls-1" d="M92,797v-2a3,3,0,0,0,0-6v-2A5,5,0,0,1,92,797Z" transform="translate(-79 -781)"/><path class="cls-1" d="M92,790a2,2,0,0,1,0,4" transform="translate(-79 -781)"/><polygon class="cls-1" points="22 18 17 18 17 16 20 16 20 2 2 2 2 16 5 16 5 18 0 18 0 0 22 0 22 18"/></svg>