<svg id="Layer_1" data-name="Layer 1" xmlns="http://www.w3.org/2000/svg" viewBox="0 0 18.35 20"><defs><style>.cls-1{fill:#707377;}</style></defs><title>touch-display</title><path class="cls-1" d="M817.87,560H806.63l-5.88-7,1.22-1.83a3,3,0,0,1,4.33-.71L807,551v-7a3,3,0,0,1,6,0v5.16l6.11,1.83Zm-10.3-2h8.56l0.77-5.59L811,550.64V544a1,1,0,0,0-2,0v8.8a1.1,1.1,0,0,1-1.77.87L805.09,552a1,1,0,0,0-1.45.24l-0.39.59Z" transform="translate(-800.75 -540)"/><path class="cls-1" d="M814,544a4,4,0,0,1-2,3.46V544a2,2,0,0,0-2-2,2,2,0,0,0-2,2v3.46A4,4,0,1,1,814,544Z" transform="translate(-800.75 -540)"/></svg>