<svg id="Layer_1" data-name="Layer 1" xmlns="http://www.w3.org/2000/svg" viewBox="0 0 22 18"><defs><style>.cls-1{fill:#707377;}</style></defs><title>touch-display-setup</title><polygon class="cls-1" points="22 18 17 18 17 16 20 16 20 2 2 2 2 16 5 16 5 18 0 18 0 0 22 0 22 18"/><path class="cls-1" d="M250,798a7,7,0,1,1,7-7A7,7,0,0,1,250,798Zm0-12a5,5,0,1,0,5,5A5,5,0,0,0,250,786Z" transform="translate(-239 -781)"/><polygon class="cls-1" points="12.29 12.71 10 10.41 10 7 12 7 12 9.59 13.71 11.29 12.29 12.71"/></svg>