<svg id="Layer_1" data-name="Layer 1" xmlns="http://www.w3.org/2000/svg" viewBox="0 0 26 18"><defs><style>.cls-1{fill:#707377;}</style></defs><title>track-order</title><path class="cls-1" d="M653.78,1594H647v-14h14v6.78l-1.34-.49A4.83,4.83,0,0,0,658,1586a5,5,0,0,0-5,5,4.83,4.83,0,0,0,.29,1.66Zm-4.78-2h2.07a7,7,0,0,1,7.93-7.93V1582H649v10Z" transform="translate(-639 -1580)"/><polygon class="cls-1" points="8 14 0 14 0 7.68 3.98 2 9 2 9 4 5.02 4 2 8.31 2 12 8 12 8 14"/><circle class="cls-1" cx="4.5" cy="13.5" r="2.5"/><path class="cls-1" d="M643,1588l2-3h1v3h-3Z" transform="translate(-639 -1580)"/><polygon class="cls-1" points="20.64 14.05 18 11.41 18 8 20 8 20 10.59 22.05 12.64 20.64 14.05"/><path class="cls-1" d="M658,1598a7,7,0,0,1-6.59-4.67l1.89-.66a5,5,0,1,0,6.38-6.38l0.66-1.89A7,7,0,0,1,658,1598Z" transform="translate(-639 -1580)"/></svg>