<svg id="Layer_1" data-name="Layer 1" xmlns="http://www.w3.org/2000/svg" viewBox="0 0 24 20"><defs><style>.cls-1{fill:#707377;}</style></defs><title>video-plus-photo</title><polygon class="cls-1" points="20 20 7 20 7 13 9 13 9 18 18 18 18 14.72 22 16.15 22 11.85 18 13.28 18 10 16.29 10 15.53 10.48 14.47 8.78 15.71 8 20 8 20 10.44 24 9.01 24 18.99 20 17.56 20 20"/><circle class="cls-1" cx="8" cy="7" r="2"/><path class="cls-1" d="M814,73H798V63h3.54l1.3-3h6.31l1.3,3H814V73Zm-14-2h12V65h-2.86l-1.3-3h-3.69l-1.3,3H800v6Z" transform="translate(-798 -60)"/></svg>