<svg id="Layer_1" data-name="Layer 1" xmlns="http://www.w3.org/2000/svg" viewBox="0 0 19.2 19.26"><defs><style>.cls-1{fill:#707377;}</style></defs><title>wind-noise-suppression</title><path class="cls-1" d="M93.79,1668.68a7.38,7.38,0,0,0,.82,0,8.3,8.3,0,0,0,5-1.93l-1.2-1.6a7.13,7.13,0,0,1-3.05,1.47Z" transform="translate(-80.4 -1660.29)"/><path class="cls-1" d="M92.55,1670.26l-1.25,1.62a7.38,7.38,0,0,0,3.31.85,8.3,8.3,0,0,0,5-1.93l-1.2-1.6C95.92,1671.06,94.22,1671,92.55,1670.26Z" transform="translate(-80.4 -1660.29)"/><path class="cls-1" d="M90.5,1673.16l-0.14-.08-1.23,1.59,0.35,0.21a10,10,0,0,0,5.13,1.85,8.3,8.3,0,0,0,5-1.93l-1.2-1.6C94.93,1675.8,93,1674.63,90.5,1673.16Z" transform="translate(-80.4 -1660.29)"/><path class="cls-1" d="M95.24,1660.29l-4.09,5.25-0.65-.39c-2.48-1.48-5.57-3.33-10.1,0l1.2,1.6c3.45-2.56,5.41-1.4,7.88.08l0.44,0.25L89,1668.31c-2.22-1.14-4.94-1.84-8.6.89l1.2,1.6c2.62-1.94,4.38-1.74,6.16-.89l-1.18,1.52c-1.73-.33-3.75,0-6.18,1.77l1.2,1.6a6.58,6.58,0,0,1,3.52-1.5l-3.91,5,1.58,1.23,14-18Z" transform="translate(-80.4 -1660.29)"/></svg>