<svg id="Layer_1" data-name="Layer 1" xmlns="http://www.w3.org/2000/svg" viewBox="0 0 20.84 16"><defs><style>.cls-1{fill:#707377;}</style></defs><title>wireless</title><path class="cls-1" d="M578.94,148a12,12,0,0,0-17.87,0l-1.48-1.34a14,14,0,0,1,20.84,0Z" transform="translate(-559.58 -142)"/><path class="cls-1" d="M576.08,150.81a8,8,0,0,0-12.16,0l-1.52-1.3a10,10,0,0,1,15.2,0Z" transform="translate(-559.58 -142)"/><path class="cls-1" d="M573,153.41a4,4,0,0,0-6.08,0l-1.52-1.3a6,6,0,0,1,9.12,0Z" transform="translate(-559.58 -142)"/><circle class="cls-1" cx="10.42" cy="14" r="2"/></svg>