<svg id="Calque_1" data-name="Calque 1" xmlns="http://www.w3.org/2000/svg" viewBox="0 0 453.5 81.26"><defs><style>.cls-1{fill:#6d6968;}.cls-2,.cls-7{fill:#1d1d1b;}.cls-3{fill:#249dd9;}.cls-4{fill:#fff;}.cls-5{fill:#13110c;}.cls-6{fill:#1954a2;}.cls-7{font-size:29.44px;font-family:Proxima Nova;font-style:italic;}.cls-8{letter-spacing:2px;}</style></defs><title>logo_gopro_vr_player</title><polyline class="cls-1" points="319.5 0 319.5 77.73 318.02 77.73 318.02 0"/><polygon class="cls-2" points="364.3 41.39 342.41 1.73 335.55 1.73 360.56 46.88 368.04 46.88 393.04 1.73 386.18 1.73 364.3 41.39"/><path class="cls-2" d="M466.41,52.7c2.34-.54,3.2-0.9,3.94-1.47,1.47-1.14,4.51-2.53,4.51-8.89V38.66c0-8.48-2.06-12.78-15.09-12.78h-36.1V71h6.11V53.19h22.53L467,70.9h7.58L459.88,53.19A36.4,36.4,0,0,0,466.41,52.7ZM429.77,30.86h27.81c9,0,11.16,1.62,11.16,6.67v4.12c0,4.74-2.87,6.55-9.66,6.55H429.77V30.86Z" transform="translate(-23.69 -24.14)"/><path d="M45.4,24.85a45.74,45.74,0,0,0-13.8,2q-7.92,2.63-7.91,8.12V55.32q0,5.72,7.75,8.32a43.83,43.83,0,0,0,13.88,1.91h21a35.57,35.57,0,0,0,13-2.11q6.87-2.7,6.87-8.25v-8c0-1.75-1.08-2.61-3.24-2.61-1.45,0-2.58,0-3.37.07H64a3.27,3.27,0,0,0,0,6.52H77v4.33c0,1.3-1.42,2.32-4.25,3.08a24.53,24.53,0,0,1-6.37.9H45.44q-12.5,0-12.5-4.14V34.93q0-4.14,14.92-4.14l1.21,0,1.71,0a1.09,1.09,0,0,0,.41,0h2.55c2.25,0,3.37-1,3.37-3s-1.12-3-3.37-3" transform="translate(-23.69 -24.14)"/><path d="M238.87,62.73V43.27c0-2.74,3.33-4,10.07-4h1.62a14.39,14.39,0,0,0,1.54.07c2.56,0,3.92-.89,3.92-2.67q0-3.29-3.33-3.29c-6.49,0-11.35.41-14.6,1.37-5.38,1.51-8,4.31-8,8.57V62.73q0,2.67,3.07,2.67a20.85,20.85,0,0,0,3.84-.2A2.38,2.38,0,0,0,238.87,62.73Z" transform="translate(-23.69 -24.14)"/><path d="M214.08,26.17a46.9,46.9,0,0,0-13.34-1.71H162.08c-2.14,0-3.25.89-3.25,2.61v35.5c0,1.78,1.11,2.67,3.25,2.67a19.59,19.59,0,0,0,4-.21,2.3,2.3,0,0,0,2-2.47V50.64h32.25a45.46,45.46,0,0,0,14.2-1.92c5-1.85,7.61-4.8,7.61-8.84V33.51C222.12,30.29,219.47,27.82,214.08,26.17Zm-1.2,13.43c0,3.29-4,5-12.06,5H168.07V30.49h32.76c8,0,12.06,1.23,12.06,3.56v5.55Z" transform="translate(-23.69 -24.14)"/><path d="M322.13,65.65a1.18,1.18,0,0,0-.29-0.17,1.27,1.27,0,0,0,.76-0.33,0.89,0.89,0,0,0,.24-0.64,1,1,0,0,0-.14-0.53,0.82,0.82,0,0,0-.4-0.34,2,2,0,0,0-.72-0.1H320v3.54h0.48V65.51h0.81a0.73,0.73,0,0,1,.21.09,1.11,1.11,0,0,1,.24.24c0.08,0.11.2,0.27,0.34,0.48l0.47,0.74h0.6l-0.62-1A2.75,2.75,0,0,0,322.13,65.65Zm-0.64-.54h-1V63.93h1.13a0.86,0.86,0,0,1,.58.16,0.51,0.51,0,0,1,.18.41,0.57,0.57,0,0,1-.09.32A0.53,0.53,0,0,1,322,65,1.58,1.58,0,0,1,321.49,65.11Z" transform="translate(-23.69 -24.14)"/><path d="M321.28,61.78A3.75,3.75,0,1,0,325,65.53,3.75,3.75,0,0,0,321.28,61.78Zm0,6.94a3.2,3.2,0,1,1,3.2-3.19A3.19,3.19,0,0,1,321.28,68.72Z" transform="translate(-23.69 -24.14)"/><path d="M297.11,33.33H281.53c-13,0-19.46,3.36-19.46,10.21v5.82h0v5.82c0,6.85,6.49,10.21,19.46,10.21h15.58c13,0,19.46-3.36,19.46-10.21V49.36h0V43.54C316.57,36.69,310.08,33.33,297.11,33.33Zm10.69,16v6.29c0,2.53-3.7,3.78-11,3.78H281.79c-7.26,0-11-1.24-11-3.78V49.36h0V43.07c0-2.53,3.7-3.78,11-3.78h15.07c7.26,0,11,1.24,11,3.78v6.29h0Z" transform="translate(-23.69 -24.14)"/><path d="M130.23,33.33H114.65c-13,0-19.46,3.36-19.46,10.21v5.82h0v5.82c0,6.85,6.49,10.21,19.46,10.21h15.58c13,0,19.46-3.36,19.46-10.21V49.36h0V43.54C149.68,36.69,143.2,33.33,130.23,33.33Zm10.69,16v6.29c0,2.53-3.7,3.78-11,3.78H114.9c-7.26,0-11-1.24-11-3.78V49.36h0V43.07c0-2.53,3.7-3.78,11-3.78H130c7.26,0,11,1.24,11,3.78v6.29h0Z" transform="translate(-23.69 -24.14)"/><rect class="cls-3" x="127.33" y="51.27" width="35.19" height="26.91"/><rect class="cls-3" x="170.26" y="51.27" width="35.19" height="26.91"/><rect class="cls-4" x="256.24" y="51.4" width="34.94" height="26.66"/><path class="cls-5" d="M314.75,75.67v26.41H280.06V75.67h34.69m0.25-.25H279.81v26.91H315V75.42h0Z" transform="translate(-23.69 -24.14)"/><rect class="cls-6" x="213.19" y="51.27" width="35.18" height="26.91"/><path d="M38.54,89.81c1.33-.25,2-1.37,2.1-3.38-0.14-2.39-1.46-3.65-4-3.81H28.85V97.37h8.53c2.33,0,3.53-1.17,3.53-3.87C40.91,91.6,40.23,90.36,38.54,89.81Zm-6.85-4.68h4.47a1.9,1.9,0,0,1,1.52,2,1.54,1.54,0,0,1-1.76,1.77H31.69V85.12ZM36.22,95H31.69v-4h4.79a2,2,0,0,1,1.63,2.06A1.66,1.66,0,0,1,36.22,95Z" transform="translate(-23.69 -24.14)"/><path d="M47.87,87H45.29a3.49,3.49,0,0,0-3.5,3.45v3.51a3.48,3.48,0,0,0,3.5,3.44h2.59a3.48,3.48,0,0,0,3.5-3.44V93.86H48.85c0,1.18-.42,1.59-1.31,1.59l-1.56,0c-1.36,0-1.76-1-1.76-3.1h7.15v-2A3.48,3.48,0,0,0,47.87,87Zm0.51,4.08H44.21c0-1.54.75-2.33,2.47-2.32,1.56,0,2.13.72,2.13,2.31H48.38Z" transform="translate(-23.69 -24.14)"/><path d="M64.89,87.86l-0.06-.05-0.29-.22-0.28-.16-0.14-.07-0.27-.11-0.18-.06-0.27-.07-0.2,0L62.72,87l-3.18,0a3.4,3.4,0,0,0-2.17.81,2.25,2.25,0,0,0-.23.27l0,0a2.94,2.94,0,0,0-.46,2H59.4c0-.94.64-1.42,2-1.41,1.12,0,2,.36,2,1.3v2.28a3.81,3.81,0,0,0-2.12-1.07,6.29,6.29,0,0,0-2.08-.06c-2,.4-3,1.55-2.94,3.46s1.43,2.87,4,3a3.52,3.52,0,0,0,3.09-1.23v1.08h2.58V90.17a4.56,4.56,0,0,0-.16-1A3.25,3.25,0,0,0,64.89,87.86ZM63.3,94.55v0a1.41,1.41,0,0,1-.53,1,2.4,2.4,0,0,1-.74.32,6.76,6.76,0,0,1-1.21.16,2,2,0,0,1-1.93-1s0-.06,0-0.1a1.38,1.38,0,0,1,.25-1.31,2.31,2.31,0,0,1,1.36-.67,3,3,0,0,1,2.51.57,1.22,1.22,0,0,1,.33.89S63.3,94.5,63.3,94.55Z" transform="translate(-23.69 -24.14)"/><polygon points="112.11 73.16 115.92 73.16 116.97 69.02 113.16 69.02 112.11 73.16"/><path d="M118.31,85.58c0.26-4.42-5-4.1-5.12-4.1h-7.32l-3.51,15.88h4l1.26-5.84h2.45s2.29,4.3,2.82,5.81h4.76c-1.89-3-2.38-4.3-3.81-6.68C116.63,89.62,118.13,88.8,118.31,85.58Zm-7.06,3.08h-2.8l1-4.23h2.92C115.09,84.46,113.85,88.65,111.25,88.65Z" transform="translate(-23.69 -24.14)"/><polygon points="61.26 57.34 59.97 63.2 54.02 63.19 55.35 57.34 51.17 57.34 47.6 73.18 51.73 73.18 53.31 66.25 59.24 66.25 57.67 73.18 61.79 73.18 65.42 57.34 61.26 57.34"/><polygon points="71.94 60.28 79.19 60.29 79.86 57.36 68.45 57.34 64.89 73.24 76.23 73.24 76.94 70.15 69.66 70.12 70.46 66.23 77.51 66.23 78.16 63.15 71.25 63.17 71.94 60.28"/><path d="M127.72,81.26a9.45,9.45,0,0,0-3.3,1,10.65,10.65,0,0,0-2.77,2.22,11.83,11.83,0,0,0-2.48,4.79,9.11,9.11,0,0,0,0,4,5.67,5.67,0,0,0,1.79,3,8.68,8.68,0,0,0,.84.59,7.53,7.53,0,0,0,3.92.87c0.4,0,.79,0,1.17,0a10.43,10.43,0,0,0,3.16-.8,8.91,8.91,0,0,0,.8-0.41l0.05,0a9.59,9.59,0,0,0,3.2-3.24,13,13,0,0,0,1.41-3.54,0.63,0.63,0,0,0,0-.08C136.93,80.83,129.14,81.13,127.72,81.26Zm3.7,8.11a10.76,10.76,0,0,1-1.21,3,4.73,4.73,0,0,1-3.48,2.31,3,3,0,0,1-3.22-1.78l0-.1,0-.07a6.41,6.41,0,0,1-.15-3.24h0c0-.12,0-0.24.07-0.35a8.13,8.13,0,0,1,2.27-3.77,4.43,4.43,0,0,1,1.24-.78h0l0.14-.05a6.34,6.34,0,0,1,.69-0.18,3.44,3.44,0,0,1,2.19.36A3.32,3.32,0,0,1,131.51,87,5.52,5.52,0,0,1,131.42,89.36Z" transform="translate(-23.69 -24.14)"/><text class="cls-7" transform="translate(335.55 75.08)"><tspan class="cls-8">PL</tspan><tspan x="36.95" y="0">A</tspan><tspan class="cls-8" x="56.82" y="0">YER</tspan></text></svg>