<svg xmlns="http://www.w3.org/2000/svg" width="450.063" height="297.968" viewBox="0 0 450.063 297.968">
  <defs>
    <style>
      .cls-1 {
        fill-rule: evenodd;
      }
    </style>
  </defs>
  <path class="cls-1" d="M123.319,154.1q0,8.238-10.265,12.252-7.963,3.127-19.435,3.139H62.261q-12.337,0-20.735-2.831Q29.96,162.8,29.948,154.305V124.017q0-8.163,11.813-12.068a68.671,68.671,0,0,1,20.608-2.934H74.817q5.034,0,5.035,4.476,0,4.5-5.035,4.506h-3.8a1.721,1.721,0,0,1-.616-0.05c-0.956-.031-1.809-0.048-2.55-0.065s-1.361-.034-1.8-0.034q-22.276,0-22.289,6.147v30.26q0,6.155,18.676,6.153H93.639a36.938,36.938,0,0,0,9.517-1.338c4.228-1.133,6.351-2.645,6.351-4.576v-6.435H90.1a4.851,4.851,0,0,1,0-9.694h23.33c1.181-.119,2.869-0.106,5.041-0.106q4.844,0,4.843,3.881V154.1M376.944,126.51c0,2.646-2.041,3.97-5.864,3.97a21.314,21.314,0,0,1-2.294-.1h-2.424c-10.071,0-15.041,1.937-15.041,6.009v28.919a3.537,3.537,0,0,1-2.8,3.667,30.866,30.866,0,0,1-5.738.3q-4.591,0-4.589-3.971V136.386c0-6.313,3.952-10.489,11.981-12.726,4.846-1.43,12.11-2.038,21.8-2.038q4.968,0,4.97,4.888m77.137,27.9V136.079c0-3.765-5.35-5.7-16.183-5.7H416.485a43.356,43.356,0,0,0-10.714,1.222c-4.458,1.223-6.623,2.954-6.623,5.293v17.516c0,2.24,2.293,3.971,6.752,4.99a47.883,47.883,0,0,0,10.705,1.02H437.9a43.249,43.249,0,0,0,9.811-1.122c4.209-1.118,6.372-2.75,6.372-4.888m13.261,0c0,5.5-3.315,9.47-10.071,11.918-4.716,1.935-11.094,2.95-18.992,2.95H416.485a62.191,62.191,0,0,1-19.633-2.95c-7.267-2.551-10.835-6.52-10.835-11.918V136.892c0-5.293,3.568-9.364,10.707-12.113,5.354-2.141,11.853-3.157,19.63-3.157h21.925c19.371,0,29.063,4.991,29.063,15.172v17.614Zm5.87,14.432h1.514a2.23,2.23,0,0,0,.753-0.1,0.8,0.8,0,0,0,.413-0.313,0.839,0.839,0,0,0,.138-0.475,0.765,0.765,0,0,0-.271-0.612,1.271,1.271,0,0,0-.866-0.245h-1.681v1.744m-0.706,2.947v-5.268h2.361a3.084,3.084,0,0,1,1.077.139,1.209,1.209,0,0,1,.6.5,1.464,1.464,0,0,1,.215.794,1.306,1.306,0,0,1-.365.946,1.863,1.863,0,0,1-1.132.489,1.635,1.635,0,0,1,.424.262,3.653,3.653,0,0,1,.588.7l0.924,1.434h-0.884l-0.7-1.1c-0.208-.311-0.38-0.555-0.507-0.719a1.694,1.694,0,0,0-.36-0.36,1.08,1.08,0,0,0-.319-0.137,2.718,2.718,0,0,0-.394-0.021h-0.815v2.339h-0.706Zm1.905-7.069a4.748,4.748,0,1,1-4.772,4.751,4.765,4.765,0,0,1,4.772-4.751m0-.822a5.574,5.574,0,1,1-5.6,5.573,5.587,5.587,0,0,1,5.6-5.573M31.543,264.348h93.191v-70.9H31.543v70.9Zm112.406,0h93.2v-70.9H143.949v70.9Zm113.15-.016h93.187v-70.9H257.1v70.9Zm0,0h93.187v-70.9H257.1v70.9Zm93.187,0H257.1V193.44h93.187v70.892Zm-93.187,0h93.187v-70.9H257.1v70.9Zm115.527,0.016h93.2v-70.9h-93.2v70.9ZM187.068,395.407L143,315.966H129.2L179.536,406.4H194.6l50.339-90.435H231.132Zm165.81-28.656c2.956-2.287,9.075-5.066,9.075-17.806v-7.371c0-16.987-4.144-25.608-30.38-25.608H258.885V406.4h12.3V370.678H316.55l29.637,35.477H361.44L331.805,370.68c2.043,0,9.141-.056,13.144-0.979C349.653,368.614,351.391,367.9,352.878,366.751Zm-81.69-40.79h55.989c18.08,0,22.473,3.248,22.473,13.364v8.245c0,9.492-5.773,13.116-19.458,13.116h-59V325.961ZM-60714.7,503.8m118940.6,0M-60687,40,312.513,130.951V122.7c0-3.462-6-5.294-18.012-5.294H245.574v20.979H294.5c12.01,0,18.012-2.548,18.012-7.435m13.8,0.407c0,6.01-3.833,10.388-11.37,13.142-5.876,1.932-12.9,2.849-21.205,2.849h-48.16v17.726a3.42,3.42,0,0,1-2.934,3.661,29.483,29.483,0,0,1-6.006.309c-3.192,0-4.855-1.325-4.855-3.97V112.313c0-2.548,1.663-3.873,4.855-3.873h57.737a70.293,70.293,0,0,1,19.928,2.55c8.051,2.442,12.01,6.107,12.01,10.9v9.472ZM204.8,154.408V136.079c0-3.765-5.354-5.7-16.187-5.7H167.194a43.334,43.334,0,0,0-10.71,1.222c-4.462,1.223-6.627,2.954-6.627,5.293v17.516c0,2.24,2.293,3.971,6.755,4.99a47.9,47.9,0,0,0,10.71,1.02h21.286a43.3,43.3,0,0,0,9.815-1.122c4.2-1.118,6.372-2.75,6.372-4.888m13.257,0c0,5.5-3.314,9.47-10.072,11.918-4.715,1.935-11.089,2.95-18.99,2.95h-21.8a62.226,62.226,0,0,1-19.635-2.95c-7.264-2.551-10.832-6.52-10.832-11.918V136.892c0-5.293,3.568-9.364,10.708-12.113,5.353-2.141,11.851-3.157,19.631-3.157H188.99c19.376,0,29.062,4.991,29.062,15.172v17.614Zm-13.257,0V136.079c0-3.765-5.354-5.7-16.187-5.7H167.194a43.334,43.334,0,0,0-10.71,1.222c-4.462,1.223-6.627,2.954-6.627,5.293v17.516c0,2.24,2.293,3.971,6.755,4.99a47.9,47.9,0,0,0,10.71,1.02h21.286a43.3,43.3,0,0,0,9.815-1.122c4.2-1.118,6.372-2.75,6.372-4.888m13.257,0c0,5.5-3.314,9.47-10.072,11.918-4.715,1.935-11.089,2.95-18.99,2.95h-21.8a62.226,62.226,0,0,1-19.635-2.95c-7.264-2.551-10.832-6.52-10.832-11.918V136.892c0-5.293,3.568-9.364,10.708-12.113,5.353-2.141,11.851-3.157,19.631-3.157H188.99c19.376,0,29.062,4.991,29.062,15.172v17.614Zm-13.257,0V136.079c0-3.765-5.354-5.7-16.187-5.7H167.194a43.334,43.334,0,0,0-10.71,1.222c-4.462,1.223-6.627,2.954-6.627,5.293v17.516c0,2.24,2.293,3.971,6.755,4.99a47.9,47.9,0,0,0,10.71,1.02h21.286a43.3,43.3,0,0,0,9.815-1.122c4.2-1.118,6.372-2.75,6.372-4.888m13.257,0c0,5.5-3.314,9.47-10.072,11.918-4.715,1.935-11.089,2.95-18.99,2.95h-21.8a62.226,62.226,0,0,1-19.635-2.95c-7.264-2.551-10.832-6.52-10.832-11.918V136.892c0-5.293,3.568-9.364,10.708-12.113,5.353-2.141,11.851-3.157,19.631-3.157H188.99c19.376,0,29.062,4.991,29.062,15.172v17.614Z" transform="translate(-29.938 -108.438)"/>
</svg>
