<svg xmlns="http://www.w3.org/2000/svg" viewBox="0 0 975.92 660.34"><defs><style>.cls-1{fill:#00aeef;}.cls-2,.cls-4{fill:#fff;}.cls-3{fill:#005dac;}.cls-4{fill-rule:evenodd;}</style></defs><title>Fichier 2</title><g id="Calque_2" data-name="Calque 2"><g id="Layer_1" data-name="Layer 1"><g id="Boxes"><rect class="cls-1" x="228.51" y="259.65" width="111.92" height="85.59"/><rect class="cls-1" x="365.06" y="259.65" width="111.93" height="85.59"/><rect class="cls-2" x="638.14" y="259.65" width="111.93" height="85.59"/><rect class="cls-3" x="501.61" y="259.63" width="111.91" height="85.59"/></g><g id="GoPro"><path class="cls-4" d="M757.08,241.46h1.81a2.65,2.65,0,0,0,.9-.12,1,1,0,0,0,.49-.37,1,1,0,0,0,.16-.57.92.92,0,0,0-.32-.73,1.51,1.51,0,0,0-1-.29h-2v2.09m-.84,3.53v-6.31h2.82a3.6,3.6,0,0,1,1.28.17,1.43,1.43,0,0,1,.71.6,1.75,1.75,0,0,1,.26.95,1.58,1.58,0,0,1-.44,1.13,2.23,2.23,0,0,1-1.35.59,1.92,1.92,0,0,1,.51.31,4.42,4.42,0,0,1,.7.84l1.1,1.72h-1.06l-.84-1.32c-.25-.37-.45-.67-.61-.86a1.93,1.93,0,0,0-.43-.43,1.24,1.24,0,0,0-.38-.16,3.24,3.24,0,0,0-.47,0h-1V245Zm2.27-8.47a5.69,5.69,0,1,1-5.69,5.69,5.7,5.7,0,0,1,5.69-5.69m0-1a6.68,6.68,0,1,1-6.68,6.68,6.68,6.68,0,0,1,6.68-6.68"/><path class="cls-2" d="M339.86,223.53V209.19c0-3.11-1.93-4.65-5.78-4.65-2.59,0-4.6,0-6,.13H300.25a5.82,5.82,0,0,0,0,11.62h23.14V224c0,2.31-2.53,4.13-7.58,5.48a43.76,43.76,0,0,1-11.35,1.61H267.25q-22.27,0-22.27-7.38V187.44q0-7.37,26.58-7.37l2.15,0,3,.08a1.9,1.9,0,0,0,.73.06H282c4,0,6-1.81,6-5.4s-2-5.37-6-5.37H267.17A81.43,81.43,0,0,0,242.6,173q-14.1,4.69-14.09,14.46v36.3q0,10.18,13.81,14.81Q252.35,242,267,242h37.39q13.68,0,23.18-3.76Q339.86,233.4,339.86,223.53Z"/><path class="cls-2" d="M611.75,237V202.3c0-4.88,5.93-7.21,17.94-7.21h2.89a25.91,25.91,0,0,0,2.74.12c4.55,0,7-1.58,7-4.76q0-5.86-5.93-5.85c-11.55,0-20.22.72-26,2.44-9.58,2.68-14.29,7.69-14.29,15.26V237q0,4.75,5.48,4.76a36.78,36.78,0,0,0,6.84-.36A4.23,4.23,0,0,0,611.75,237Z"/><path class="cls-2" d="M475,241.44c4.12,0,6.55-.12,7.16-.37a4.1,4.1,0,0,0,3.51-4.39V215.43h57.43c9.9,0,18.28-1.1,25.28-3.41,9-3.3,13.56-8.55,13.56-15.75V184.92c0-5.74-4.72-10.14-14.32-13.07a83.48,83.48,0,0,0-23.76-3.05H475c-3.8,0-5.78,1.59-5.78,4.64v63.24C469.2,239.85,471.18,241.44,475,241.44Zm10.67-61.89H544c14.32,0,21.48,2.2,21.48,6.35v9.89c0,5.86-7.16,8.91-21.48,8.91H485.65Z"/><path class="cls-2" d="M418.26,184.6H390.51c-23.11,0-34.66,6-34.66,18.18v10.37h0v10.37c0,12.21,11.55,18.18,34.66,18.18h27.75c23.1,0,34.65-6,34.65-18.18V213.15h0V202.78C452.91,190.58,441.36,184.6,418.26,184.6Zm19,28.56v11.21c0,4.51-6.58,6.73-19.51,6.73H391c-12.92,0-19.51-2.21-19.51-6.73V213.15h0V201.95c0-4.51,6.59-6.73,19.51-6.73H417.8c12.92,0,19.51,2.21,19.51,6.73v11.21Z"/><path class="cls-2" d="M715.49,184.6H687.74c-23.11,0-34.66,6-34.66,18.18v10.37h0v10.37c0,12.21,11.55,18.18,34.66,18.18h27.75c23.1,0,34.65-6,34.65-18.18V213.16h0V202.78C750.15,190.58,738.6,184.6,715.49,184.6Zm19,28.56v11.21c0,4.51-6.58,6.73-19.5,6.73H688.2c-12.92,0-19.51-2.21-19.51-6.73V213.16h0V201.95c0-4.51,6.59-6.73,19.51-6.73H715c12.92,0,19.5,2.21,19.5,6.73v11.21Z"/></g><path class="cls-2" d="M229.91,466.58q6-16.64,36.43-99.64h8.88l36.5,99.64H301.37q-1.4-3.92-8.25-23.63H248.44q-.56,1.47-8.32,23.63Zm21.26-32h39.09l-11.19-32.24-8.18-23h-.42q-3.36,10.63-8.74,25.45-1.89,5.25-5.56,15.77T251.17,434.63Z"/><path class="cls-2" d="M311.3,366.94h10.35l6,26.16,5.85,25.34,7,30.51a.36.36,0,0,1,.16.07.35.35,0,0,0,.16.07l8.27-30.42q10.5-39,14.07-51.73h7.61q1.59,6.09,4.51,16.64l5.35,19.31,4.55,16.44,8.28,29.92h.29q1.08-4.69,3.31-14.82t3.31-14.89l12.37-52.61h10.35l-24.81,99.64H389.9l-22.77-82.52,0,0q-7.31,27.21-8.15,30.15l-14.14,52.33h-8.88Z"/><path class="cls-2" d="M421.5,466.58q6-16.64,36.43-99.64h8.88l36.5,99.64H493q-1.4-3.92-8.25-23.63H440q-.56,1.47-8.32,23.63Zm21.26-32h39.09l-11.19-32.24-8.18-23h-.42q-3.36,10.63-8.74,25.45-1.89,5.25-5.56,15.77T442.76,434.63Z"/><path class="cls-2" d="M516,466.58V366.94h39.65q12.45,0,20.56,7.3t8.11,19.1a26.47,26.47,0,0,1-6.22,17.75,29.9,29.9,0,0,1-16.71,9.7l21.19,45.8h-11l-20.14-45H525.76v45ZM525.76,413H553.1q9.3,0,15.24-5.18t5.94-14.5q0-9-5.77-13.52t-14.86-4.55h-27.9Z"/><path class="cls-2" d="M600.65,466.58V366.94h32.51q24.19,0,32.93,18.32a36.12,36.12,0,0,1,3,11.75q.7,6.85.7,18,0,12.31-.63,19.51a43.11,43.11,0,0,1-2.8,12.52,32.66,32.66,0,0,1-6,9.23,27.66,27.66,0,0,1-8.25,6.08,39.4,39.4,0,0,1-9.86,3.22,62,62,0,0,1-11.43,1Zm9.72-8.88h21.89q27.83,0,27.83-30.77V407.29a49.89,49.89,0,0,0-2-14.93,22.4,22.4,0,0,0-5.73-9.75,22.86,22.86,0,0,0-8.71-5.17,36.91,36.91,0,0,0-11.43-1.61H610.37Z"/><path class="cls-2" d="M678.83,455.25l6.15-7.83q12.88,10.84,30.8,10.84,11,0,17.8-4.82t6.77-14.33a16.73,16.73,0,0,0-.77-5.17,15.57,15.57,0,0,0-2-4.09,13.14,13.14,0,0,0-3.18-3.15,27.55,27.55,0,0,0-3.92-2.38,31.53,31.53,0,0,0-4.57-1.76q-2.65-.82-4.85-1.29l-5.41-1.16-9.52-2.06a49.19,49.19,0,0,1-8.06-2.69,22.42,22.42,0,0,1-7.34-4.51,22.66,22.66,0,0,1-4.48-7,25.36,25.36,0,0,1-2-10.31q0-12.8,9.07-20.24t23.07-7.45q18.16,0,30.31,8.74l-5.38,8.18a46.72,46.72,0,0,0-25.07-7.48q-10.05,0-16.16,4.76t-6.11,13.77a15.68,15.68,0,0,0,.45,3.83,18.35,18.35,0,0,0,1.1,3.19,8.27,8.27,0,0,0,2,2.66q1.37,1.24,2.5,2.09a15.49,15.49,0,0,0,3.26,1.74,25,25,0,0,0,3.71,1.27l4.42,1.07,4.56,1.11L721,412l6.06,1.47q2.24.55,5.64,1.68a34,34,0,0,1,5.68,2.4,30.93,30.93,0,0,1,4.75,3.33,17,17,0,0,1,3.9,4.53,25.34,25.34,0,0,1,2.39,6,29.51,29.51,0,0,1,1,7.79q0,12.94-9.57,20.56t-25.49,7.62a63.1,63.1,0,0,1-19.46-3.11A53,53,0,0,1,678.83,455.25Z"/><path class="cls-4" d="M693.3,648C795,634,869.12,554,902.9,444.79c13.86-45.19,15.92-95.3,11-147.8-9-93.6-52-174.91-114.72-234.2-.24-.27-.38-.37-.44-.11a4.08,4.08,0,0,1-1,.74c-.34.2-.46,0-.21.43,66.58,60.95,109.36,157.8,114,255.73C918.74,459.38,850.81,583.28,749,625.88a224.22,224.22,0,0,1-53.6,15.54A11.07,11.07,0,0,0,693.3,648"/><path class="cls-4" d="M946.93,414.46c-8.34,9.89-21.52,19.57-35.78,15.81-.71,1.13-4.51,6.59-5,7.43-.63,1-1.83,2-2.77,1.18a1.84,1.84,0,0,1-.45-2.46c2.06-2.58,4.14-5.2,6.5-8,4.17-22.23,10.29-37,23.09-52,14.77-17.16,30-24.85,39.32-28.06,1.39-.4,2.63-.74,4-1.14.92,8.57-3,21.05-6.12,28.25-6,14.52-12.55,27.3-22.74,38.94"/><path class="cls-4" d="M824.49,101.83c1.16.47,8.09,2.29,8.94.87.29-.4-.1-1.74-.71-1.85-2.52-.27-5.36-.47-7.81-1-4.43-14.07-16.91-20.18-28.3-22.54-13.7-2.75-28.79,1.45-45,3.7a16.1,16.1,0,0,1-2.51.27,7.61,7.61,0,0,0,1,1.44c6.8,9.25,17.33,17.7,27.67,21.9a56.49,56.49,0,0,0,23.4,4.27,41.72,41.72,0,0,0,23.25-7.09"/><path class="cls-4" d="M797.75,63.43c-.54.2-.57,0-1.56-.58-2-1.78-3.57-2.89-5.52-4.68q-16.49.12-31.24-9.74A63.24,63.24,0,0,1,747,37.7c-8.75-9.41-15.81-23.17-19-35.78A10.81,10.81,0,0,1,727.65,0c.81.34,1.55.71,2.36,1.08,17.75,7.09,34.87,10.42,49.12,24.21,9.64,9.18,14.71,20.35,12.68,31.18a81.62,81.62,0,0,1,6.59,5.42c1,.74-.1,1.51-.66,1.55"/><path class="cls-4" d="M862.22,160.78c1.18.64,7.9,4.1,8.88,3,.42-.43.24-1.91-.38-2.15-2.48-.95-5.43-1.55-7.81-2.63-.92-9.92-6.44-19.23-17.54-25.63-16.88-8.95-36.12-7.47-54.17-9.08-.91-.07-1.72-.13-2.52-.2.26.5.54,1,.76,1.55,6.06,10.4,15.78,21.63,25.79,28.05a65,65,0,0,0,23.09,9.49,42,42,0,0,0,23.9-2.36"/><path class="cls-4" d="M950.76,314.38c-5.51,12.3-15.33,25.86-29.73,26.76-.45,1.25-3.08,7.2-3.46,8.14-.29,1.28-1.21,2.69-2.41,2.08a2,2,0,0,1-1-2.22c1.41-3.32,3.1-5.89,4.71-9.25-1.32-22.63,0-39.18,8.66-57.85,9.82-21.49,23.42-33.8,31.72-39.85a28.36,28.36,0,0,1,3.39-2.41c1.88,8.74,1.32,22.36.13,30.23-2.17,16.07-5.64,30-12,44.36"/><path class="cls-4" d="M934.55,223.41c-2.39,13.15-8.29,26.43-21.45,32.14-.15,1.38-1.65,7.77-1.84,8.75,0,1.35-.45,2.89-1.78,2.72a1.75,1.75,0,0,1-1.36-1.81c.54-3.43,1.54-7.37,2.22-11.13-4.37-16-6.77-30.56-6-46.25a94.88,94.88,0,0,1,22.33-56.47c1-1.14,1.78-2.28,2.66-3.32,3.64,7.56,6,20.54,6.69,28.28,1.34,15.81,1.28,31.68-1.48,47.09"/><path class="cls-4" d="M901.39,140.41c.34,13.55-2.88,28.68-14.29,37.42.09,1.34.34,7.94.41,8.85.19,1.24.09,2.85-1.19,3.12-.47,0-1.28-.07-1.58-1.38-.25-3.42-.37-8.61-.54-12.31a107.72,107.72,0,0,1-15.11-54.81c-.38-23.68,5.51-38.71,10.17-48.22.62-1.28,1.25-2.56,1.88-3.8,5.12,6.22,10,18.06,12.14,25.43,4.48,14.76,7.71,30.13,8.1,45.7"/><path class="cls-4" d="M851.15,64.64c3,12.68,2.1,31.35-7.35,39,.34,1.65,1.16,7.33,1.26,8.54.34,1.34.65,2.69-.44,3.19-.45.17-.79.17-1.34-1-.6-3.53-.81-6.53-1.41-10.16-13.53-14.39-21.18-28.65-25.44-48.09-4.29-20.35-3.68-36.56-1.81-47.92a37.43,37.43,0,0,1,1-4.18c11.89,9.49,20.27,22,27.41,36.29a88.14,88.14,0,0,1,8.16,24.35"/><path class="cls-4" d="M892.52,238.51c1.09,1,7.13,6.75,8.6,6,.41-.34.68-2.25,0-2.62-2.32-1.85-5.2-3.17-7.5-4.95.74-11-1.75-22.07-11.73-32.56-15.37-14.87-35.72-19.87-54.22-27.61-.84-.37-1.69-.84-2.61-1.18.16.67.31,1.35.51,2,3.61,12.74,10.92,27.67,19.84,37.73a77.93,77.93,0,0,0,21.65,17.56,45.62,45.62,0,0,0,25.43,5.62"/><path class="cls-4" d="M905.29,327.72c.84,1.45,5.62,9.32,7.19,8.91.62,0,1.29-1.88.78-2.62-2-2.62-4.54-4.78-6.33-7.53,3.13-10.06,1.64-24.58-5.81-38.47-11.9-20.25-29.23-30.14-46.07-44.3-.75-.74-1.48-1.41-2.25-2.16a10.65,10.65,0,0,0-.07,2.19c.4,13.92,4,31.35,10.51,44.43a95.9,95.9,0,0,0,17.57,25.08,54.24,54.24,0,0,0,24.47,14.46"/><path class="cls-4" d="M896.92,415.2c.6,1.75,3.89,11.06,5.55,11.43a2.19,2.19,0,0,0,1.21-2.43c-1.37-3.09-2.89-6.65-4.17-9.88,5.65-5.35,7.6-20.39,3-36.06-7.59-23-24.5-40.31-38.1-59.38-.65-.91-1.25-1.82-1.91-2.7-.2.67-.29,1.39-.44,2.05-2.34,13.42-2.22,31.25,1.44,45.78a111.17,111.17,0,0,0,12.33,29.5,63,63,0,0,0,21.07,21.69"/><path class="cls-4" d="M917.31,517.57c-10.28,6.73-28.78,11.83-41.49,3.53-1,.77-6.31,3.9-6.91,4.48-.88.9-2.23,1.54-3,.24a1.78,1.78,0,0,1,.16-2.46c2.63-1.85,5.59-3,8.43-4.84,9.69-20.11,20.13-33.7,36.07-43.71,18.26-11.71,33.49-11.91,43.31-11.91,1.39,0,2.7.06,4.09.11-2.45,19.88-27,46.1-40.67,54.58"/><path class="cls-4" d="M866.65,502.07a79.22,79.22,0,0,0,1.66,10.39c.29,1,.39,2.49,1.73,2,.59-.13,1.09-1.28,1.06-1.85A89.57,89.57,0,0,1,869.66,502c6.34-4,11.28-17.18,12.26-33.29-1.1-24.41-12-46.52-20.82-69.48a29.39,29.39,0,0,0-1-3.16c-.34.53-.59,1.14-.94,1.65a114.38,114.38,0,0,0-10.69,44.19,112.59,112.59,0,0,0,4,32.31,75.31,75.31,0,0,0,14.18,27.89"/><path class="cls-4" d="M861.37,601c-11.83,2.36-27.94,1.79-38-10.92-2.53.37-6.64,1-9.28,1.21-.72.07-1.29-.44-1.58-1.41-.19-.64,0-1.48,1.2-2.08,3-.68,6-.6,9.19-1.18,13.35-15.61,26-24.42,44.09-27.71a86.57,86.57,0,0,1,48.27,5.51,27.59,27.59,0,0,1,3.83,1.68c-3.41,7.59-13.29,15.37-19.42,19.11-11.79,7.77-24,13.42-38.33,15.8"/><path class="cls-4" d="M819,567.95c-.2,1.41-.41,6.86-.41,10.52.08,1-.19,2.39,1.19,2.42a1.77,1.77,0,0,0,1.41-1.45c.24-3.42.09-7,.67-10.49,7-2.22,16.32-12.88,20.64-27.58,4.93-23.6-.45-47.89-3-72.74-.18-1.07-.13-2.22-.21-3.42-.44.47-1,.9-1.42,1.34a101.68,101.68,0,0,0-21.29,38.17,111.94,111.94,0,0,0-4.26,31.91A78.42,78.42,0,0,0,819,567.95"/><path class="cls-4" d="M752.43,616c-.6,1-1.44,5.55-2.35,9.07-.26.78-.78,2.06.41,2.56a1.45,1.45,0,0,0,1.67-.8c1.22-3,1.22-6,2.63-9,6.83,1.61,18.7-7,26.5-18.4,10.78-19.53,11.94-42.5,16.12-65.74.13-1.11.44-2.08.66-3.16-.53.13-1.1.43-1.68.6-10.35,5.24-22.09,14.44-29.65,25.72A90.9,90.9,0,0,0,754,584.49c-2.82,10.63-3,20.79-1.56,31.47"/><path class="cls-4" d="M789.81,659.36c-12.11-1.61-27.89-7.2-34.78-22.74-2.42-.71-6.72-1.21-9.33-1.94-.72-.13-1.12-.88-1.19-1.89,0-.54.38-1.39,1.61-1.58,3.05.44,6,1.38,9.41,1.75,17.63-10.45,31.89-15.16,50.38-12.48,21.32,3,36.76,13.73,45.1,20.52,1.22,1,2.36,1.88,3.46,3-5.15,6.33-16.66,10.53-23.45,12.3-13.39,3.77-26.57,5.22-41.22,3.1"/><path class="cls-4" d="M282.63,648C180.92,634,106.81,554,73,444.79,59.17,399.6,57.11,349.49,62,297c9-93.6,52-174.91,114.72-234.2.24-.27.38-.37.44-.11a4.08,4.08,0,0,0,1,.74c.34.2.46,0,.21.43C111.8,124.81,69,221.66,64.38,319.59c-7.19,139.79,60.74,263.69,162.53,306.29a224.22,224.22,0,0,0,53.6,15.54,11.07,11.07,0,0,1,2.12,6.59"/><path class="cls-4" d="M29,414.46c8.34,9.89,21.52,19.57,35.78,15.81.71,1.13,4.51,6.59,5,7.43.63,1,1.83,2,2.77,1.18a1.84,1.84,0,0,0,.45-2.46c-2.06-2.58-4.14-5.2-6.5-8-4.17-22.23-10.29-37-23.09-52-14.77-17.16-30-24.85-39.32-28.06-1.39-.4-2.63-.74-4-1.14-.92,8.57,3,21.05,6.12,28.25,6,14.52,12.55,27.3,22.74,38.94"/><path class="cls-4" d="M151.44,101.83c-1.16.47-8.09,2.29-8.94.87-.29-.4.1-1.74.71-1.85,2.52-.27,5.36-.47,7.81-1,4.43-14.07,16.91-20.18,28.3-22.54,13.7-2.75,28.79,1.45,45,3.7a16.1,16.1,0,0,0,2.51.27,7.61,7.61,0,0,1-1,1.44c-6.8,9.25-17.33,17.7-27.67,21.9a56.49,56.49,0,0,1-23.4,4.27,41.72,41.72,0,0,1-23.25-7.09"/><path class="cls-4" d="M178.17,63.43c.54.2.57,0,1.56-.58,2-1.78,3.57-2.89,5.52-4.68q16.49.12,31.24-9.74A63.24,63.24,0,0,0,228.89,37.7c8.75-9.41,15.81-23.17,19-35.78A10.81,10.81,0,0,0,248.27,0c-.81.34-1.55.71-2.36,1.08C228.16,8.17,211,11.5,196.78,25.28c-9.64,9.18-14.71,20.35-12.68,31.18a81.62,81.62,0,0,0-6.59,5.42c-1,.74.1,1.51.66,1.55"/><path class="cls-4" d="M113.71,160.78c-1.18.64-7.9,4.1-8.88,3-.42-.43-.24-1.91.38-2.15,2.48-.95,5.43-1.55,7.81-2.63.92-9.92,6.44-19.23,17.54-25.63,16.88-8.95,36.12-7.47,54.17-9.08.91-.07,1.72-.13,2.52-.2-.26.5-.54,1-.76,1.55-6.06,10.4-15.78,21.63-25.79,28.05a65,65,0,0,1-23.09,9.49,42,42,0,0,1-23.9-2.36"/><path class="cls-4" d="M25.17,314.38c5.51,12.3,15.33,25.86,29.73,26.76.45,1.25,3.08,7.2,3.46,8.14.29,1.28,1.21,2.69,2.41,2.08a2,2,0,0,0,1-2.22c-1.41-3.32-3.1-5.89-4.71-9.25,1.32-22.63,0-39.18-8.66-57.85C38.55,260.56,25,248.26,16.65,242.2a28.36,28.36,0,0,0-3.39-2.41c-1.88,8.74-1.32,22.36-.13,30.23,2.17,16.07,5.64,30,12,44.36"/><path class="cls-4" d="M41.37,223.41c2.39,13.15,8.29,26.43,21.45,32.14.15,1.38,1.65,7.77,1.84,8.75,0,1.35.45,2.89,1.78,2.72a1.75,1.75,0,0,0,1.36-1.81c-.54-3.43-1.54-7.37-2.22-11.13,4.37-16,6.77-30.56,6-46.25a94.88,94.88,0,0,0-22.33-56.47c-1-1.14-1.78-2.28-2.66-3.32-3.64,7.56-6,20.54-6.69,28.28-1.34,15.81-1.28,31.68,1.48,47.09"/><path class="cls-4" d="M74.54,140.41c-.34,13.55,2.88,28.68,14.29,37.42-.09,1.34-.34,7.94-.41,8.85-.19,1.24-.09,2.85,1.19,3.12.47,0,1.28-.07,1.58-1.38.25-3.42.37-8.61.54-12.31a107.72,107.72,0,0,0,15.11-54.81c.38-23.68-5.51-38.71-10.17-48.22-.62-1.28-1.25-2.56-1.88-3.8-5.12,6.22-10,18.06-12.14,25.43-4.48,14.76-7.71,30.13-8.1,45.7"/><path class="cls-4" d="M124.78,64.64c-3,12.68-2.1,31.35,7.35,39-.34,1.65-1.16,7.33-1.26,8.54-.34,1.34-.65,2.69.44,3.19.45.17.79.17,1.34-1,.6-3.53.81-6.53,1.41-10.16,13.53-14.39,21.18-28.65,25.44-48.09,4.29-20.35,3.68-36.56,1.81-47.92a37.43,37.43,0,0,0-1-4.18c-11.89,9.49-20.27,22-27.41,36.29a88.14,88.14,0,0,0-8.16,24.35"/><path class="cls-4" d="M83.41,238.51c-1.09,1-7.13,6.75-8.6,6-.41-.34-.68-2.25,0-2.62,2.32-1.85,5.2-3.17,7.5-4.95-.74-11,1.75-22.07,11.73-32.56,15.37-14.87,35.72-19.87,54.22-27.61.84-.37,1.69-.84,2.61-1.18-.16.67-.31,1.35-.51,2-3.61,12.74-10.92,27.67-19.84,37.73a77.93,77.93,0,0,1-21.65,17.56,45.62,45.62,0,0,1-25.43,5.62"/><path class="cls-4" d="M70.63,327.72c-.84,1.45-5.62,9.32-7.19,8.91-.62,0-1.29-1.88-.78-2.62,2-2.62,4.54-4.78,6.33-7.53C65.86,316.42,67.35,301.9,74.8,288c11.9-20.25,29.23-30.14,46.07-44.3.75-.74,1.48-1.41,2.25-2.16a10.65,10.65,0,0,1,.07,2.19c-.4,13.92-4,31.35-10.51,44.43a95.9,95.9,0,0,1-17.57,25.08,54.24,54.24,0,0,1-24.47,14.46"/><path class="cls-4" d="M79,415.2c-.6,1.75-3.89,11.06-5.55,11.43a2.19,2.19,0,0,1-1.21-2.43c1.37-3.09,2.89-6.65,4.17-9.88-5.65-5.35-7.6-20.39-3-36.06,7.59-23,24.5-40.31,38.1-59.38.65-.91,1.25-1.82,1.91-2.7.2.67.29,1.39.44,2.05,2.34,13.42,2.22,31.25-1.44,45.78a111.17,111.17,0,0,1-12.33,29.5A63,63,0,0,1,79,415.2"/><path class="cls-4" d="M58.61,517.57c10.28,6.73,28.78,11.83,41.49,3.53,1,.77,6.31,3.9,6.91,4.48.88.9,2.23,1.54,3,.24a1.78,1.78,0,0,0-.16-2.46c-2.63-1.85-5.59-3-8.43-4.84-9.69-20.11-20.13-33.7-36.07-43.71C47.09,463.09,31.86,462.88,22,462.88c-1.39,0-2.7.06-4.09.11,2.45,19.88,27,46.1,40.67,54.58"/><path class="cls-4" d="M109.27,502.07a79.22,79.22,0,0,1-1.66,10.39c-.29,1-.39,2.49-1.73,2-.59-.13-1.09-1.28-1.06-1.85A89.57,89.57,0,0,0,106.26,502C99.92,498,95,484.78,94,468.67c1.1-24.41,12-46.52,20.82-69.48a29.39,29.39,0,0,1,1-3.16c.34.53.59,1.14.94,1.65a114.38,114.38,0,0,1,10.69,44.19,112.59,112.59,0,0,1-4,32.31,75.31,75.31,0,0,1-14.18,27.89"/><path class="cls-4" d="M114.56,601c11.83,2.36,27.94,1.79,38-10.92,2.53.37,6.64,1,9.28,1.21.72.07,1.29-.44,1.58-1.41.19-.64,0-1.48-1.2-2.08-3-.68-6-.6-9.19-1.18-13.35-15.61-26-24.42-44.09-27.71a86.57,86.57,0,0,0-48.27,5.51,27.59,27.59,0,0,0-3.83,1.68c3.41,7.59,13.29,15.37,19.42,19.11,11.79,7.77,24,13.42,38.33,15.8"/><path class="cls-4" d="M157,567.95c.2,1.41.41,6.86.41,10.52-.08,1,.19,2.39-1.19,2.42a1.77,1.77,0,0,1-1.41-1.45c-.24-3.42-.09-7-.67-10.49-7-2.22-16.32-12.88-20.64-27.58-4.93-23.6.45-47.89,3-72.74.18-1.07.13-2.22.21-3.42.44.47,1,.9,1.42,1.34a101.68,101.68,0,0,1,21.29,38.17,111.94,111.94,0,0,1,4.26,31.91A78.42,78.42,0,0,1,157,567.95"/><path class="cls-4" d="M223.49,616c.6,1,1.44,5.55,2.35,9.07.26.78.78,2.06-.41,2.56a1.45,1.45,0,0,1-1.67-.8c-1.22-3-1.22-6-2.63-9-6.83,1.61-18.7-7-26.5-18.4-10.78-19.53-11.94-42.5-16.12-65.74-.13-1.11-.44-2.08-.66-3.16.53.13,1.1.43,1.68.6,10.35,5.24,22.09,14.44,29.65,25.72a90.9,90.9,0,0,1,12.76,27.62c2.82,10.63,3,20.79,1.56,31.47"/><path class="cls-4" d="M186.11,659.36c12.11-1.61,27.89-7.2,34.78-22.74,2.42-.71,6.72-1.21,9.33-1.94.72-.13,1.12-.88,1.19-1.89,0-.54-.38-1.39-1.61-1.58-3.05.44-6,1.38-9.41,1.75-17.63-10.45-31.89-15.16-50.38-12.48-21.32,3-36.76,13.73-45.1,20.52-1.22,1-2.36,1.88-3.46,3,5.15,6.33,16.66,10.53,23.45,12.3,13.39,3.77,26.57,5.22,41.22,3.1"/></g></g></svg>