<svg xmlns="http://www.w3.org/2000/svg" viewBox="0 0 745.92 660.34"><defs><style>.cls-1{fill:#231f20;fill-rule:evenodd;}</style></defs><title>GoPro_Award_noText</title><g id="Layer_2" data-name="Layer 2"><g id="Layer_1-2" data-name="Layer 1"><path class="cls-1" d="M463.3,648C565,634,639.12,554,672.9,444.79c13.86-45.19,15.92-95.3,11-147.8-9-93.6-52-174.91-114.72-234.2-.24-.27-.38-.37-.44-.11a4.08,4.08,0,0,1-1,.74c-.34.2-.46,0-.21.43,66.58,60.95,109.36,157.8,114,255.73C688.74,459.38,620.81,583.28,519,625.88a224.22,224.22,0,0,1-53.6,15.54A11.07,11.07,0,0,0,463.3,648"/><path class="cls-1" d="M716.93,414.46c-8.34,9.89-21.52,19.57-35.78,15.81-.71,1.13-4.51,6.59-5,7.43-.63,1-1.83,2-2.77,1.18a1.84,1.84,0,0,1-.45-2.46c2.06-2.58,4.14-5.2,6.5-8,4.17-22.23,10.29-37,23.09-52,14.77-17.16,30-24.85,39.32-28.06,1.39-.4,2.63-.74,4-1.14.92,8.57-3,21.05-6.12,28.25-6,14.52-12.55,27.3-22.74,38.94"/><path class="cls-1" d="M594.49,101.83c1.16.47,8.09,2.29,8.94.87.29-.4-.1-1.74-.71-1.85-2.52-.27-5.36-.47-7.81-1-4.43-14.07-16.91-20.18-28.3-22.54-13.7-2.75-28.79,1.45-45,3.7a16.1,16.1,0,0,1-2.51.27,7.61,7.61,0,0,0,1,1.44c6.8,9.25,17.33,17.7,27.67,21.9a56.49,56.49,0,0,0,23.4,4.27,41.72,41.72,0,0,0,23.25-7.09"/><path class="cls-1" d="M567.75,63.43c-.54.2-.57,0-1.56-.58-2-1.78-3.57-2.89-5.52-4.68q-16.49.12-31.24-9.74A63.24,63.24,0,0,1,517,37.7c-8.75-9.41-15.81-23.17-19-35.78A10.81,10.81,0,0,1,497.65,0c.81.34,1.55.71,2.36,1.08,17.75,7.09,34.87,10.42,49.12,24.21,9.64,9.18,14.71,20.35,12.68,31.18a81.62,81.62,0,0,1,6.59,5.42c1,.74-.1,1.51-.66,1.55"/><path class="cls-1" d="M632.22,160.78c1.18.64,7.9,4.1,8.88,3,.42-.43.24-1.91-.38-2.15-2.48-.95-5.43-1.55-7.81-2.63-.92-9.92-6.44-19.23-17.54-25.63-16.88-8.95-36.12-7.47-54.17-9.08-.91-.07-1.72-.13-2.52-.2.26.5.54,1,.76,1.55,6.06,10.4,15.78,21.63,25.79,28.05a65,65,0,0,0,23.09,9.49,42,42,0,0,0,23.9-2.36"/><path class="cls-1" d="M720.76,314.38c-5.51,12.3-15.33,25.86-29.73,26.76-.45,1.25-3.08,7.2-3.46,8.14-.29,1.28-1.21,2.69-2.41,2.08a2,2,0,0,1-1-2.22c1.41-3.32,3.1-5.89,4.71-9.25-1.32-22.63,0-39.18,8.66-57.85,9.82-21.49,23.42-33.8,31.72-39.85a28.36,28.36,0,0,1,3.39-2.41c1.88,8.74,1.32,22.36.13,30.23-2.17,16.07-5.64,30-12,44.36"/><path class="cls-1" d="M704.55,223.41c-2.39,13.15-8.29,26.43-21.45,32.14-.15,1.38-1.65,7.77-1.84,8.75,0,1.35-.45,2.89-1.78,2.72a1.75,1.75,0,0,1-1.36-1.81c.54-3.43,1.54-7.37,2.22-11.13-4.37-16-6.77-30.56-6-46.25a94.88,94.88,0,0,1,22.33-56.47c1-1.14,1.78-2.28,2.66-3.32,3.64,7.56,6,20.54,6.69,28.28,1.34,15.81,1.28,31.68-1.48,47.09"/><path class="cls-1" d="M671.39,140.41c.34,13.55-2.88,28.68-14.29,37.42.09,1.34.34,7.94.41,8.85.19,1.24.09,2.85-1.19,3.12-.47,0-1.28-.07-1.58-1.38-.25-3.42-.37-8.61-.54-12.31a107.72,107.72,0,0,1-15.11-54.81c-.38-23.68,5.51-38.71,10.17-48.22.62-1.28,1.25-2.56,1.88-3.8,5.12,6.22,10,18.06,12.14,25.43,4.48,14.76,7.71,30.13,8.1,45.7"/><path class="cls-1" d="M621.15,64.64c3,12.68,2.1,31.35-7.35,39,.34,1.65,1.16,7.33,1.26,8.54.34,1.34.65,2.69-.44,3.19-.45.17-.79.17-1.34-1-.6-3.53-.81-6.53-1.41-10.16-13.53-14.39-21.18-28.65-25.44-48.09-4.29-20.35-3.68-36.56-1.81-47.92a37.43,37.43,0,0,1,1-4.18c11.89,9.49,20.27,22,27.41,36.29a88.14,88.14,0,0,1,8.16,24.35"/><path class="cls-1" d="M662.52,238.51c1.09,1,7.13,6.75,8.6,6,.41-.34.68-2.25,0-2.62-2.32-1.85-5.2-3.17-7.5-4.95.74-11-1.75-22.07-11.73-32.56-15.37-14.87-35.72-19.87-54.22-27.61-.84-.37-1.69-.84-2.61-1.18.16.67.31,1.35.51,2,3.61,12.74,10.92,27.67,19.84,37.73a77.93,77.93,0,0,0,21.65,17.56,45.62,45.62,0,0,0,25.43,5.62"/><path class="cls-1" d="M675.29,327.72c.84,1.45,5.62,9.32,7.19,8.91.62,0,1.29-1.88.78-2.62-2-2.62-4.54-4.78-6.33-7.53,3.13-10.06,1.64-24.58-5.81-38.47-11.9-20.25-29.23-30.14-46.07-44.3-.75-.74-1.48-1.41-2.25-2.16a10.65,10.65,0,0,0-.07,2.19c.4,13.92,4,31.35,10.51,44.43a95.9,95.9,0,0,0,17.57,25.08,54.24,54.24,0,0,0,24.47,14.46"/><path class="cls-1" d="M666.92,415.2c.6,1.75,3.89,11.06,5.55,11.43a2.19,2.19,0,0,0,1.21-2.43c-1.37-3.09-2.89-6.65-4.17-9.88,5.65-5.35,7.6-20.39,3-36.06-7.59-23-24.5-40.31-38.1-59.38-.65-.91-1.25-1.82-1.91-2.7-.2.67-.29,1.39-.44,2.05-2.34,13.42-2.22,31.25,1.44,45.78a111.17,111.17,0,0,0,12.33,29.5,63,63,0,0,0,21.07,21.69"/><path class="cls-1" d="M687.31,517.57c-10.28,6.73-28.78,11.83-41.49,3.53-1,.77-6.31,3.9-6.91,4.48-.88.9-2.23,1.54-3,.24a1.78,1.78,0,0,1,.16-2.46c2.63-1.85,5.59-3,8.43-4.84,9.69-20.11,20.13-33.7,36.07-43.71,18.26-11.71,33.49-11.91,43.31-11.91,1.39,0,2.7.06,4.09.11-2.45,19.88-27,46.1-40.67,54.58"/><path class="cls-1" d="M636.65,502.07a79.22,79.22,0,0,0,1.66,10.39c.29,1,.39,2.49,1.73,2,.59-.13,1.09-1.28,1.06-1.85A89.57,89.57,0,0,1,639.66,502c6.34-4,11.28-17.18,12.26-33.29-1.1-24.41-12-46.52-20.82-69.48a29.39,29.39,0,0,0-1-3.16c-.34.53-.59,1.14-.94,1.65a114.38,114.38,0,0,0-10.69,44.19,112.59,112.59,0,0,0,4,32.31,75.31,75.31,0,0,0,14.18,27.89"/><path class="cls-1" d="M631.37,601c-11.83,2.36-27.94,1.79-38-10.92-2.53.37-6.64,1-9.28,1.21-.72.07-1.29-.44-1.58-1.41-.19-.64,0-1.48,1.2-2.08,3-.68,6-.6,9.19-1.18,13.35-15.61,26-24.42,44.09-27.71a86.57,86.57,0,0,1,48.27,5.51,27.59,27.59,0,0,1,3.83,1.68c-3.41,7.59-13.29,15.37-19.42,19.11-11.79,7.77-24,13.42-38.33,15.8"/><path class="cls-1" d="M589,567.95c-.2,1.41-.41,6.86-.41,10.52.08,1-.19,2.39,1.19,2.42a1.77,1.77,0,0,0,1.41-1.45c.24-3.42.09-7,.67-10.49,7-2.22,16.32-12.88,20.64-27.58,4.93-23.6-.45-47.89-3-72.74-.18-1.07-.13-2.22-.21-3.42-.44.47-1,.9-1.42,1.34a101.68,101.68,0,0,0-21.29,38.17,111.94,111.94,0,0,0-4.26,31.91A78.42,78.42,0,0,0,589,567.95"/><path class="cls-1" d="M522.43,616c-.6,1-1.44,5.55-2.35,9.07-.26.78-.78,2.06.41,2.56a1.45,1.45,0,0,0,1.67-.8c1.22-3,1.22-6,2.63-9,6.83,1.61,18.7-7,26.5-18.4,10.78-19.53,11.94-42.5,16.12-65.74.13-1.11.44-2.08.66-3.16-.53.13-1.1.43-1.68.6-10.35,5.24-22.09,14.44-29.65,25.72A90.9,90.9,0,0,0,524,584.49c-2.82,10.63-3,20.79-1.56,31.47"/><path class="cls-1" d="M559.81,659.36c-12.11-1.61-27.89-7.2-34.78-22.74-2.42-.71-6.72-1.21-9.33-1.94-.72-.13-1.12-.88-1.19-1.89,0-.54.38-1.39,1.61-1.58,3.05.44,6,1.38,9.41,1.75,17.63-10.45,31.89-15.16,50.38-12.48,21.32,3,36.76,13.73,45.1,20.52,1.22,1,2.36,1.88,3.46,3-5.15,6.33-16.66,10.53-23.45,12.3-13.39,3.77-26.57,5.22-41.22,3.1"/><path class="cls-1" d="M282.63,648C180.92,634,106.81,554,73,444.79,59.17,399.6,57.11,349.49,62,297c9-93.6,52-174.91,114.72-234.2.24-.27.38-.37.44-.11a4.08,4.08,0,0,0,1,.74c.34.2.46,0,.21.43C111.8,124.81,69,221.66,64.38,319.59c-7.19,139.79,60.74,263.69,162.53,306.29a224.22,224.22,0,0,0,53.6,15.54,11.07,11.07,0,0,1,2.12,6.59"/><path class="cls-1" d="M29,414.46c8.34,9.89,21.52,19.57,35.78,15.81.71,1.13,4.51,6.59,5,7.43.63,1,1.83,2,2.77,1.18a1.84,1.84,0,0,0,.45-2.46c-2.06-2.58-4.14-5.2-6.5-8-4.17-22.23-10.29-37-23.09-52-14.77-17.16-30-24.85-39.32-28.06-1.39-.4-2.63-.74-4-1.14-.92,8.57,3,21.05,6.12,28.25,6,14.52,12.55,27.3,22.74,38.94"/><path class="cls-1" d="M151.44,101.83c-1.16.47-8.09,2.29-8.94.87-.29-.4.1-1.74.71-1.85,2.52-.27,5.36-.47,7.81-1,4.43-14.07,16.91-20.18,28.3-22.54,13.7-2.75,28.79,1.45,45,3.7a16.1,16.1,0,0,0,2.51.27,7.61,7.61,0,0,1-1,1.44c-6.8,9.25-17.33,17.7-27.67,21.9a56.49,56.49,0,0,1-23.4,4.27,41.72,41.72,0,0,1-23.25-7.09"/><path class="cls-1" d="M178.17,63.43c.54.2.57,0,1.56-.58,2-1.78,3.57-2.89,5.52-4.68q16.49.12,31.24-9.74A63.24,63.24,0,0,0,228.89,37.7c8.75-9.41,15.81-23.17,19-35.78A10.81,10.81,0,0,0,248.27,0c-.81.34-1.55.71-2.36,1.08C228.16,8.17,211,11.5,196.78,25.28c-9.64,9.18-14.71,20.35-12.68,31.18a81.62,81.62,0,0,0-6.59,5.42c-1,.74.1,1.51.66,1.55"/><path class="cls-1" d="M113.71,160.78c-1.18.64-7.9,4.1-8.88,3-.42-.43-.24-1.91.38-2.15,2.48-.95,5.43-1.55,7.81-2.63.92-9.92,6.44-19.23,17.54-25.63,16.88-8.95,36.12-7.47,54.17-9.08.91-.07,1.72-.13,2.52-.2-.26.5-.54,1-.76,1.55-6.06,10.4-15.78,21.63-25.79,28.05a65,65,0,0,1-23.09,9.49,42,42,0,0,1-23.9-2.36"/><path class="cls-1" d="M25.17,314.38c5.51,12.3,15.33,25.86,29.73,26.76.45,1.25,3.08,7.2,3.46,8.14.29,1.28,1.21,2.69,2.41,2.08a2,2,0,0,0,1-2.22c-1.41-3.32-3.1-5.89-4.71-9.25,1.32-22.63,0-39.18-8.66-57.85C38.55,260.56,25,248.26,16.65,242.2a28.36,28.36,0,0,0-3.39-2.41c-1.88,8.74-1.32,22.36-.13,30.23,2.17,16.07,5.64,30,12,44.36"/><path class="cls-1" d="M41.37,223.41c2.39,13.15,8.29,26.43,21.45,32.14.15,1.38,1.65,7.77,1.84,8.75,0,1.35.45,2.89,1.78,2.72a1.75,1.75,0,0,0,1.36-1.81c-.54-3.43-1.54-7.37-2.22-11.13,4.37-16,6.77-30.56,6-46.25a94.88,94.88,0,0,0-22.33-56.47c-1-1.14-1.78-2.28-2.66-3.32-3.64,7.56-6,20.54-6.69,28.28-1.34,15.81-1.28,31.68,1.48,47.09"/><path class="cls-1" d="M74.54,140.41c-.34,13.55,2.88,28.68,14.29,37.42-.09,1.34-.34,7.94-.41,8.85-.19,1.24-.09,2.85,1.19,3.12.47,0,1.28-.07,1.58-1.38.25-3.42.37-8.61.54-12.31a107.72,107.72,0,0,0,15.11-54.81c.38-23.68-5.51-38.71-10.17-48.22-.62-1.28-1.25-2.56-1.88-3.8-5.12,6.22-10,18.06-12.14,25.43-4.48,14.76-7.71,30.13-8.1,45.7"/><path class="cls-1" d="M124.78,64.64c-3,12.68-2.1,31.35,7.35,39-.34,1.65-1.16,7.33-1.26,8.54-.34,1.34-.65,2.69.44,3.19.45.17.79.17,1.34-1,.6-3.53.81-6.53,1.41-10.16,13.53-14.39,21.18-28.65,25.44-48.09,4.29-20.35,3.68-36.56,1.81-47.92a37.43,37.43,0,0,0-1-4.18c-11.89,9.49-20.27,22-27.41,36.29a88.14,88.14,0,0,0-8.16,24.35"/><path class="cls-1" d="M83.41,238.51c-1.09,1-7.13,6.75-8.6,6-.41-.34-.68-2.25,0-2.62,2.32-1.85,5.2-3.17,7.5-4.95-.74-11,1.75-22.07,11.73-32.56,15.37-14.87,35.72-19.87,54.22-27.61.84-.37,1.69-.84,2.61-1.18-.16.67-.31,1.35-.51,2-3.61,12.74-10.92,27.67-19.84,37.73a77.93,77.93,0,0,1-21.65,17.56,45.62,45.62,0,0,1-25.43,5.62"/><path class="cls-1" d="M70.63,327.72c-.84,1.45-5.62,9.32-7.19,8.91-.62,0-1.29-1.88-.78-2.62,2-2.62,4.54-4.78,6.33-7.53C65.86,316.42,67.35,301.9,74.8,288c11.9-20.25,29.23-30.14,46.07-44.3.75-.74,1.48-1.41,2.25-2.16a10.65,10.65,0,0,1,.07,2.19c-.4,13.92-4,31.35-10.51,44.43a95.9,95.9,0,0,1-17.57,25.08,54.24,54.24,0,0,1-24.47,14.46"/><path class="cls-1" d="M79,415.2c-.6,1.75-3.89,11.06-5.55,11.43a2.19,2.19,0,0,1-1.21-2.43c1.37-3.09,2.89-6.65,4.17-9.88-5.65-5.35-7.6-20.39-3-36.06,7.59-23,24.5-40.31,38.1-59.38.65-.91,1.25-1.82,1.91-2.7.2.67.29,1.39.44,2.05,2.34,13.42,2.22,31.25-1.44,45.78a111.17,111.17,0,0,1-12.33,29.5A63,63,0,0,1,79,415.2"/><path class="cls-1" d="M58.61,517.57c10.28,6.73,28.78,11.83,41.49,3.53,1,.77,6.31,3.9,6.91,4.48.88.9,2.23,1.54,3,.24a1.78,1.78,0,0,0-.16-2.46c-2.63-1.85-5.59-3-8.43-4.84-9.69-20.11-20.13-33.7-36.07-43.71C47.09,463.09,31.86,462.88,22,462.88c-1.39,0-2.7.06-4.09.11,2.45,19.88,27,46.1,40.67,54.58"/><path class="cls-1" d="M109.27,502.07a79.22,79.22,0,0,1-1.66,10.39c-.29,1-.39,2.49-1.73,2-.59-.13-1.09-1.28-1.06-1.85A89.57,89.57,0,0,0,106.26,502C99.92,498,95,484.78,94,468.67c1.1-24.41,12-46.52,20.82-69.48a29.39,29.39,0,0,1,1-3.16c.34.53.59,1.14.94,1.65a114.38,114.38,0,0,1,10.69,44.19,112.59,112.59,0,0,1-4,32.31,75.31,75.31,0,0,1-14.18,27.89"/><path class="cls-1" d="M114.56,601c11.83,2.36,27.94,1.79,38-10.92,2.53.37,6.64,1,9.28,1.21.72.07,1.29-.44,1.58-1.41.19-.64,0-1.48-1.2-2.08-3-.68-6-.6-9.19-1.18-13.35-15.61-26-24.42-44.09-27.71a86.57,86.57,0,0,0-48.27,5.51,27.59,27.59,0,0,0-3.83,1.68c3.41,7.59,13.29,15.37,19.42,19.11,11.79,7.77,24,13.42,38.33,15.8"/><path class="cls-1" d="M157,567.95c.2,1.41.41,6.86.41,10.52-.08,1,.19,2.39-1.19,2.42a1.77,1.77,0,0,1-1.41-1.45c-.24-3.42-.09-7-.67-10.49-7-2.22-16.32-12.88-20.64-27.58-4.93-23.6.45-47.89,3-72.74.18-1.07.13-2.22.21-3.42.44.47,1,.9,1.42,1.34a101.68,101.68,0,0,1,21.29,38.17,111.94,111.94,0,0,1,4.26,31.91A78.42,78.42,0,0,1,157,567.95"/><path class="cls-1" d="M223.49,616c.6,1,1.44,5.55,2.35,9.07.26.78.78,2.06-.41,2.56a1.45,1.45,0,0,1-1.67-.8c-1.22-3-1.22-6-2.63-9-6.83,1.61-18.7-7-26.5-18.4-10.78-19.53-11.94-42.5-16.12-65.74-.13-1.11-.44-2.08-.66-3.16.53.13,1.1.43,1.68.6,10.35,5.24,22.09,14.44,29.65,25.72a90.9,90.9,0,0,1,12.76,27.62c2.82,10.63,3,20.79,1.56,31.47"/><path class="cls-1" d="M186.11,659.36c12.11-1.61,27.89-7.2,34.78-22.74,2.42-.71,6.72-1.21,9.33-1.94.72-.13,1.12-.88,1.19-1.89,0-.54-.38-1.39-1.61-1.58-3.05.44-6,1.38-9.41,1.75-17.63-10.45-31.89-15.16-50.38-12.48-21.32,3-36.76,13.73-45.1,20.52-1.22,1-2.36,1.88-3.46,3,5.15,6.33,16.66,10.53,23.45,12.3,13.39,3.77,26.57,5.22,41.22,3.1"/></g></g></svg>