<svg xmlns="http://www.w3.org/2000/svg" xmlns:xlink="http://www.w3.org/1999/xlink" preserveAspectRatio="xMidYMid" width="656" height="173" viewBox="0 0 656 173">
  <defs>
    <style>
      .cls-1 {
        fill: #00adef;
      }

      .cls-1, .cls-2, .cls-3, .cls-4 {
        fill-rule: evenodd;
      }

      .cls-2 {
        fill: #0060ae;
      }

      .cls-3 {
        fill: #fff;
      }

      .cls-4 {
        fill: #000;
      }
    </style>
  </defs>
  <g>
    <path d="M370.440,171.277 L370.440,112.670 L446.671,112.670 L446.671,171.277 L370.440,171.277 ZM277.442,112.664 L353.667,112.664 L353.667,171.270 L277.442,171.270 L277.442,112.664 Z" class="cls-1"/>
    <path d="M463.444,171.267 L539.663,171.267 L539.663,112.661 L463.444,112.661 L463.444,171.267 Z" class="cls-2"/>
    <path d="M556.435,171.279 L632.676,171.279 L632.676,112.674 L556.435,112.674 L556.435,171.279 Z" class="cls-3"/>
    <path d="M646.279,99.315 C641.796,99.315 638.155,95.656 638.155,91.148 C638.155,86.636 641.796,82.981 646.279,82.981 C650.763,82.981 654.403,86.636 654.403,91.148 C654.403,95.656 650.763,99.315 646.279,99.315 ZM646.279,84.187 C642.458,84.187 639.361,87.308 639.361,91.148 C639.361,94.990 642.458,98.104 646.279,98.104 C650.095,98.104 653.204,94.990 653.204,91.148 C653.204,87.308 650.095,84.187 646.279,84.187 ZM647.510,91.029 C647.784,91.155 647.990,91.286 648.128,91.406 C648.428,91.688 648.709,92.030 648.983,92.432 L650.326,94.538 L649.033,94.538 L648.015,92.931 C647.709,92.467 647.469,92.121 647.285,91.877 C647.085,91.619 646.904,91.443 646.754,91.343 C646.610,91.255 646.461,91.186 646.292,91.148 C646.180,91.129 645.986,91.117 645.724,91.117 L644.544,91.117 L644.544,94.538 L643.513,94.538 L643.513,86.821 L646.941,86.821 C647.622,86.821 648.153,86.886 648.502,87.030 C648.865,87.168 649.146,87.413 649.370,87.763 C649.577,88.104 649.683,88.499 649.683,88.920 C649.683,89.466 649.514,89.937 649.152,90.313 C648.799,90.684 648.253,90.922 647.510,91.029 ZM648.234,88.027 C647.972,87.796 647.547,87.671 646.979,87.671 L644.544,87.671 L644.544,90.225 L646.735,90.225 C647.200,90.225 647.553,90.175 647.828,90.081 C648.090,89.987 648.296,89.830 648.428,89.616 C648.565,89.403 648.627,89.177 648.627,88.920 C648.627,88.556 648.502,88.262 648.234,88.027 ZM593.920,90.860 L590.074,90.860 L577.941,90.860 L577.042,90.860 L565.496,90.860 L560.163,90.860 C532.057,90.860 518.007,83.552 518.007,68.623 L518.007,55.945 L518.007,43.266 C518.007,28.339 532.057,21.031 560.163,21.031 L565.496,21.031 L577.042,21.031 L577.941,21.031 L590.074,21.031 L593.920,21.031 C622.020,21.031 636.070,28.339 636.070,43.266 L636.070,55.945 L636.070,68.623 C636.070,83.552 622.020,90.860 593.920,90.860 ZM617.087,55.945 L617.087,42.239 C617.087,36.725 609.082,34.019 593.364,34.019 L577.941,34.025 L577.941,34.019 L577.042,34.019 L577.042,34.025 L560.719,34.019 C545.002,34.019 536.990,36.725 536.990,42.239 L536.990,55.945 L536.990,69.650 C536.990,75.164 545.002,77.870 560.719,77.870 L577.042,77.864 L577.042,77.870 L577.941,77.870 L577.941,77.864 L593.364,77.870 C609.082,77.870 617.087,75.164 617.087,69.650 L617.087,55.945 ZM496.401,34.005 C495.652,34.005 494.553,34.005 493.073,33.857 L489.551,33.857 C474.952,33.857 467.740,36.695 467.740,42.666 L467.740,85.047 C467.740,87.884 466.266,89.667 463.668,90.420 C462.557,90.715 459.791,90.860 455.357,90.860 C450.918,90.860 448.694,88.920 448.694,85.047 L448.694,42.666 C448.694,33.410 454.427,27.291 466.079,24.013 C473.104,21.913 483.644,21.029 497.694,21.029 C502.502,21.029 504.906,23.412 504.906,28.190 C504.906,32.070 501.940,34.005 496.401,34.005 ZM384.215,58.727 L314.359,58.727 L314.359,84.706 C314.359,87.539 313.061,89.328 310.094,90.075 C309.359,90.376 306.391,90.527 301.381,90.527 C296.756,90.527 294.352,88.581 294.352,84.706 L294.352,7.384 C294.352,3.649 296.756,1.708 301.381,1.708 L385.139,1.708 C396.441,1.708 406.083,3.051 414.044,5.443 C425.721,9.022 431.460,14.396 431.460,21.419 L431.460,35.297 C431.460,44.104 425.902,50.522 414.968,54.556 C406.445,57.387 396.260,58.727 384.215,58.727 ZM411.453,22.608 C411.453,17.533 402.745,14.846 385.326,14.846 L314.359,14.846 L314.359,45.595 L385.326,45.595 C402.745,45.595 411.453,41.864 411.453,34.703 L411.453,22.608 ZM232.389,90.860 L228.542,90.860 L216.409,90.860 L215.512,90.860 L203.963,90.860 L198.630,90.860 C170.524,90.860 156.477,83.552 156.477,68.623 L156.477,55.945 L156.477,43.266 C156.477,28.339 170.524,21.031 198.630,21.031 L203.963,21.031 L215.512,21.031 L216.409,21.031 L228.542,21.031 L232.389,21.031 C260.489,21.031 274.537,28.339 274.537,43.266 L274.537,55.945 L274.537,68.623 C274.537,83.552 260.489,90.860 232.389,90.860 ZM255.555,55.945 L255.555,42.239 C255.555,36.725 247.550,34.019 231.833,34.019 L216.409,34.025 L216.409,34.019 L215.512,34.019 L215.512,34.025 L199.187,34.019 C183.470,34.019 175.457,36.725 175.457,42.239 L175.457,55.945 L175.457,69.650 C175.457,75.164 183.470,77.870 199.187,77.870 L215.512,77.864 L215.512,77.870 L216.409,77.870 L216.409,77.864 L231.833,77.870 C247.550,77.870 255.555,75.164 255.555,69.650 L255.555,55.945 ZM173.148,132.309 L157.450,132.291 L155.957,138.587 L170.928,138.543 L169.512,145.247 L154.227,145.247 L152.514,153.728 L168.271,153.778 L166.747,160.508 L142.174,160.508 L149.894,125.894 L174.598,125.925 L173.148,132.309 ZM126.529,160.388 L129.943,145.297 L117.094,145.285 L113.664,160.388 L104.716,160.388 L112.440,125.894 L121.513,125.894 L118.616,138.631 L131.511,138.643 L134.311,125.894 L143.323,125.894 L135.455,160.388 L126.529,160.388 ZM93.943,91.186 L48.463,91.186 C36.532,91.186 26.522,89.792 18.389,87.038 C7.205,83.259 1.598,77.225 1.598,68.928 L1.598,24.535 C1.598,16.560 7.297,10.673 18.731,6.850 C27.754,3.994 37.709,2.550 48.621,2.550 L66.675,2.550 C71.547,2.550 73.981,4.733 73.981,9.110 C73.981,13.508 71.547,15.716 66.675,15.716 L61.160,15.716 C60.632,15.716 60.329,15.697 60.268,15.639 C58.877,15.593 57.645,15.568 56.568,15.541 C55.488,15.519 54.600,15.497 53.950,15.497 C32.407,15.497 21.620,18.495 21.620,24.502 L21.620,68.846 C21.620,74.863 30.653,77.871 48.710,77.871 L93.979,77.871 C98.292,77.871 102.911,77.225 107.783,75.908 C113.912,74.249 116.991,72.032 116.991,69.204 L116.991,59.774 L88.850,59.774 C85.138,59.774 82.094,56.578 82.094,52.671 C82.094,48.761 85.138,45.565 88.850,45.565 L122.695,45.565 C124.406,45.394 126.850,45.410 130.001,45.410 C134.684,45.410 137.024,47.296 137.024,51.098 L137.024,68.628 C137.024,76.676 132.060,82.661 122.142,86.585 C114.440,89.635 105.041,91.186 93.943,91.186 ZM38.307,136.660 C38.172,141.041 36.635,143.471 33.747,144.023 C37.425,145.222 38.898,147.934 38.898,152.071 C38.898,157.946 36.288,160.495 31.247,160.495 L12.773,160.495 L12.773,128.361 L29.725,128.361 C35.138,128.706 37.993,131.456 38.307,136.660 ZM18.913,155.436 L28.728,155.436 C31.507,155.486 32.855,154.073 32.830,151.248 C32.685,148.693 31.507,147.225 29.293,146.766 L18.913,146.760 L18.913,155.436 ZM18.913,133.822 L18.913,141.964 L28.078,141.973 C30.671,142.014 31.925,140.702 31.903,138.122 C31.772,135.775 30.662,134.237 28.600,133.816 L18.913,133.822 ZM48.368,137.840 L53.972,137.840 C58.145,137.840 61.553,141.217 61.553,145.354 L61.553,149.607 L46.064,149.607 C46.064,154.224 46.940,156.364 49.881,156.364 C50.961,156.364 52.105,156.305 53.251,156.305 C55.185,156.305 56.083,155.417 56.083,152.849 L61.553,152.849 L61.553,152.987 C61.553,157.111 58.145,160.489 53.972,160.489 L48.368,160.489 C44.194,160.489 40.778,157.111 40.778,152.987 L40.778,145.354 C40.778,141.217 44.194,137.840 48.368,137.840 ZM55.079,146.729 L56.019,146.722 C56.019,143.251 54.786,141.587 51.403,141.682 C47.662,141.657 46.043,143.376 46.043,146.729 L55.079,146.729 ZM78.394,146.798 C80.197,146.515 81.908,146.735 82.900,146.923 C84.944,147.356 86.563,148.166 87.487,149.246 L87.487,144.281 C87.487,142.234 85.664,141.493 83.248,141.443 C80.325,141.430 78.877,142.466 78.937,144.513 L73.019,144.513 C72.905,142.774 73.231,141.349 74.011,140.244 C74.026,140.222 74.043,140.206 74.059,140.187 C74.206,139.980 74.382,139.792 74.557,139.610 C75.987,138.216 78.077,137.890 79.267,137.840 L86.143,137.909 C86.499,137.934 86.838,137.978 87.171,138.041 C87.321,138.066 87.458,138.097 87.598,138.135 C87.803,138.179 87.998,138.229 88.193,138.285 C88.324,138.329 88.452,138.373 88.580,138.424 C88.778,138.499 88.967,138.574 89.156,138.668 C89.261,138.712 89.370,138.756 89.469,138.813 C89.676,138.926 89.874,139.051 90.073,139.171 C90.297,139.327 90.511,139.491 90.703,139.660 L90.844,139.773 C91.816,140.671 92.360,141.719 92.656,142.541 C92.675,142.604 92.970,143.590 93.015,144.814 L93.015,145.486 L93.015,160.526 L92.973,160.526 L87.519,160.526 L87.427,160.526 L87.427,158.166 C85.853,160.106 83.635,160.966 80.728,160.834 C75.136,160.595 72.237,158.433 72.033,154.343 C71.853,150.181 73.976,147.676 78.394,146.798 ZM77.751,155.147 C77.771,155.228 77.802,155.285 77.829,155.360 C78.522,157.275 80.875,157.551 82.000,157.564 C82.781,157.545 83.647,157.432 84.632,157.228 C85.090,157.099 85.744,156.885 86.234,156.534 C86.869,156.032 87.259,155.335 87.381,154.425 C87.384,154.400 87.388,154.381 87.391,154.349 C87.403,154.243 87.400,154.124 87.406,154.017 C87.420,153.420 87.275,152.679 86.688,152.077 C85.572,150.972 83.766,150.545 81.252,150.834 C80.331,150.978 79.145,151.349 78.296,152.284 C77.646,153.056 77.461,154.014 77.751,155.147 ZM195.483,125.888 C195.828,125.888 207.130,125.172 206.574,134.808 C206.181,141.820 202.929,143.609 196.963,145.862 C200.062,151.041 201.129,153.816 205.218,160.401 L194.911,160.401 C193.765,157.118 188.826,147.746 188.801,147.746 L183.520,147.746 L183.520,147.758 L183.487,147.758 L180.766,160.476 L172.013,160.476 L179.622,125.894 L195.483,125.888 ZM191.275,141.506 C196.905,141.506 199.588,132.385 193.737,132.291 L187.407,132.291 L185.208,141.506 L191.275,141.506 ZM213.818,132.328 C214.769,131.242 216.884,129.102 219.812,127.488 C220.961,126.885 223.547,125.756 226.950,125.404 C230.028,125.128 246.912,124.475 243.830,143.477 C243.817,143.540 243.811,143.590 243.791,143.646 C243.079,146.641 241.997,149.177 240.745,151.349 C239.482,153.427 237.253,156.333 233.808,158.398 C233.762,158.423 233.723,158.449 233.689,158.474 C233.138,158.794 232.557,159.095 231.947,159.371 C228.506,160.878 225.200,161.098 225.101,161.104 C224.276,161.167 223.436,161.185 222.566,161.185 C218.969,161.185 216.133,160.545 214.074,159.283 C213.473,158.913 212.850,158.474 212.246,157.990 C209.979,156.038 208.899,153.590 208.380,151.531 C207.856,149.058 207.667,146.044 208.448,142.761 C209.415,138.725 211.434,135.191 213.818,132.328 ZM217.691,150.275 C217.710,150.326 217.722,150.370 217.738,150.420 C217.770,150.495 217.802,150.577 217.834,150.646 C218.595,152.491 220.437,154.757 224.813,154.513 C226.319,154.356 229.740,153.552 232.346,149.491 C233.394,147.733 234.404,145.454 234.974,143.056 C235.447,141.085 235.431,139.472 235.156,137.934 C234.686,135.699 233.475,134.280 233.171,133.942 C232.738,133.527 232.250,133.132 231.713,132.799 C229.721,131.681 227.655,131.901 226.975,132.021 C226.489,132.121 225.986,132.240 225.482,132.403 C225.382,132.441 225.276,132.479 225.178,132.516 C225.153,132.523 225.126,132.529 225.108,132.542 C224.085,132.950 223.180,133.584 222.423,134.237 C221.025,135.423 219.812,137.338 219.445,137.940 C218.646,139.371 217.927,140.734 217.514,142.457 C217.454,142.711 217.408,142.969 217.358,143.226 L217.358,143.220 C217.358,143.220 216.478,146.992 217.691,150.275 ZM254.987,151.317 L252.714,160.351 L244.478,160.351 L246.748,151.317 L254.987,151.317 Z" class="cls-4"/>
  </g>
</svg>
