<svg xmlns="http://www.w3.org/2000/svg" width="62" height="41.5" viewBox="0 0 62 41.5">
  <defs>
    <style>
      .cls-1 {
        fill-rule: evenodd;
      }
    </style>
  </defs>
  <path class="cls-1" d="M231.889,29.3a1.846,1.846,0,0,1-1.414,1.706,7.265,7.265,0,0,1-2.677.437h-4.319a8.971,8.971,0,0,1-2.856-.394,1.892,1.892,0,0,1-1.595-1.721V25.113q0-1.136,1.627-1.68a9.366,9.366,0,0,1,2.839-.409h1.714a0.629,0.629,0,1,1,0,1.251h-0.523a0.231,0.231,0,0,1-.085-0.007c-0.132,0-.249-0.007-0.352-0.009s-0.187,0-.248,0q-3.069,0-3.07.856v4.213q0,0.857,2.572.857h4.3a5.036,5.036,0,0,0,1.311-.186,0.925,0.925,0,0,0,.875-0.637v-0.9h-2.673a0.676,0.676,0,0,1,0-1.35h3.214c0.162-.017.4-0.015,0.694-0.015a0.54,0.54,0,0,1,.667.54V29.3m11.223,0.042V26.793c0-.524-0.738-0.794-2.23-0.794h-2.95a5.91,5.91,0,0,0-1.475.17,0.958,0.958,0,0,0-.913.737v2.439a0.941,0.941,0,0,0,.931.695,6.524,6.524,0,0,0,1.475.142h2.932a5.908,5.908,0,0,0,1.352-.156,0.924,0.924,0,0,0,.878-0.681m1.826,0A1.755,1.755,0,0,1,243.55,31a6.966,6.966,0,0,1-2.615.411h-3a8.489,8.489,0,0,1-2.7-.411,1.813,1.813,0,0,1-1.492-1.659V26.906a1.878,1.878,0,0,1,1.475-1.687,7.212,7.212,0,0,1,2.7-.44h3.02c2.669,0,4,.695,4,2.113v2.453Zm21.886-3.884c0,0.368-.281.553-0.808,0.553A2.888,2.888,0,0,1,265.7,26h-0.334c-1.387,0-2.072.27-2.072,0.837v4.027a0.491,0.491,0,0,1-.386.511,4.193,4.193,0,0,1-.79.042,0.526,0.526,0,0,1-.632-0.553V26.835a1.844,1.844,0,0,1,1.65-1.772,11.369,11.369,0,0,1,3-.284,0.6,0.6,0,0,1,.685.681m10.625,3.884V26.793c0-.524-0.737-0.794-2.229-0.794h-2.95a5.913,5.913,0,0,0-1.476.17,0.957,0.957,0,0,0-.912.737v2.439a0.941,0.941,0,0,0,.93.695,6.524,6.524,0,0,0,1.475.142h2.933a5.9,5.9,0,0,0,1.351-.156,0.923,0.923,0,0,0,.878-0.681m1.826,0A1.754,1.754,0,0,1,277.888,31a6.975,6.975,0,0,1-2.616.411h-3a8.484,8.484,0,0,1-2.7-.411,1.814,1.814,0,0,1-1.493-1.659V26.906a1.88,1.88,0,0,1,1.475-1.687,7.219,7.219,0,0,1,2.7-.44h3.02c2.668,0,4,.695,4,2.113v2.453Zm-21.326-3.266V24.93c0-.482-0.827-0.737-2.481-0.737h-6.739v2.921h6.739c1.654,0,2.481-.355,2.481-1.035m1.9,0.057a1.973,1.973,0,0,1-1.566,1.83,9.3,9.3,0,0,1-2.921.4h-6.633V30.83a0.475,0.475,0,0,1-.405.51,4,4,0,0,1-.827.043,0.548,0.548,0,0,1-.668-0.553V23.484a0.546,0.546,0,0,1,.668-0.539h7.953a9.586,9.586,0,0,1,2.745.355c1.109,0.34,1.654.85,1.654,1.517v1.319Zm20.235,5.219h0.208a0.307,0.307,0,0,0,.1-0.014,0.111,0.111,0,0,0,.057-0.043,0.12,0.12,0,0,0,.019-0.066,0.109,0.109,0,0,0-.037-0.085,0.176,0.176,0,0,0-.12-0.034h-0.231v0.243m-0.1.41V31.031h0.325a0.417,0.417,0,0,1,.148.02,0.167,0.167,0,0,1,.082.07,0.2,0.2,0,0,1,.03.11,0.184,0.184,0,0,1-.05.132,0.256,0.256,0,0,1-.156.068,0.21,0.21,0,0,1,.058.037,0.485,0.485,0,0,1,.081.1l0.127,0.2h-0.121l-0.1-.154c-0.029-.043-0.053-0.077-0.07-0.1a0.245,0.245,0,0,0-.05-0.05,0.144,0.144,0,0,0-.044-0.019,0.369,0.369,0,0,0-.054,0h-0.112v0.326h-0.1Zm0.262-.984a0.661,0.661,0,1,1-.657.661,0.659,0.659,0,0,1,.657-0.661m0-.114a0.776,0.776,0,1,1-.772.776,0.773,0.773,0,0,1,.772-0.776m-61,13.987h12.836V34.781H219.248v9.872Zm15.483,0h12.836V34.781H234.731v9.872Zm15.585,0h12.836V34.778H250.316v9.872Zm0,0h12.836V34.778H250.316v9.872Zm12.836,0H250.316V34.779h12.836v9.871Zm-12.836,0h12.836V34.778H250.316v9.872Zm15.913,0h12.837V34.781H266.229v9.872ZM240.67,62.9L234.6,51.84h-1.9l6.933,12.592h2.076l6.933-12.592h-1.9Zm22.839-3.99a2.519,2.519,0,0,0,1.25-2.479V55.406c0-2.365-.571-3.566-4.185-3.566H250.562V64.432h1.695V59.458h6.248l4.082,4.94h2.1l-4.082-4.94a10.033,10.033,0,0,0,1.811-.136A2.6,2.6,0,0,0,263.509,58.911Zm-11.252-5.679h7.712c2.49,0,3.1.452,3.1,1.861V56.24c0,1.322-.8,1.826-2.68,1.826h-8.127V53.232ZM-8148,77.994H8235M-8148,11.005H8235" transform="translate(-219.031 -22.938)"/>
</svg>
