<svg id="Layer_1" data-name="Layer 1" xmlns="http://www.w3.org/2000/svg" viewBox="0 0 456.11 77.95"><defs><style>.cls-1{fill:#009fd6;}.cls-2{fill:#fff;}.cls-3{fill:#0061a7;}</style></defs><title>GoPro_Logo_VR_Reversed8rev1</title><rect class="cls-1" x="127.33" y="50.95" width="35.19" height="26.91"/><rect class="cls-1" x="170.26" y="50.95" width="35.19" height="26.91"/><rect class="cls-2" x="256.12" y="50.95" width="35.19" height="26.91"/><rect class="cls-3" x="213.19" y="50.95" width="35.18" height="26.91"/><g id="GoPro_Be_a_HERO" data-name="GoPro Be a HERO"><path class="cls-2" d="M268.13,145.06H252.55c-13,0-19.46,3.36-19.46,10.21v5.82h0v5.82c0,6.85,6.49,10.21,19.46,10.21h15.58c13,0,19.46-3.36,19.46-10.21v-5.82h0v-5.82C287.59,148.42,281.1,145.06,268.13,145.06Zm10.69,16v6.29c0,2.53-3.7,3.78-11,3.78H252.81c-7.26,0-11-1.24-11-3.78v-6.29h0V154.8c0-2.53,3.7-3.78,11-3.78h15.07c7.26,0,11,1.24,11,3.78v6.29h0Z" transform="translate(-161.6 -136.19)"/><path class="cls-2" d="M224.11,166.91v-8c0-1.75-1.08-2.61-3.24-2.61-1.45,0-2.58,0-3.37.07H201.87a3.27,3.27,0,0,0,0,6.52h13v4.33c0,1.3-1.42,2.32-4.25,3.08a24.58,24.58,0,0,1-6.37.9h-20.9q-12.5,0-12.5-4.14V146.65q0-4.14,14.92-4.14l1.21,0,1.71,0a1.06,1.06,0,0,0,.41,0h2.55c2.25,0,3.37-1,3.37-3s-1.12-3-3.37-3H183.3a45.7,45.7,0,0,0-13.8,2q-7.92,2.63-7.91,8.12v20.38q0,5.72,7.75,8.32a43.86,43.86,0,0,0,13.88,1.91h21a35.58,35.58,0,0,0,13-2.11Q224.11,172.46,224.11,166.91Z" transform="translate(-161.6 -136.19)"/><path class="cls-2" d="M376.77,174.45V155c0-2.74,3.33-4,10.07-4h1.63A14.52,14.52,0,0,0,390,151c2.56,0,3.93-.89,3.93-2.67q0-3.29-3.33-3.29c-6.49,0-11.35.41-14.59,1.37-5.38,1.51-8,4.31-8,8.57v19.46q0,2.67,3.08,2.67a20.83,20.83,0,0,0,3.84-.2A2.38,2.38,0,0,0,376.77,174.45Z" transform="translate(-161.6 -136.19)"/><path class="cls-2" d="M300,177a19.57,19.57,0,0,0,4-.21,2.3,2.3,0,0,0,2-2.46V162.37h32.25a45.46,45.46,0,0,0,14.2-1.92c5-1.85,7.61-4.8,7.61-8.84v-6.37c0-3.22-2.65-5.69-8-7.34a46.88,46.88,0,0,0-13.34-1.72H300c-2.14,0-3.25.89-3.25,2.61V174.3C296.73,176.08,297.84,177,300,177Zm6-34.75h32.76c8,0,12.06,1.23,12.06,3.56v5.55c0,3.29-4,5-12.06,5H306V142.22Z" transform="translate(-161.6 -136.19)"/><path class="cls-2" d="M176.44,201.53c1.33-.25,2-1.37,2.1-3.38-0.14-2.39-1.46-3.65-4-3.81h-7.83V209.1h8.53c2.33,0,3.53-1.17,3.53-3.87C178.82,203.33,178.14,202.08,176.44,201.53Zm-6.85-4.68h4.47a1.9,1.9,0,0,1,1.52,2,1.54,1.54,0,0,1-1.77,1.77h-4.23v-3.74Zm4.53,9.92h-4.53v-4h4.79a2,2,0,0,1,1.63,2.06A1.66,1.66,0,0,1,174.12,206.77Z" transform="translate(-161.6 -136.19)"/><path class="cls-2" d="M185.78,198.69h-2.59a3.49,3.49,0,0,0-3.5,3.45v3.51a3.48,3.48,0,0,0,3.5,3.44h2.59a3.48,3.48,0,0,0,3.5-3.44v-0.06h-2.52c0,1.18-.42,1.59-1.31,1.59l-1.56,0c-1.36,0-1.76-1-1.76-3.1h7.15v-2A3.48,3.48,0,0,0,185.78,198.69Zm0.51,4.08h-4.17c0-1.54.75-2.33,2.47-2.32,1.56,0,2.13.72,2.13,2.31h-0.43Z" transform="translate(-161.6 -136.19)"/><path class="cls-2" d="M202.8,199.58l-0.06-.05-0.29-.22-0.28-.16-0.15-.07-0.27-.11-0.18-.06-0.27-.07-0.2,0-0.47-.06-3.18,0a3.4,3.4,0,0,0-2.17.81,2.23,2.23,0,0,0-.23.27l0,0a3,3,0,0,0-.46,2h2.73c0-.94.64-1.42,2-1.41,1.12,0,2,.36,2,1.3v2.28a3.82,3.82,0,0,0-2.12-1.07,6.3,6.3,0,0,0-2.08-.06c-2,.4-3,1.55-2.94,3.46s1.43,2.87,4,3a3.52,3.52,0,0,0,3.09-1.23v1.08h2.58V201.9a4.47,4.47,0,0,0-.16-1A3.24,3.24,0,0,0,202.8,199.58Zm-1.59,6.69v0a1.42,1.42,0,0,1-.53,1,2.4,2.4,0,0,1-.74.32,6.76,6.76,0,0,1-1.21.16,2,2,0,0,1-1.93-1,1,1,0,0,1,0-.1,1.38,1.38,0,0,1,.25-1.31,2.31,2.31,0,0,1,1.36-.67,3,3,0,0,1,2.51.57,1.21,1.21,0,0,1,.33.89S201.21,206.23,201.2,206.28Z" transform="translate(-161.6 -136.19)"/><polygon class="cls-2" points="112.11 72.84 115.92 72.84 116.97 68.7 113.16 68.7 112.11 72.84"/><path class="cls-2" d="M256.22,197.3c0.26-4.42-5-4.1-5.12-4.1h-7.32l-3.51,15.88h4l1.26-5.84H248s2.29,4.3,2.82,5.81h4.76c-1.89-3-2.38-4.3-3.81-6.68C254.53,201.34,256,200.52,256.22,197.3Zm-7.06,3.08h-2.8l1-4.23h2.92C253,196.19,251.75,200.38,249.15,200.38Z" transform="translate(-161.6 -136.19)"/><polygon class="cls-2" points="61.26 57.02 59.97 62.88 54.02 62.87 55.35 57.02 51.17 57.02 47.6 72.86 51.73 72.86 53.31 65.93 59.24 65.93 57.67 72.86 61.79 72.86 65.42 57.02 61.26 57.02"/><polygon class="cls-2" points="71.94 59.96 79.19 59.97 79.86 57.04 68.45 57.02 64.89 72.92 76.23 72.92 76.94 69.83 69.66 69.8 70.45 65.91 77.51 65.91 78.16 62.83 71.25 62.85 71.94 59.96"/><path class="cls-2" d="M265.62,193a9.43,9.43,0,0,0-3.29,1,10.66,10.66,0,0,0-2.77,2.22,11.85,11.85,0,0,0-2.48,4.79,9.09,9.09,0,0,0,0,4,5.67,5.67,0,0,0,1.78,3,8.71,8.71,0,0,0,.84.59,7.52,7.52,0,0,0,3.92.87c0.4,0,.79,0,1.17,0a10.44,10.44,0,0,0,3.16-.8,8.73,8.73,0,0,0,.8-0.41l0.05,0a9.59,9.59,0,0,0,3.2-3.24,13,13,0,0,0,1.41-3.54,0.63,0.63,0,0,0,0-.08C274.84,192.56,267,192.86,265.62,193Zm3.7,8.11a10.77,10.77,0,0,1-1.21,3,4.73,4.73,0,0,1-3.48,2.31,3,3,0,0,1-3.22-1.78l0-.1,0-.07a6.41,6.41,0,0,1-.15-3.24h0c0-.12,0-0.24.07-0.35a7.87,7.87,0,0,1,.89-2.07,7.72,7.72,0,0,1,1.37-1.7,4.46,4.46,0,0,1,1.24-.78h0l0.14-.05a6.55,6.55,0,0,1,.69-0.18,3.44,3.44,0,0,1,2.19.36,3.31,3.31,0,0,1,1.59,2.36A5.49,5.49,0,0,1,269.33,201.09Z" transform="translate(-161.6 -136.19)"/><path class="cls-2" d="M435,145.06H419.43c-13,0-19.46,3.36-19.46,10.21v5.82h0v5.82c0,6.85,6.49,10.21,19.46,10.21H435c13,0,19.46-3.36,19.46-10.21v-5.82h0v-5.82C454.47,148.42,448,145.06,435,145.06Zm10.69,16v6.29c0,2.53-3.7,3.78-11,3.78H419.69c-7.26,0-11-1.24-11-3.78v-6.29h0V154.8c0-2.53,3.7-3.78,11-3.78h15.07c7.26,0,11,1.24,11,3.78v6.29h0Z" transform="translate(-161.6 -136.19)"/><path class="cls-2" d="M460,177.37a1.21,1.21,0,0,0-.29-0.17,1.26,1.26,0,0,0,.76-0.33,0.89,0.89,0,0,0,.24-0.64,1,1,0,0,0-.14-0.53,0.81,0.81,0,0,0-.4-0.34,2,2,0,0,0-.72-0.1h-1.58v3.54h0.48v-1.57h0.81a0.7,0.7,0,0,1,.21.09,1.14,1.14,0,0,1,.24.24c0.08,0.11.2,0.27,0.34,0.48l0.47,0.74h0.6l-0.62-1A2.87,2.87,0,0,0,460,177.37Zm-0.64-.54h-1v-1.17h1.12a0.87,0.87,0,0,1,.58.16,0.51,0.51,0,0,1,.18.41,0.57,0.57,0,0,1-.09.32,0.52,0.52,0,0,1-.28.21A1.57,1.57,0,0,1,459.4,176.83Z" transform="translate(-161.6 -136.19)"/><path class="cls-2" d="M459.19,173.51a3.75,3.75,0,1,0,3.75,3.75A3.75,3.75,0,0,0,459.19,173.51Zm0,6.94a3.2,3.2,0,1,1,3.2-3.19A3.19,3.19,0,0,1,459.19,180.45Z" transform="translate(-161.6 -136.19)"/></g><rect class="cls-2" x="318.53" y="0.22" width="1.48" height="77.73"/><polygon class="cls-2" points="369.24 57.1 347.36 17.44 340.5 17.44 365.5 62.58 372.98 62.58 397.99 17.44 391.13 17.44 369.24 57.1"/><path class="cls-2" d="M609.26,180.45c2.34-.54,3.2-0.9,3.94-1.47,1.47-1.14,4.51-2.53,4.51-8.89v-3.68c0-8.48-2.06-12.78-15.09-12.78h-36.1v45.15h6.11V180.94h22.53l14.72,17.71h7.58l-14.72-17.71A36.4,36.4,0,0,0,609.26,180.45Zm-36.64-21.84h27.81c9,0,11.16,1.62,11.16,6.67v4.12c0,4.74-2.87,6.55-9.66,6.55H572.62V158.61Z" transform="translate(-161.6 -136.19)"/></svg>