<svg xmlns="http://www.w3.org/2000/svg" viewBox="0 0 413.09 77.94"><defs><style>.cls-1{fill:#666;}.cls-2{fill:#282525;}.cls-3{fill:#00aeec;}.cls-4{fill:#005fa7;}.cls-5{fill:#d9e3e9;}</style></defs><title>Fichier 2</title><g id="Calque_2" data-name="Calque 2"><g id="Layer_1" data-name="Layer 1"><rect class="cls-1" x="275.51" width="1.48" height="77.73"/><polygon class="cls-2" points="326.23 56.88 304.34 17.22 297.48 17.22 322.49 62.36 329.97 62.36 354.97 17.22 348.11 17.22 326.23 56.88"/><path class="cls-2" d="M404.65,44c2.34-.54,3.2-.9,3.94-1.47,1.47-1.14,4.51-2.53,4.51-8.89V30c0-8.48-2.06-12.78-15.09-12.78H361.9V62.36H368V44.53h22.53l14.72,17.71h7.58L398.12,44.53A36.4,36.4,0,0,0,404.65,44ZM368,22.21h27.81c9,0,11.16,1.62,11.16,6.67V33c0,4.74-2.87,6.55-9.66,6.55H368Z"/><g id="R"><path class="cls-2" d="M250.63,31.8A3.16,3.16,0,1,0,253.79,35,3.16,3.16,0,0,0,250.63,31.8Zm0,5.85A2.69,2.69,0,1,1,253.32,35,2.69,2.69,0,0,1,250.63,37.65Z"/><path class="cls-2" d="M251.35,35.06a.91.91,0,0,0-.24-.15,1.05,1.05,0,0,0,.64-.28.75.75,0,0,0,.21-.54.83.83,0,0,0-.12-.45.67.67,0,0,0-.34-.28,1.7,1.7,0,0,0-.61-.08h-1.33v3h.4V35h.68a.59.59,0,0,1,.18.08.91.91,0,0,1,.2.2c.07.09.17.23.29.41l.4.62h.5l-.52-.81A2.09,2.09,0,0,0,251.35,35.06Zm-.54-.46H250v-1h.95a.71.71,0,0,1,.49.14.44.44,0,0,1,.15.35.48.48,0,0,1-.08.27.45.45,0,0,1-.23.18A1.25,1.25,0,0,1,250.81,34.61Z"/><path class="cls-2" d="M89.73,34.44c10.93,0,16.39-2.82,16.39-8.6V16c0-5.77-5.46-8.6-16.39-8.6H76.6c-10.93,0-16.39,2.83-16.39,8.6v9.81c0,5.77,5.46,8.6,16.39,8.6Zm0-5H76.6c-6.11,0-9-1-9-3.18V15.64c0-2.13,2.9-3.18,9-3.18H89.73c6.11,0,9,1,9,3.18v10.6c0,2.13-2.9,3.18-9,3.18"/><path class="cls-2" d="M230.29,34.44c10.93,0,16.39-2.82,16.39-8.6V16c0-5.77-5.46-8.6-16.39-8.6H217.17c-10.93,0-16.39,2.83-16.39,8.6v9.81c0,5.77,5.46,8.6,16.39,8.6Zm0-5H217.17c-6.11,0-9-1-9-3.18V15.64c0-2.13,2.9-3.18,9-3.18h13.12c6.11,0,9,1,9,3.18v10.6c0,2.13-2.9,3.18-9,3.18"/><path class="cls-2" d="M52.65,25.71V18.93c0-1.47-.91-2.14-2.73-2.14h-16a2.75,2.75,0,0,0,0,5.49H44.87v3.65c0,1.09-1.42,2.15-3.81,2.79a18.55,18.55,0,0,1-5.15.56H18.31q-10.52,0-10.53-3.49V8.58c0-2.32,4.19-3.4,12.57-3.4H25.3q2.84,0,2.84-2.55T25.3.09h-7A35.76,35.76,0,0,0,6.66,1.75C2.7,3.11,0,5.5,0,8.59V25.83q0,4.81,6.53,7a36.85,36.85,0,0,0,11.69,1.6H35.9a29.9,29.9,0,0,0,11-1.78Q52.66,30.39,52.65,25.71Z"/><path class="cls-2" d="M160.35,1.54A39.5,39.5,0,0,0,149.12.09H116a2.22,2.22,0,0,0-2.22,2.22V32.19c0,1.5.93,2.25,2.73,2.25h2.31c1.8,0,2.73-.75,2.73-2.25v-10h27.51a35.94,35.94,0,0,0,11.6-1.61c4.25-1.56,6.41-4,6.41-7.45V7.71C167.13,5,164.9,2.92,160.35,1.54Zm-1,11.94c0,2.77-3.46,3.57-10.23,3.57H121.6V5.18h27.51c6.77,0,10.23.8,10.23,3.57Z"/><path class="cls-2" d="M192.89,7.43c-6.79,0-9.66-.12-13.68,1.53-3.78,1.55-5.39,4.28-5.39,6.79V32.29c0,1.43.89,2.14,2.6,2.14h2.2c1.71,0,2.6-.71,2.6-2.14V15.75c0-2.31,2.86-3.29,8.54-3.29h3.17c1.85,0,2.73-.85,2.73-2.51s-.93-2.51-2.79-2.51"/><rect class="cls-3" y="42.9" width="53.52" height="35.04"/><rect class="cls-3" x="64.38" y="42.9" width="53.52" height="35.04"/><rect class="cls-4" x="128.77" y="42.9" width="53.52" height="35.04"/><rect class="cls-5" x="193.15" y="42.9" width="53.52" height="35.04"/></g></g></g></svg>