<svg xmlns="http://www.w3.org/2000/svg" width="456" height="77.938" viewBox="0 0 456 77.938">
  <defs>
    <style>
      .cls-1 {
        fill-rule: evenodd;
      }
    </style>
  </defs>
  <path class="cls-1" d="M149.3,82.045h35.178V55.135H149.3v26.91Zm42.918,0H227.4V55.138H192.219v26.91Zm85.836,0h35.184V55.139H278.055V82.05Zm-42.915-.006h35.175V55.134H235.14v26.91ZM128.51,13.059H112.931c-12.971,0-19.455,3.357-19.455,10.21v5.822h0v5.823c0,6.854,6.484,10.21,19.455,10.21H128.51c12.967,0,19.451-3.355,19.451-10.21V29.091h0V23.268C147.961,16.415,141.477,13.059,128.51,13.059ZM139.2,29.091v6.292c0,2.534-3.695,3.776-10.948,3.776l-7.118,0v0H120.72v0l-7.533,0c-7.253,0-10.951-1.242-10.951-3.776V29.091h0V22.8c0-2.534,3.7-3.776,10.951-3.776l7.533,0v0h0.415v0l7.118,0c7.253,0,10.948,1.242,10.948,3.776v6.292h0ZM84.5,34.915V26.866c0-1.745-1.081-2.611-3.242-2.611-1.453,0-2.582-.009-3.372.07H62.267a3.266,3.266,0,0,0,0,6.524H75.255v4.329c0,1.3-1.421,2.317-4.251,3.078a24.57,24.57,0,0,1-6.37.9H43.743q-12.5,0-12.5-4.144V14.654q0-4.138,14.919-4.136c0.3,0,.71.01,1.209,0.022s1.065,0.023,1.707.043a1.063,1.063,0,0,0,.411.036h2.546c2.248,0,3.372-1.015,3.372-3.032s-1.124-3.012-3.372-3.012H43.7A45.68,45.68,0,0,0,29.907,6.549Q21.993,9.18,22,14.668V35.052q0,5.716,7.749,8.316a43.835,43.835,0,0,0,13.88,1.905H64.618A35.566,35.566,0,0,0,77.631,43.16Q84.5,40.458,84.5,34.915Zm152.624,7.539V22.994c0-2.743,3.328-4.045,10.066-4.045h1.625a14.526,14.526,0,0,0,1.536.068c2.556,0,3.925-.889,3.925-2.671q0-3.29-3.328-3.287c-6.484,0-11.349.406-14.591,1.369-5.377,1.506-8.023,4.315-8.023,8.566V42.454q0,2.668,3.075,2.669a20.832,20.832,0,0,0,3.836-.2A2.378,2.378,0,0,0,237.123,42.454ZM160.35,44.97a19.569,19.569,0,0,0,4.02-.208,2.3,2.3,0,0,0,1.968-2.464V30.369h32.239a45.437,45.437,0,0,0,14.192-1.915c5.046-1.854,7.611-4.8,7.611-8.843V13.237c0-3.224-2.648-5.691-8.037-7.336A46.861,46.861,0,0,0,199,4.187H160.35c-2.135,0-3.245.891-3.245,2.606V42.3C157.1,44.077,158.215,44.97,160.35,44.97Zm5.988-34.75h32.751c8.038,0,12.058,1.234,12.058,3.564v5.553c0,3.289-4.02,5-12.058,5H166.338V10.22ZM36.838,69.534c1.331-.254,2.042-1.369,2.1-3.381-0.144-2.39-1.462-3.652-3.96-3.811H27.158V77.1h8.526c2.327,0,3.53-1.17,3.53-3.868C39.214,71.33,38.534,70.085,36.838,69.534ZM29.991,64.85l4.471,0a1.9,1.9,0,0,1,1.524,1.977,1.539,1.539,0,0,1-1.765,1.767l-4.23,0V64.85Zm4.53,9.924h-4.53V70.791l4.791,0a1.958,1.958,0,0,1,1.633,2.058A1.66,1.66,0,0,1,34.521,74.774Zm11.651-8.079H43.586a3.485,3.485,0,0,0-3.5,3.45v3.5a3.484,3.484,0,0,0,3.5,3.444h2.586a3.482,3.482,0,0,0,3.5-3.444V73.587H47.146c0,1.179-.415,1.585-1.308,1.585-0.527,0-1.056.029-1.555,0.029-1.357,0-1.762-.983-1.762-3.1h7.15V70.145A3.483,3.483,0,0,0,46.172,66.695Zm0.51,4.081h-4.17c0-1.539.746-2.329,2.473-2.317,1.562-.043,2.131.721,2.131,2.314Zm16.505-3.194-0.065-.052a3.383,3.383,0,0,0-.291-0.225c-0.091-.055-0.183-0.112-0.278-0.164a1.325,1.325,0,0,0-.145-0.066,2.868,2.868,0,0,0-.265-0.112c-0.059-.023-0.118-0.043-0.179-0.064-0.089-.026-0.18-0.049-0.274-0.069-0.066-.017-0.13-0.032-0.2-0.043a4.084,4.084,0,0,0-.473-0.06l-3.174-.032a3.394,3.394,0,0,0-2.173.813,2.237,2.237,0,0,0-.23.265,0.213,0.213,0,0,0-.022.026,2.955,2.955,0,0,0-.458,1.96h2.732c-0.029-.94.64-1.415,1.988-1.409,1.115,0.023,1.957.363,1.957,1.3v2.28a3.816,3.816,0,0,0-2.118-1.067,6.3,6.3,0,0,0-2.079-.058c-2.039.4-3.019,1.554-2.935,3.465q0.141,2.815,4.013,2.981a3.518,3.518,0,0,0,3.091-1.225v1.084h2.579V69.9a4.474,4.474,0,0,0-.164-1.043A3.237,3.237,0,0,0,63.187,67.583Zm-1.594,6.693c0,0.014,0,.023,0,0.035a1.415,1.415,0,0,1-.53.969,2.394,2.394,0,0,1-.739.317,6.754,6.754,0,0,1-1.213.156A1.975,1.975,0,0,1,57.18,74.74a0.99,0.99,0,0,1-.035-0.1,1.384,1.384,0,0,1,.251-1.314,2.309,2.309,0,0,1,1.365-.666,2.969,2.969,0,0,1,2.509.571,1.207,1.207,0,0,1,.331.891C61.6,74.172,61.6,74.227,61.594,74.276Zm72.5,2.756h3.8l1.049-4.148h-3.8ZM116.6,65.3c0.257-4.424-4.959-4.1-5.118-4.1l-7.319,0-3.513,15.879h4.04l1.256-5.84h0.015V71.243h2.436c0.013,0,2.293,4.3,2.82,5.811h4.758c-1.888-3.024-2.38-4.3-3.81-6.676C114.913,69.344,116.415,68.522,116.6,65.3Zm-7.06,3.076h-2.8l1.016-4.231h2.92C113.372,64.19,112.134,68.378,109.536,68.378ZM83.247,61.21l-1.293,5.854L76,67.058l1.337-5.848H73.154L69.589,77.049h4.13L75.3,70.113l5.929,0.006-1.575,6.929h4.119L87.407,61.21h-4.16Zm10.678,2.937,7.245,0.009,0.67-2.932-11.4-.014L86.875,77.1H98.216l0.7-3.09-7.272-.023L92.439,70.1h7.055l0.653-3.079-6.909.02ZM126,60.985a9.424,9.424,0,0,0-3.293.957,10.657,10.657,0,0,0-2.767,2.222,11.841,11.841,0,0,0-2.478,4.791,9.093,9.093,0,0,0-.032,4.027,5.67,5.67,0,0,0,1.784,2.966,8.825,8.825,0,0,0,.844.594,7.523,7.523,0,0,0,3.919.873c0.4,0,.79-0.008,1.171-0.037a10.435,10.435,0,0,0,3.158-.8,8.853,8.853,0,0,0,.8-0.412c0.017-.011.034-0.023,0.055-0.034a9.6,9.6,0,0,0,3.2-3.237,13.022,13.022,0,0,0,1.407-3.537c0.008-.026.011-0.049,0.017-0.078C135.212,60.558,127.42,60.858,126,60.985Zm3.7,8.105a10.8,10.8,0,0,1-1.214,2.955,4.727,4.727,0,0,1-3.475,2.306,2.96,2.96,0,0,1-3.222-1.776c-0.014-.032-0.029-0.069-0.043-0.1s-0.014-.043-0.023-0.066a6.41,6.41,0,0,1-.153-3.24v0c0.023-.118.043-0.236,0.072-0.355a7.864,7.864,0,0,1,.891-2.073,7.725,7.725,0,0,1,1.374-1.7,4.474,4.474,0,0,1,1.239-.778,0.12,0.12,0,0,1,.032-0.011l0.141-.052a6.567,6.567,0,0,1,.689-0.176,3.441,3.441,0,0,1,2.187.357,3.306,3.306,0,0,1,1.588,2.358A5.489,5.489,0,0,1,129.7,69.09ZM295.355,13.059H279.776c-12.971,0-19.455,3.357-19.455,10.21v5.822h0v5.823c0,6.854,6.484,10.21,19.455,10.21h15.579c12.967,0,19.451-3.355,19.451-10.21V29.091h0V23.268C314.806,16.415,308.322,13.059,295.355,13.059Zm10.691,16.032v6.292c0,2.534-3.695,3.776-10.948,3.776l-7.118,0v0h-0.415v0l-7.533,0c-7.253,0-10.95-1.242-10.95-3.776V29.091h0V22.8c0-2.534,3.7-3.776,10.95-3.776l7.533,0v0h0.415v0l7.118,0c7.253,0,10.948,1.242,10.948,3.776v6.292h0Zm14.325,16.283a1.2,1.2,0,0,0-.285-0.173,1.264,1.264,0,0,0,.758-0.328,0.886,0.886,0,0,0,.245-0.64,1,1,0,0,0-.145-0.53,0.806,0.806,0,0,0-.4-0.337,2.027,2.027,0,0,0-.721-0.1h-1.582v3.542h0.476V45.241h0.545a1.8,1.8,0,0,1,.262.014,0.688,0.688,0,0,1,.213.09,1.132,1.132,0,0,1,.245.245c0.084,0.112.2,0.271,0.337,0.484l0.47,0.738h0.6l-0.619-.966A2.914,2.914,0,0,0,320.371,45.374Zm-0.643-.542h-1.011V43.659h1.124a0.868,0.868,0,0,1,.579.164,0.511,0.511,0,0,1,.182.409,0.565,0.565,0,0,1-.093.32,0.518,0.518,0,0,1-.276.213A1.572,1.572,0,0,1,319.728,44.832Zm-0.21-3.326a3.75,3.75,0,1,0,3.749,3.75A3.75,3.75,0,0,0,319.518,41.505Zm0,6.944a3.2,3.2,0,1,1,3.2-3.194A3.193,3.193,0,0,1,319.518,48.449Zm22.411,33.683h-1.475V4.407h1.475V82.132Zm49.227-20.85L369.274,21.625h-6.857l25,45.146H394.9l25-45.146h-6.857Zm78.4-12.833c2.336-.542,3.2-0.9,3.938-1.473,1.467-1.142,4.506-2.529,4.506-8.889V34.408c0-8.48-2.057-12.783-15.086-12.783H426.819V66.771h6.109V48.937h22.526l14.717,17.711h7.574L463.029,48.938A36.366,36.366,0,0,0,469.556,48.449ZM432.928,26.614h27.8c8.978,0,11.16,1.621,11.16,6.671V37.4c0,4.739-2.867,6.547-9.663,6.547h-29.3V26.614ZM390.316-8017V8366" transform="translate(-22 -4.188)"/>
</svg>
