<svg id="Layer_1" data-name="Layer 1" xmlns="http://www.w3.org/2000/svg" viewBox="0 0 571.01 151.19"><defs><style>.cls-1{fill:none;stroke:#282525;stroke-miterlimit:10;}.cls-2{fill:#666;}.cls-3{fill:#282525;}.cls-4{fill:#009fd6;}.cls-5{fill:#fff;}.cls-6{fill:#030303;}.cls-7{fill:#0061a7;}</style></defs><title>GoPro_VR_Logo_rev1</title><rect class="cls-1" x="0.5" y="0.5" width="570.01" height="150.19"/><rect class="cls-2" x="378.98" y="36.73" width="1.48" height="77.73"/><polygon class="cls-3" points="429.69 93.61 407.81 53.95 400.95 53.95 425.95 99.1 433.43 99.1 458.44 53.95 451.58 53.95 429.69 93.61"/><path class="cls-3" d="M609.26,328.59c2.34-.54,3.2-0.9,3.94-1.47,1.47-1.14,4.51-2.53,4.51-8.89v-3.68c0-8.48-2.06-12.78-15.09-12.78h-36.1v45.15h6.11V329.08h22.53l14.72,17.71h7.58l-14.72-17.71A36.4,36.4,0,0,0,609.26,328.59Zm-36.64-21.84h27.81c9,0,11.16,1.62,11.16,6.67v4.12c0,4.74-2.87,6.55-9.66,6.55H572.62V306.76Z" transform="translate(-101.15 -247.82)"/><path d="M224.62,315.6v-8c0-1.75-1.08-2.61-3.24-2.61-1.45,0-2.58,0-3.37.07H202.38a3.27,3.27,0,0,0,0,6.52h13v4.33c0,1.3-1.42,2.32-4.25,3.08a24.53,24.53,0,0,1-6.37.9h-20.9q-12.5,0-12.5-4.14V295.34q0-4.14,14.92-4.14l1.21,0,1.71,0a1.09,1.09,0,0,0,.41,0h2.55c2.25,0,3.37-1,3.37-3s-1.12-3-3.37-3h-8.34a45.74,45.74,0,0,0-13.8,2q-7.92,2.63-7.91,8.12v20.38q0,5.72,7.75,8.32A43.83,43.83,0,0,0,183.74,326h21a35.57,35.57,0,0,0,13-2.11Q224.62,321.14,224.62,315.6Z" transform="translate(-101.15 -247.82)"/><path d="M377.28,323.14V303.68c0-2.74,3.33-4,10.07-4H389a14.39,14.39,0,0,0,1.54.07c2.56,0,3.92-.89,3.92-2.67q0-3.29-3.33-3.29c-6.49,0-11.35.41-14.6,1.37-5.38,1.51-8,4.31-8,8.57v19.46q0,2.67,3.07,2.67a20.85,20.85,0,0,0,3.84-.2A2.38,2.38,0,0,0,377.28,323.14Z" transform="translate(-101.15 -247.82)"/><path d="M300.49,325.65a19.59,19.59,0,0,0,4-.21,2.3,2.3,0,0,0,2-2.47V311.05h32.25a45.46,45.46,0,0,0,14.2-1.92c5-1.85,7.61-4.8,7.61-8.84v-6.37c0-3.22-2.65-5.69-8-7.34a46.9,46.9,0,0,0-13.34-1.71H300.49c-2.14,0-3.25.89-3.25,2.61V323C297.24,324.76,298.35,325.65,300.49,325.65Zm6-34.75h32.76c8,0,12.06,1.23,12.06,3.56V300c0,3.29-4,5-12.06,5H306.48V290.9Z" transform="translate(-101.15 -247.82)"/><path d="M460.54,326.06a1.18,1.18,0,0,0-.29-0.17,1.27,1.27,0,0,0,.76-0.33,0.89,0.89,0,0,0,.24-0.64,1,1,0,0,0-.14-0.53,0.82,0.82,0,0,0-.4-0.34A2,2,0,0,0,460,324h-1.58v3.54h0.48v-1.57h0.81a0.73,0.73,0,0,1,.21.09,1.11,1.11,0,0,1,.24.24c0.08,0.11.2,0.27,0.34,0.48L461,327.5h0.6l-0.62-1A2.75,2.75,0,0,0,460.54,326.06Zm-0.64-.54h-1v-1.17H460a0.86,0.86,0,0,1,.58.16,0.51,0.51,0,0,1,.18.41,0.57,0.57,0,0,1-.09.32,0.53,0.53,0,0,1-.28.21A1.58,1.58,0,0,1,459.9,325.52Z" transform="translate(-101.15 -247.82)"/><path d="M459.69,322.19a3.75,3.75,0,1,0,3.75,3.75A3.75,3.75,0,0,0,459.69,322.19Zm0,6.94a3.2,3.2,0,1,1,3.2-3.19A3.19,3.19,0,0,1,459.69,329.13Z" transform="translate(-101.15 -247.82)"/><path d="M435.52,293.74H419.94c-13,0-19.46,3.36-19.46,10.21v5.82h0v5.82c0,6.85,6.49,10.21,19.46,10.21h15.58c13,0,19.46-3.36,19.46-10.21v-5.82h0V304C455,297.1,448.49,293.74,435.52,293.74Zm10.69,16v6.29c0,2.53-3.7,3.78-11,3.78H420.2c-7.26,0-11-1.24-11-3.78v-6.29h0v-6.29c0-2.53,3.7-3.78,11-3.78h15.07c7.26,0,11,1.24,11,3.78v6.29h0Z" transform="translate(-101.15 -247.82)"/><path d="M268.64,293.74H253.06c-13,0-19.46,3.36-19.46,10.21v5.82h0v5.82c0,6.85,6.49,10.21,19.46,10.21h15.58c13,0,19.46-3.36,19.46-10.21v-5.82h0V304C288.09,297.1,281.61,293.74,268.64,293.74Zm10.69,16v6.29c0,2.53-3.7,3.78-11,3.78H253.31c-7.26,0-11-1.24-11-3.78v-6.29h0v-6.29c0-2.53,3.7-3.78,11-3.78h15.07c7.26,0,11,1.24,11,3.78v6.29h0Z" transform="translate(-101.15 -247.82)"/><rect class="cls-4" x="188.29" y="88.01" width="35.19" height="26.91"/><rect class="cls-4" x="231.22" y="88.01" width="35.19" height="26.91"/><rect class="cls-5" x="317.2" y="88.13" width="34.94" height="26.66"/><path class="cls-6" d="M453.16,336.08v26.41H418.47V336.08h34.69m0.25-.25H418.22v26.91h35.19V335.83h0Z" transform="translate(-101.15 -247.82)"/><rect class="cls-7" x="274.15" y="88" width="35.18" height="26.91"/><path d="M176.95,350.22c1.33-.25,2-1.37,2.1-3.38-0.14-2.39-1.46-3.65-4-3.81h-7.83v14.76h8.53c2.33,0,3.53-1.17,3.53-3.87C179.32,352,178.64,350.77,176.95,350.22Zm-6.85-4.68h4.47a1.9,1.9,0,0,1,1.52,2,1.54,1.54,0,0,1-1.76,1.77H170.1v-3.74Zm4.53,9.92H170.1v-4h4.79a2,2,0,0,1,1.63,2.06A1.66,1.66,0,0,1,174.63,355.46Z" transform="translate(-101.15 -247.82)"/><path d="M186.28,347.38H183.7a3.49,3.49,0,0,0-3.5,3.45v3.51a3.48,3.48,0,0,0,3.5,3.44h2.59a3.48,3.48,0,0,0,3.5-3.44v-0.06h-2.53c0,1.18-.42,1.59-1.31,1.59l-1.56,0c-1.36,0-1.76-1-1.76-3.1h7.15v-2A3.48,3.48,0,0,0,186.28,347.38Zm0.51,4.08h-4.17c0-1.54.75-2.33,2.47-2.32,1.56,0,2.13.72,2.13,2.31h-0.43Z" transform="translate(-101.15 -247.82)"/><path d="M203.3,348.27l-0.06-.05-0.29-.22-0.28-.16-0.14-.07-0.27-.11-0.18-.06-0.27-.07-0.2,0-0.47-.06-3.18,0a3.4,3.4,0,0,0-2.17.81,2.25,2.25,0,0,0-.23.27l0,0a2.94,2.94,0,0,0-.46,2h2.73c0-.94.64-1.42,2-1.41,1.12,0,2,.36,2,1.3v2.28a3.81,3.81,0,0,0-2.12-1.07,6.29,6.29,0,0,0-2.08-.06c-2,.4-3,1.55-2.94,3.46s1.43,2.87,4,3a3.52,3.52,0,0,0,3.09-1.23v1.08h2.58v-7.21a4.56,4.56,0,0,0-.16-1A3.25,3.25,0,0,0,203.3,348.27ZM201.71,355v0a1.41,1.41,0,0,1-.53,1,2.4,2.4,0,0,1-.74.32,6.76,6.76,0,0,1-1.21.16,2,2,0,0,1-1.93-1s0-.06,0-0.1a1.38,1.38,0,0,1,.25-1.31,2.31,2.31,0,0,1,1.36-.67,3,3,0,0,1,2.51.57,1.22,1.22,0,0,1,.33.89S201.71,354.91,201.71,355Z" transform="translate(-101.15 -247.82)"/><polygon points="173.07 109.89 176.87 109.89 177.92 105.75 174.12 105.75 173.07 109.89"/><path d="M256.72,346c0.26-4.42-5-4.1-5.12-4.1h-7.32l-3.51,15.88h4l1.26-5.84h2.45s2.29,4.3,2.82,5.81h4.76c-1.89-3-2.38-4.3-3.81-6.68C255,350,256.54,349.21,256.72,346Zm-7.06,3.08h-2.8l1-4.23h2.92C253.5,344.87,252.26,349.06,249.66,349.06Z" transform="translate(-101.15 -247.82)"/><polygon points="122.22 94.07 120.93 99.93 114.97 99.92 116.31 94.07 112.12 94.07 108.56 109.91 112.69 109.91 114.27 102.98 120.2 102.98 118.63 109.91 122.75 109.91 126.38 94.07 122.22 94.07"/><polygon points="132.9 97.01 140.15 97.02 140.82 94.09 129.41 94.07 125.85 109.97 137.19 109.97 137.9 106.88 130.62 106.85 131.41 102.96 138.47 102.96 139.12 99.88 132.21 99.9 132.9 97.01"/><path d="M266.13,341.67a9.45,9.45,0,0,0-3.3,1,10.65,10.65,0,0,0-2.77,2.22,11.83,11.83,0,0,0-2.48,4.79,9.11,9.11,0,0,0,0,4,5.67,5.67,0,0,0,1.79,3,8.68,8.68,0,0,0,.84.59,7.53,7.53,0,0,0,3.92.87c0.4,0,.79,0,1.17,0a10.43,10.43,0,0,0,3.16-.8,8.91,8.91,0,0,0,.8-0.41l0.05,0a9.59,9.59,0,0,0,3.2-3.24A13,13,0,0,0,273.9,350a0.63,0.63,0,0,0,0-.08C275.34,341.24,267.55,341.54,266.13,341.67Zm3.7,8.11a10.76,10.76,0,0,1-1.21,3,4.73,4.73,0,0,1-3.48,2.31,3,3,0,0,1-3.22-1.78l0-.1,0-.07a6.41,6.41,0,0,1-.15-3.24h0c0-.12,0-0.24.07-0.35a8.13,8.13,0,0,1,2.27-3.77,4.43,4.43,0,0,1,1.24-.78h0l0.14-.05a6.34,6.34,0,0,1,.69-0.18,3.44,3.44,0,0,1,2.19.36,3.32,3.32,0,0,1,1.59,2.36A5.52,5.52,0,0,1,269.83,349.77Z" transform="translate(-101.15 -247.82)"/></svg>