<svg id="EXPORT" xmlns="http://www.w3.org/2000/svg" width="578.406" height="114.625" viewBox="0 0 578.406 114.625">
  <defs>
    <style>
      .cls-1, .cls-4 {
        fill: #fff;
      }

      .cls-1 {
        fill-rule: evenodd;
      }

      .cls-2 {
        fill: #249dd4;
      }

      .cls-3 {
        fill: #1d5fa7;
      }
    </style>
  </defs>
  <path id="GoPro_VR_copy" data-name="GoPro VR copy" class="cls-1" d="M484.2,362.089h-2.181V248.371H484.2V362.089Zm72.788-30.5L524.63,273.564H514.491l36.964,66.051h11.059l36.966-66.051H589.34Zm121.748-20.928c2.171-1.673,6.663-3.7,6.663-13v-5.388c0-12.4-3.042-18.7-22.3-18.7H609.719v66.051h9.033v-26.09H652.06l21.761,25.913h11.2l-21.76-25.91a54.3,54.3,0,0,0,9.651-.717c3.455-.795,4.731-1.311,5.82-2.153m-59.981-29.792h41.11c13.276,0,16.5,2.37,16.5,9.759v6.022c0,6.934-4.24,9.579-14.289,9.579H618.752v-25.36Zm-166.176,14.7h1.179a1.745,1.745,0,0,0,.587-0.077,0.616,0.616,0,0,0,.319-0.241,0.647,0.647,0,0,0,.106-0.369,0.582,0.582,0,0,0-.21-0.473,0.985,0.985,0,0,0-.674-0.188h-1.307v1.348m-0.549,2.28v-4.077h1.836a2.474,2.474,0,0,1,.84.107,0.965,0.965,0,0,1,.464.389,1.126,1.126,0,0,1,.166.614,1,1,0,0,1-.285.731,1.419,1.419,0,0,1-.88.379,1.254,1.254,0,0,1,.33.2,2.873,2.873,0,0,1,.457.543l0.722,1.11h-0.691l-0.544-.852c-0.162-.244-0.294-0.432-0.4-0.556a1.147,1.147,0,0,0-.285-0.278,0.682,0.682,0,0,0-.245-0.1,1.952,1.952,0,0,0-.305-0.021h-0.635v1.811h-0.549Zm1.482-5.472a3.677,3.677,0,1,1-3.715,3.682,3.7,3.7,0,0,1,3.715-3.682m0-.637a4.315,4.315,0,1,1-4.36,4.319,4.339,4.339,0,0,1,4.36-4.319m-273.243-7.754v-9.257c0-2.008-1.256-3-3.771-3-1.685,0-3-.01-3.919.077H154.415a3.757,3.757,0,0,0,0,7.51h15.1v4.979c0,1.5-1.651,2.665-4.943,3.54a28.815,28.815,0,0,1-7.407,1.04H132.876q-14.532,0-14.534-4.768V260.672q0-4.763,17.344-4.757c0.348,0,.827.01,1.406,0.023s1.242,0.027,1.983.051a1.334,1.334,0,0,0,.48.04h2.962c2.612,0,3.92-1.167,3.92-3.487s-1.308-3.466-3.92-3.466h-9.688a53.744,53.744,0,0,0-16.041,2.269q-9.2,3.029-9.192,9.344v23.453q0,6.572,9.011,9.565a51.409,51.409,0,0,0,16.139,2.193h24.4a41.736,41.736,0,0,0,15.129-2.431q7.986-3.114,7.989-9.488m177.456,8.673V270.268c0-3.155,3.872-4.657,11.705-4.657h1.89a16.425,16.425,0,0,0,1.787.081c2.972,0,4.561-1.023,4.561-3.075q0-3.781-3.867-3.778c-7.542,0-13.2.466-16.966,1.572-6.252,1.734-9.328,4.966-9.328,9.857v22.386q0,3.072,3.575,3.075a24.289,24.289,0,0,0,4.462-.235,2.739,2.739,0,0,0,2.181-2.84m-89.263,2.9a23.2,23.2,0,0,0,4.673-.238,2.657,2.657,0,0,0,2.29-2.837V278.75h37.484a53.408,53.408,0,0,0,16.5-2.2c5.865-2.133,8.845-5.522,8.845-10.172v-7.333c0-3.708-3.076-6.548-9.345-8.439a55.013,55.013,0,0,0-15.51-1.974h-44.94c-2.483,0-3.774,1.026-3.774,3v40.846c0,2.049,1.291,3.075,3.774,3.075m6.963-39.981H313.5c9.344,0,14.021,1.418,14.021,4.1v6.39c0,3.782-4.677,5.757-14.021,5.757H275.422V255.57Zm-43.985,3.265H213.322c-15.08,0-22.621,3.863-22.621,11.748v13.4c0,7.885,7.541,11.744,22.621,11.744h18.115c15.078,0,22.617-3.859,22.617-11.744v-13.4c0-7.885-7.539-11.748-22.617-11.748m12.433,18.447v7.242c0,2.913-4.3,4.342-12.733,4.342l-8.276,0v0h-0.479v0l-8.762,0c-8.434,0-12.731-1.429-12.731-4.342V270.043c0-2.917,4.3-4.345,12.731-4.345l8.762,0v0h0.479v0l8.276,0c8.434,0,12.733,1.428,12.733,4.345v7.239Zm181.561-18.443H407.319c-15.084,0-22.621,3.862-22.621,11.747v13.395c0,7.885,7.537,11.744,22.621,11.744h18.112c15.078,0,22.617-3.859,22.617-11.744V270.586c0-7.885-7.539-11.747-22.617-11.747m12.432,18.443v7.242c0,2.913-4.3,4.342-12.727,4.342l-8.278,0v0h-0.482v0l-8.759,0c-8.437,0-12.734-1.429-12.734-4.342V270.043c0-2.913,4.3-4.341,12.734-4.341l8.759,0v0h0.482v0l8.278,0c8.432,0,12.727,1.428,12.727,4.341v7.239Z" transform="translate(-107 -248.375)"/>
  <rect class="cls-2" y="58.625" width="74" height="56"/>
  <rect id="Rectangle_1_copy" data-name="Rectangle 1 copy" class="cls-2" x="89" y="58.625" width="74" height="56"/>
  <rect id="Rectangle_1_copy_2" data-name="Rectangle 1 copy 2" class="cls-3" x="178" y="58.625" width="74" height="56"/>
  <rect id="Rectangle_1_copy_3" data-name="Rectangle 1 copy 3" class="cls-4" x="267" y="58.625" width="74" height="56"/>
</svg>
