<svg xmlns="http://www.w3.org/2000/svg" viewBox="0 0 411.94 78.41"><defs><style>.cls-1{fill:#fff;}.cls-2{fill:#00aeec;}.cls-3{fill:#0060a7;}</style></defs><title>Fichier 1</title><g id="Calque_2" data-name="Calque 2"><g id="Layer_1" data-name="Layer 1"><rect class="cls-1" x="274.36" y="0.69" width="1.48" height="77.73"/><polygon class="cls-1" points="325.08 57.56 303.19 17.9 296.33 17.9 321.34 63.05 328.82 63.05 353.82 17.9 346.96 17.9 325.08 57.56"/><path class="cls-1" d="M403.5,44.73c2.34-.54,3.2-.9,3.94-1.47,1.47-1.14,4.51-2.53,4.51-8.89V30.69c0-8.48-2.06-12.78-15.09-12.78h-36.1V63h6.11V45.22h22.53l14.72,17.71h7.58L397,45.22A36.4,36.4,0,0,0,403.5,44.73ZM366.86,22.89h27.81c9,0,11.16,1.62,11.16,6.67v4.12c0,4.74-2.87,6.55-9.66,6.55H366.86Z"/><g id="R"><path class="cls-1" d="M251.47,31.82A3.17,3.17,0,1,0,254.64,35,3.17,3.17,0,0,0,251.47,31.82Zm0,5.87a2.7,2.7,0,1,1,2.7-2.7A2.7,2.7,0,0,1,251.47,37.69Z"/><path class="cls-1" d="M252.19,35.09a.91.91,0,0,0-.24-.15,1.06,1.06,0,0,0,.64-.28.75.75,0,0,0,.21-.54.83.83,0,0,0-.12-.45.68.68,0,0,0-.34-.28,1.71,1.71,0,0,0-.61-.08h-1.34v3h.4V35h.68a.59.59,0,0,1,.18.08.91.91,0,0,1,.2.2c.07.09.17.23.29.41l.4.63h.5l-.52-.82A2.1,2.1,0,0,0,252.19,35.09Zm-.54-.46h-.86v-1h1a.72.72,0,0,1,.49.14.44.44,0,0,1,.15.35.49.49,0,0,1-.08.27.45.45,0,0,1-.23.18A1.26,1.26,0,0,1,251.64,34.63Z"/><path class="cls-1" d="M90,34.46c11,0,16.44-2.83,16.44-8.63V16c0-5.79-5.48-8.63-16.44-8.63H76.86c-11,0-16.44,2.84-16.44,8.63v9.84c0,5.79,5.48,8.63,16.44,8.63Zm0-5H76.86c-6.13,0-9-1.05-9-3.19V15.6c0-2.14,2.91-3.19,9-3.19H90c6.13,0,9,1.05,9,3.19V26.23c0,2.14-2.91,3.19-9,3.19"/><path class="cls-1" d="M231.06,34.46c11,0,16.44-2.83,16.44-8.63V16c0-5.79-5.48-8.63-16.44-8.63H217.89c-11,0-16.44,2.84-16.44,8.63v9.84c0,5.79,5.48,8.63,16.44,8.63Zm0-5H217.89c-6.13,0-9-1.05-9-3.19V15.6c0-2.14,2.91-3.19,9-3.19h13.17c6.13,0,9,1.05,9,3.19V26.23c0,2.14-2.91,3.19-9,3.19"/><path class="cls-1" d="M52.83,25.71v-6.8c0-1.47-.91-2.14-2.74-2.14H34a2.76,2.76,0,0,0,0,5.51H45v3.66c0,1.1-1.43,2.16-3.82,2.8a18.61,18.61,0,0,1-5.17.56H18.37q-10.56,0-10.56-3.5V8.52C7.81,6.19,12,5.1,20.42,5.1h5q2.85,0,2.85-2.56T25.39,0h-7A35.88,35.88,0,0,0,6.68,1.67C2.71,3,0,5.43,0,8.53v17.3q0,4.83,6.55,7a37,37,0,0,0,11.73,1.61H36a30,30,0,0,0,11-1.79Q52.83,30.39,52.83,25.71Z"/><path class="cls-1" d="M160.89,1.45A39.64,39.64,0,0,0,149.61,0H116.43a2.23,2.23,0,0,0-2.23,2.23v30c0,1.51.94,2.26,2.74,2.26h2.32c1.81,0,2.74-.75,2.74-2.26V22.12h27.61a36.06,36.06,0,0,0,11.64-1.61c4.27-1.57,6.44-4.06,6.44-7.47V7.65C167.68,4.92,165.44,2.84,160.89,1.45Zm-1,12c0,2.78-3.47,3.59-10.26,3.59H122V5.1h27.61c6.79,0,10.26.81,10.26,3.59Z"/><path class="cls-1" d="M193.53,7.37c-6.81,0-9.69-.12-13.73,1.53-3.79,1.56-5.41,4.29-5.41,6.81v16.6c0,1.44.89,2.15,2.61,2.15h2.21c1.72,0,2.61-.71,2.61-2.15V15.71c0-2.32,2.87-3.3,8.57-3.3h3.18c1.86,0,2.74-.85,2.74-2.52s-.93-2.52-2.79-2.52"/><rect class="cls-2" y="42.95" width="53.7" height="35.16"/><rect class="cls-2" x="64.6" y="42.95" width="53.7" height="35.16"/><rect class="cls-3" x="129.2" y="42.95" width="53.7" height="35.16"/><rect class="cls-1" x="193.79" y="42.95" width="53.7" height="35.16"/></g></g></g></svg>