<svg xmlns="http://www.w3.org/2000/svg" xmlns:xlink="http://www.w3.org/1999/xlink" preserveAspectRatio="xMidYMid" width="652.812" height="169.562" viewBox="0 0 652.812 169.562">
  <defs>
    <style>
      .cls-1 {
        fill: #00adef;
      }

      .cls-1, .cls-2, .cls-3 {
        fill-rule: evenodd;
      }

      .cls-2 {
        fill: #0060ae;
      }

      .cls-3 {
        fill: #fff;
      }
    </style>
  </defs>
  <g>
    <path d="M368.846,169.558 L368.846,110.952 L445.077,110.952 L445.077,169.558 L368.846,169.558 ZM275.848,110.945 L352.074,110.945 L352.074,169.551 L275.848,169.551 L275.848,110.945 Z" class="cls-1"/>
    <path d="M461.850,169.548 L538.069,169.548 L538.069,110.942 L461.850,110.942 L461.850,169.548 Z" class="cls-2"/>
    <path d="M554.841,169.561 L631.082,169.561 L631.082,110.955 L554.841,110.955 L554.841,169.561 Z" class="cls-3"/>
    <path d="M644.686,97.596 C640.202,97.596 636.562,93.937 636.562,89.429 C636.562,84.918 640.202,81.263 644.686,81.263 C649.169,81.263 652.810,84.918 652.810,89.429 C652.810,93.937 649.169,97.596 644.686,97.596 ZM644.686,82.468 C640.864,82.468 637.767,85.589 637.767,89.429 C637.767,93.271 640.864,96.385 644.686,96.385 C648.501,96.385 651.611,93.271 651.611,89.429 C651.611,85.589 648.501,82.468 644.686,82.468 ZM645.916,89.310 C646.191,89.436 646.397,89.568 646.534,89.687 C646.834,89.969 647.115,90.311 647.389,90.713 L648.732,92.819 L647.439,92.819 L646.422,91.212 C646.116,90.748 645.875,90.402 645.691,90.158 C645.491,89.900 645.310,89.725 645.160,89.624 C645.017,89.536 644.867,89.467 644.698,89.429 C644.586,89.411 644.392,89.398 644.130,89.398 L642.950,89.398 L642.950,92.819 L641.919,92.819 L641.919,85.103 L645.348,85.103 C646.028,85.103 646.559,85.167 646.909,85.312 C647.271,85.450 647.552,85.694 647.777,86.044 C647.983,86.385 648.089,86.780 648.089,87.201 C648.089,87.747 647.920,88.218 647.558,88.594 C647.205,88.965 646.659,89.204 645.916,89.310 ZM646.640,86.308 C646.378,86.077 645.953,85.952 645.385,85.952 L642.950,85.952 L642.950,88.507 L645.142,88.507 C645.607,88.507 645.960,88.457 646.234,88.362 C646.496,88.268 646.703,88.111 646.834,87.898 C646.971,87.684 647.034,87.458 647.034,87.201 C647.034,86.837 646.909,86.544 646.640,86.308 ZM592.327,89.141 L588.480,89.141 L576.347,89.141 L575.448,89.141 L563.902,89.141 L558.569,89.141 C530.463,89.141 516.413,81.834 516.413,66.905 L516.413,54.226 L516.413,41.547 C516.413,26.621 530.463,19.312 558.569,19.312 L563.902,19.312 L575.448,19.312 L576.347,19.312 L588.480,19.312 L592.327,19.312 C620.426,19.312 634.476,26.621 634.476,41.547 L634.476,54.226 L634.476,66.905 C634.476,81.834 620.426,89.141 592.327,89.141 ZM615.493,54.226 L615.493,40.520 C615.493,35.006 607.488,32.300 591.771,32.300 L576.347,32.307 L576.347,32.300 L575.448,32.300 L575.448,32.307 L559.125,32.300 C543.408,32.300 535.396,35.006 535.396,40.520 L535.396,54.226 L535.396,67.931 C535.396,73.446 543.408,76.151 559.125,76.151 L575.448,76.145 L575.448,76.151 L576.347,76.151 L576.347,76.145 L591.771,76.151 C607.488,76.151 615.493,73.446 615.493,67.931 L615.493,54.226 ZM494.808,32.286 C494.058,32.286 492.959,32.286 491.480,32.139 L487.958,32.139 C473.358,32.139 466.146,34.976 466.146,40.947 L466.146,83.328 C466.146,86.165 464.672,87.948 462.075,88.701 C460.963,88.996 458.197,89.141 453.763,89.141 C449.324,89.141 447.100,87.201 447.100,83.328 L447.100,40.947 C447.100,31.691 452.833,25.572 464.485,22.294 C471.510,20.194 482.051,19.311 496.100,19.311 C500.908,19.311 503.313,21.693 503.313,26.472 C503.313,30.351 500.346,32.286 494.808,32.286 ZM382.621,57.008 L312.765,57.008 L312.765,82.987 C312.765,85.820 311.468,87.609 308.500,88.356 C307.765,88.657 304.797,88.808 299.788,88.808 C295.162,88.808 292.758,86.862 292.758,82.987 L292.758,5.665 C292.758,1.930 295.162,-0.011 299.788,-0.011 L383.545,-0.011 C394.848,-0.011 404.489,1.332 412.450,3.724 C424.128,7.304 429.866,12.677 429.866,19.700 L429.866,33.578 C429.866,42.385 424.308,48.804 413.375,52.837 C404.851,55.668 394.666,57.008 382.621,57.008 ZM409.859,20.889 C409.859,15.814 401.151,13.127 383.732,13.127 L312.765,13.127 L312.765,43.876 L383.732,43.876 C401.151,43.876 409.859,40.145 409.859,32.984 L409.859,20.889 ZM230.795,89.141 L226.948,89.141 L214.815,89.141 L213.918,89.141 L202.369,89.141 L197.036,89.141 C168.930,89.141 154.883,81.834 154.883,66.905 L154.883,54.226 L154.883,41.547 C154.883,26.621 168.930,19.312 197.036,19.312 L202.369,19.312 L213.918,19.312 L214.815,19.312 L226.948,19.312 L230.795,19.312 C258.895,19.312 272.943,26.621 272.943,41.547 L272.943,54.226 L272.943,66.905 C272.943,81.834 258.895,89.141 230.795,89.141 ZM253.962,54.226 L253.962,40.520 C253.962,35.006 245.956,32.300 230.239,32.300 L214.815,32.307 L214.815,32.300 L213.918,32.300 L213.918,32.307 L197.593,32.300 C181.876,32.300 173.863,35.006 173.863,40.520 L173.863,54.226 L173.863,67.931 C173.863,73.446 181.876,76.151 197.593,76.151 L213.918,76.145 L213.918,76.151 L214.815,76.151 L214.815,76.145 L230.239,76.151 C245.956,76.151 253.962,73.446 253.962,67.931 L253.962,54.226 ZM171.554,130.590 L155.856,130.572 L154.363,136.868 L169.335,136.824 L167.919,143.528 L152.634,143.528 L150.920,152.009 L166.677,152.059 L165.154,158.789 L140.581,158.789 L148.300,124.175 L173.005,124.206 L171.554,130.590 ZM124.935,158.670 L128.349,143.579 L115.500,143.566 L112.070,158.670 L103.122,158.670 L110.846,124.175 L119.919,124.175 L117.022,136.912 L129.917,136.925 L132.717,124.175 L141.730,124.175 L133.861,158.670 L124.935,158.670 ZM92.349,89.467 L46.870,89.467 C34.938,89.467 24.928,88.073 16.795,85.319 C5.611,81.540 0.004,75.506 0.004,67.209 L0.004,22.817 C0.004,14.841 5.703,8.954 17.137,5.132 C26.160,2.275 36.115,0.832 47.027,0.832 L65.081,0.832 C69.953,0.832 72.387,3.014 72.387,7.391 C72.387,11.789 69.953,13.997 65.081,13.997 L59.566,13.997 C59.038,13.997 58.735,13.978 58.675,13.920 C57.284,13.874 56.052,13.849 54.975,13.823 C53.894,13.800 53.006,13.779 52.357,13.779 C30.814,13.779 20.026,16.776 20.026,22.784 L20.026,67.127 C20.026,73.144 29.059,76.153 47.116,76.153 L92.385,76.153 C96.698,76.153 101.317,75.506 106.190,74.189 C112.319,72.531 115.397,70.313 115.397,67.485 L115.397,58.055 L87.257,58.055 C83.544,58.055 80.500,54.860 80.500,50.952 C80.500,47.043 83.544,43.846 87.257,43.846 L121.101,43.846 C122.812,43.675 125.257,43.691 128.407,43.691 C133.090,43.691 135.431,45.577 135.431,49.380 L135.431,66.909 C135.431,74.957 130.466,80.942 120.549,84.866 C112.846,87.917 103.447,89.467 92.349,89.467 ZM36.713,134.941 C36.579,139.322 35.041,141.752 32.153,142.304 C35.831,143.503 37.305,146.215 37.305,150.352 C37.305,156.228 34.695,158.776 29.654,158.776 L11.180,158.776 L11.180,126.642 L28.131,126.642 C33.544,126.988 36.399,129.737 36.713,134.941 ZM17.319,153.717 L27.134,153.717 C29.913,153.767 31.261,152.354 31.237,149.530 C31.091,146.975 29.913,145.506 27.699,145.048 L17.319,145.041 L17.319,153.717 ZM17.319,132.104 L17.319,140.245 L26.485,140.255 C29.077,140.296 30.331,138.984 30.309,136.403 C30.178,134.056 29.068,132.518 27.006,132.097 L17.319,132.104 ZM46.774,136.121 L52.378,136.121 C56.551,136.121 59.959,139.498 59.959,143.635 L59.959,147.888 L44.470,147.888 C44.470,152.505 45.346,154.646 48.287,154.646 C49.367,154.646 50.511,154.586 51.657,154.586 C53.591,154.586 54.489,153.698 54.489,151.130 L59.959,151.130 L59.959,151.268 C59.959,155.393 56.551,158.770 52.378,158.770 L46.774,158.770 C42.600,158.770 39.184,155.393 39.184,151.268 L39.184,143.635 C39.184,139.498 42.600,136.121 46.774,136.121 ZM53.485,145.010 L54.425,145.003 C54.425,141.532 53.192,139.869 49.809,139.963 C46.069,139.938 44.450,141.658 44.450,145.010 L53.485,145.010 ZM76.800,145.079 C78.604,144.797 80.314,145.016 81.306,145.204 C83.351,145.638 84.970,146.447 85.894,147.527 L85.894,142.562 C85.894,140.515 84.070,139.775 81.654,139.724 C78.731,139.712 77.283,140.747 77.344,142.794 L71.425,142.794 C71.312,141.055 71.638,139.630 72.417,138.525 C72.432,138.503 72.449,138.488 72.465,138.469 C72.612,138.262 72.788,138.073 72.963,137.891 C74.393,136.498 76.484,136.171 77.673,136.121 L84.550,136.190 C84.905,136.215 85.244,136.259 85.577,136.322 C85.727,136.347 85.864,136.378 86.005,136.416 C86.209,136.460 86.404,136.510 86.599,136.567 C86.730,136.611 86.859,136.655 86.986,136.705 C87.185,136.780 87.374,136.856 87.563,136.950 C87.667,136.993 87.776,137.037 87.875,137.094 C88.082,137.207 88.281,137.333 88.479,137.452 C88.704,137.609 88.918,137.772 89.110,137.942 L89.250,138.054 C90.223,138.952 90.766,140.001 91.062,140.823 C91.081,140.886 91.376,141.871 91.422,143.095 L91.422,143.767 L91.422,158.807 L91.379,158.807 L85.925,158.807 L85.833,158.807 L85.833,156.447 C84.259,158.387 82.041,159.247 79.134,159.115 C73.542,158.877 70.643,156.714 70.439,152.624 C70.259,148.462 72.382,145.958 76.800,145.079 ZM76.157,153.428 C76.178,153.509 76.209,153.566 76.235,153.641 C76.928,155.556 79.281,155.832 80.406,155.845 C81.187,155.826 82.054,155.713 83.039,155.509 C83.496,155.380 84.150,155.167 84.640,154.815 C85.276,154.313 85.666,153.616 85.788,152.706 C85.791,152.681 85.794,152.662 85.797,152.631 C85.810,152.524 85.806,152.405 85.812,152.298 C85.827,151.702 85.681,150.961 85.094,150.358 C83.978,149.253 82.172,148.827 79.659,149.115 C78.738,149.260 77.551,149.630 76.702,150.565 C76.053,151.337 75.867,152.295 76.157,153.428 ZM193.889,124.169 C194.234,124.169 205.536,123.453 204.981,133.089 C204.587,140.101 201.335,141.890 195.369,144.143 C198.468,149.323 199.535,152.097 203.624,158.682 L193.318,158.682 C192.172,155.399 187.232,146.027 187.207,146.027 L181.926,146.027 L181.926,146.039 L181.894,146.039 L179.172,158.757 L170.419,158.757 L178.028,124.175 L193.889,124.169 ZM189.682,139.787 C195.311,139.787 197.995,130.666 192.144,130.572 L185.814,130.572 L183.614,139.787 L189.682,139.787 ZM212.224,130.609 C213.175,129.523 215.290,127.383 218.219,125.769 C219.368,125.167 221.953,124.037 225.356,123.685 C228.434,123.409 245.318,122.756 242.236,141.758 C242.224,141.821 242.217,141.871 242.197,141.928 C241.485,144.922 240.404,147.458 239.152,149.630 C237.888,151.708 235.659,154.614 232.214,156.679 C232.169,156.705 232.130,156.730 232.095,156.755 C231.544,157.075 230.963,157.376 230.353,157.653 C226.912,159.159 223.606,159.379 223.508,159.385 C222.682,159.448 221.842,159.467 220.972,159.467 C217.376,159.467 214.539,158.826 212.480,157.565 C211.879,157.194 211.256,156.755 210.652,156.272 C208.385,154.319 207.305,151.871 206.787,149.812 C206.262,147.339 206.073,144.326 206.854,141.043 C207.822,137.006 209.840,133.472 212.224,130.609 ZM216.097,148.557 C216.116,148.607 216.128,148.651 216.144,148.701 C216.177,148.776 216.208,148.858 216.241,148.927 C217.001,150.772 218.843,153.039 223.219,152.794 C224.725,152.637 228.146,151.833 230.753,147.772 C231.800,146.014 232.810,143.736 233.380,141.338 C233.853,139.366 233.837,137.753 233.563,136.215 C233.093,133.980 231.881,132.562 231.577,132.223 C231.145,131.809 230.656,131.413 230.119,131.080 C228.127,129.963 226.062,130.183 225.381,130.302 C224.896,130.402 224.393,130.522 223.888,130.685 C223.789,130.723 223.683,130.760 223.584,130.798 C223.559,130.804 223.533,130.810 223.514,130.823 C222.491,131.231 221.586,131.865 220.829,132.518 C219.432,133.704 218.219,135.619 217.852,136.221 C217.052,137.653 216.333,139.015 215.921,140.738 C215.860,140.992 215.814,141.250 215.765,141.507 L215.765,141.501 C215.765,141.501 214.884,145.273 216.097,148.557 ZM253.393,149.599 L251.120,158.632 L242.884,158.632 L245.154,149.599 L253.393,149.599 Z" class="cls-3"/>
  </g>
</svg>
