<svg id="Layer_1" data-name="Layer 1" xmlns="http://www.w3.org/2000/svg" viewBox="0 0 20 20"><defs><style>.cls-1{fill:#707377;}</style></defs><title>accidental-damage</title><path class="cls-1" d="M414,1600h-2v-3h2v3Zm-6.78-.12-6.59-6.29,6.18-5.91,1.14,3,2.82-.06,1.57,4.34Zm-3.69-6.29,3.69,3.52,2.8-2.67-0.64-1.76-2.8.06-0.57-1.52Zm14.76,6.11-3-3,1.41-1.41,3,3ZM420,1594h-3v-2h3v2Zm-6.81-1.54-1.14-3-2.82.06-1.57-4.34,5.28-5,6.59,6.29Zm0.23-5.05,0.57,1.52,2.64-2.52-3.69-3.52-3,2.83,0.64,1.76ZM403,1588h-3v-2h3v2Zm0.27-3.31-3-3,1.41-1.41,3,3ZM408,1583h-2v-3h2v3Z" transform="translate(-400 -1580)"/></svg>