<svg id="Layer_1" data-name="Layer 1" xmlns="http://www.w3.org/2000/svg" viewBox="0 0 23 21"><defs><style>.cls-1{fill:#707377;}</style></defs><title>add-photos-and-videos</title><path class="cls-1" d="M95,960H79V946H95v14Zm-14-2H93V948H81v10Z" transform="translate(-79 -939)"/><polygon class="cls-1" points="6 8 4 8 4 3 13 3 13 5 6 5 6 8"/><polygon class="cls-1" points="20 17 15 17 15 15 18 15 18 10 20 10 20 17"/><path class="cls-1" d="M82,956c1.41-3.2,2.71-7.13,4.17-4.88s1.46,2.1,2.5,1.22,2.47,0,3.33,3.66H82Z" transform="translate(-79 -939)"/><rect class="cls-1" x="18" width="2" height="8"/><rect class="cls-1" x="15" y="3" width="8" height="2"/></svg>