<svg id="Layer_1" data-name="Layer 1" xmlns="http://www.w3.org/2000/svg" viewBox="0 0 22 20.01"><defs><style>.cls-1{fill:#707377;}</style></defs><title>alert-spinner</title><polygon class="cls-1" points="9.41 8.01 7.99 6.6 10.59 4.01 7.99 1.41 9.41 0 13.41 4.01 9.41 8.01"/><path class="cls-1" d="M726,1357a7,7,0,0,1,0-14h4v2h-4a5,5,0,0,0,0,10v2Z" transform="translate(-719 -1339.99)"/><polygon class="cls-1" points="12.59 20.01 8.59 16.01 12.59 12 14.01 13.41 11.41 16.01 14.01 18.6 12.59 20.01"/><path class="cls-1" d="M734,1357h-4v-2h4a5,5,0,0,0,0-10v-2A7,7,0,0,1,734,1357Z" transform="translate(-719 -1339.99)"/></svg>