<svg id="Layer_1" data-name="Layer 1" xmlns="http://www.w3.org/2000/svg" viewBox="0 0 20 20.11"><defs><style>.cls-1{fill:#707377;}</style></defs><title>avatar</title><path class="cls-1" d="M250,1432.11a6.11,6.11,0,1,1,6.11-6.11A6.12,6.12,0,0,1,250,1432.11Zm0-10.22a4.11,4.11,0,1,0,4.11,4.11A4.12,4.12,0,0,0,250,1421.89Z" transform="translate(-240 -1419.89)"/><path class="cls-1" d="M260,1440H240v-1a10,10,0,0,1,7-9.52l0.6,1.91a8,8,0,0,0-5.51,6.62h15.88a8,8,0,0,0-5.51-6.62l0.6-1.91a10,10,0,0,1,7,9.52v1Z" transform="translate(-240 -1419.89)"/></svg>