<svg id="Layer_1" data-name="Layer 1" xmlns="http://www.w3.org/2000/svg" viewBox="0 0 24 17"><defs><style>.cls-1{fill:#707377;}</style></defs><title>bike-scale</title><path class="cls-1" d="M87.47,1191.77l-1.5-6-1.94.48,0.77,3.1A4.92,4.92,0,0,0,83,1189a5,5,0,1,0,5,5A4.92,4.92,0,0,0,87.47,1191.77ZM83,1197a3,3,0,1,1,3-3,0.28,0.28,0,0,1,0,.09A3,3,0,0,1,83,1197Z" transform="translate(-78 -1182)"/><path class="cls-1" d="M97,1189c-0.14,0-.27,0-0.41,0l-2-7H90v2h3.12l1.56,5.6A5,5,0,1,0,97,1189Zm0,8a3,3,0,0,1-1.77-5.41l0.56,2,1.93-.54L97.14,1191A3,3,0,0,1,97,1197Z" transform="translate(-78 -1182)"/><rect class="cls-1" x="5" y="3" width="5" height="2"/><rect class="cls-1" x="84.8" y="1187.5" width="11.4" height="2" transform="translate(-788.64 -876.05) rotate(-37.88)"/></svg>