<svg id="Layer_1" data-name="Layer 1" xmlns="http://www.w3.org/2000/svg" viewBox="0 0 20 20"><defs><style>.cls-1{fill:#707377;}</style></defs><title>brightness</title><path class="cls-1" d="M811,720h-2v-3h2v3Zm5.36-2.22-2.12-2.12,1.41-1.41,2.12,2.12Zm-12.73,0-1.41-1.41,2.12-2.12,1.41,1.41ZM810,715a5,5,0,1,1,5-5A5,5,0,0,1,810,715Zm0-8a3,3,0,1,0,3,3A3,3,0,0,0,810,707Zm10,4h-3v-2h3v2Zm-17,0h-3v-2h3v2Zm12.66-5.24-1.41-1.41,2.12-2.12,1.41,1.41Zm-11.31,0-2.12-2.12,1.41-1.41,2.12,2.12ZM811,703h-2v-3h2v3Z" transform="translate(-800 -700)"/></svg>