<svg id="Layer_1" data-name="Layer 1" xmlns="http://www.w3.org/2000/svg" viewBox="0 0 16 20"><defs><style>.cls-1{fill:#707377;}</style></defs><title>camera-busy</title><path class="cls-1" d="M498,640H482v-1a8.41,8.41,0,0,1,4-7.09,2,2,0,0,0,1-1.7V630h2v0.21a4,4,0,0,1-1.86,3.37,6.52,6.52,0,0,0-3.06,4.41h11.85a6.52,6.52,0,0,0-3.06-4.41,4,4,0,0,1-1.86-3.37V630h2v0.21a2,2,0,0,0,1,1.7,8.41,8.41,0,0,1,4,7.09v1Z" transform="translate(-482 -620)"/><path class="cls-1" d="M493,630h-2v-0.21a4,4,0,0,1,1.86-3.37,6.52,6.52,0,0,0,3.06-4.41H484.08a6.52,6.52,0,0,0,3.06,4.41,4,4,0,0,1,1.86,3.37V630h-2v-0.21a2,2,0,0,0-1-1.7,8.41,8.41,0,0,1-4-7.09v-1h16v1a8.41,8.41,0,0,1-4,7.09,2,2,0,0,0-1,1.7V630Z" transform="translate(-482 -620)"/><path class="cls-1" d="M486.5,637c0-1.38,1.57-2.5,3.5-2.5s3.5,1.12,3.5,2.5" transform="translate(-482 -620)"/></svg>