<svg id="Layer_1" data-name="Layer 1" xmlns="http://www.w3.org/2000/svg" viewBox="0 0 20 26"><defs><style>.cls-1{fill:#707377;}</style></defs><title>camera-dl-firmware</title><path class="cls-1" d="M570,623a1,1,0,0,1-.71-0.29l-4-4,1.41-1.41,3.29,3.29,3.29-3.29,1.41,1.41-4,4A1,1,0,0,1,570,623Z" transform="translate(-560 -614)"/><path class="cls-1" d="M580,640H560V624h20v16Zm-18-2h16V626H562v12Z" transform="translate(-560 -614)"/><path class="cls-1" d="M574.5,635a5.5,5.5,0,1,1,5.5-5.5A5.51,5.51,0,0,1,574.5,635Zm0-9a3.5,3.5,0,1,0,3.5,3.5A3.5,3.5,0,0,0,574.5,626Z" transform="translate(-560 -614)"/><rect class="cls-1" x="4" y="14" width="3" height="3"/><rect class="cls-1" x="9" width="2" height="8"/></svg>