<svg id="Layer_1" data-name="Layer 1" xmlns="http://www.w3.org/2000/svg" viewBox="0 0 20 18.71"><defs><style>.cls-1{fill:#707377;}</style></defs><title>channels</title><path class="cls-1" d="M246,948.5l5,3-5,3" transform="translate(-240 -940.29)"/><path class="cls-1" d="M249,946a1,1,0,0,1-.71-0.29l-4-4,1.41-1.41,3.29,3.29,3.29-3.29,1.41,1.41-4,4A1,1,0,0,1,249,946Z" transform="translate(-240 -940.29)"/><path class="cls-1" d="M260,959H240V944h20v15Zm-18-2h16V946H242v11Z" transform="translate(-240 -940.29)"/><rect class="cls-1" x="14" y="4.71" width="2" height="13"/><rect class="cls-1" x="15" y="7.71" width="4" height="2"/></svg>