<svg id="Layer_1" data-name="Layer 1" xmlns="http://www.w3.org/2000/svg" viewBox="0 0 20 18"><defs><style>.cls-1{fill:#707377;}</style></defs><title>clip</title><path class="cls-1" d="M720,145a4,4,0,1,1,4,4A4,4,0,0,1,720,145Zm6,0a2,2,0,1,0-2,2A2,2,0,0,0,726,145Z" transform="translate(-720 -141)"/><path class="cls-1" d="M725.89,147.69l1.22-1.59,12.89,10h0a2,2,0,0,1-2.8.37Z" transform="translate(-720 -141)"/><path class="cls-1" d="M720,155a4,4,0,1,1,4,4A4,4,0,0,1,720,155Zm6,0a2,2,0,1,0-2,2A2,2,0,0,0,726,155Z" transform="translate(-720 -141)"/><path class="cls-1" d="M725.89,152.31l11.3-8.78a2,2,0,0,1,2.8.37h0l-12.89,10Z" transform="translate(-720 -141)"/></svg>