<svg id="Layer_1" data-name="Layer 1" xmlns="http://www.w3.org/2000/svg" viewBox="0 0 20 20"><defs><style>.cls-1{fill:#707377;}</style></defs><title>contact-sales-support</title><path class="cls-1" d="M734.09,1600a14.23,14.23,0,0,1-9.91-4.05,14.44,14.44,0,0,1-4.18-10.13v-0.41l3.82-3.82,5.18,5.18-2.22,2.22a5.65,5.65,0,0,0,4.23,4.23l2.22-2.22,5.18,5.18-3.82,3.82h-0.5ZM722,1586.23A12,12,0,0,0,733.77,1598l1.82-1.82-2.35-2.35-1.53,1.53-0.5-.07a7.66,7.66,0,0,1-6.5-6.5l-0.07-.5,1.53-1.53-2.35-2.35Zm18,3.77h-2a8,8,0,0,0-8-8v-2A10,10,0,0,1,740,1590Zm-4,0h-2a4,4,0,0,0-4-4v-2A6,6,0,0,1,736,1590Z" transform="translate(-720 -1580)"/></svg>