<svg id="Layer_1" data-name="Layer 1" xmlns="http://www.w3.org/2000/svg" viewBox="0 0 20 20"><defs><style>.cls-1{fill:#707377;}</style></defs><title>dronie</title><path class="cls-1" d="M170,1271a4,4,0,1,1,4-4A4,4,0,0,1,170,1271Zm0-6a2,2,0,1,0,2,2A2,2,0,0,0,170,1265Z" transform="translate(-160 -1260)"/><path class="cls-1" d="M176,1276H164v-1a6.8,6.8,0,0,1,4.14-6.51l0.7,1.88a4.66,4.66,0,0,0-2.74,3.63h7.82a4.66,4.66,0,0,0-2.74-3.63l0.7-1.87A6.8,6.8,0,0,1,176,1275v1Z" transform="translate(-160 -1260)"/><path class="cls-1" d="M175,1278" transform="translate(-160 -1260)"/><polygon class="cls-1" points="2 5 0 5 0 0 5 0 5 2 2 2 2 5"/><polygon class="cls-1" points="20 5 18 5 18 2 15 2 15 0 20 0 20 5"/><polygon class="cls-1" points="20 20 15 20 15 18 18 18 18 15 20 15 20 20"/><polygon class="cls-1" points="5 20 0 20 0 15 2 15 2 18 5 18 5 20"/></svg>