<svg id="Layer_1" data-name="Layer 1" xmlns="http://www.w3.org/2000/svg" viewBox="0 0 19.91 20"><defs><style>.cls-1{fill:#707377;}</style></defs><title>edit-profile</title><path class="cls-1" d="M808,1510a5,5,0,1,1,5-5A5,5,0,0,1,808,1510Zm0-8a3,3,0,1,0,3,3A3,3,0,0,0,808,1502Z" transform="translate(-800 -1500)"/><path class="cls-1" d="M802.18,1514h8.08l-2,2H800v-1a7.89,7.89,0,0,1,5.56-7.52l0.62,1.9A5.86,5.86,0,0,0,802.18,1514Z" transform="translate(-800 -1500)"/><path class="cls-1" d="M814.22,1510l-1.47,1.47a5.85,5.85,0,0,0-3-2.13l0.65-1.9A7.92,7.92,0,0,1,814.22,1510Z" transform="translate(-800 -1500)"/><polygon class="cls-1" points="15.15 11.93 17.07 13.85 11.32 19.6 9 20 9.4 17.69 15.15 11.93"/><rect class="cls-1" x="817.23" y="1509.41" width="2.03" height="2.7" transform="translate(-1628.61 -478.93) rotate(-45)"/></svg>