<svg id="Layer_1" data-name="Layer 1" xmlns="http://www.w3.org/2000/svg" viewBox="0 0 20 20"><defs><style>.cls-1{fill:#707377;}</style></defs><title>eis</title><path class="cls-1" d="M257,1676H243v-12h14v12Zm-12-2h10v-8H245v8Z" transform="translate(-240 -1660)"/><path class="cls-1" d="M246,1672c1.12-2.11,1.72-5.25,3.33-3.22,1.17,1.48,1.17,1.38,2,.8s2,0,2.67,2.41h-8Z" transform="translate(-240 -1660)"/><polygon class="cls-1" points="2 5 0 5 0 0 5 0 5 2 2 2 2 5"/><polygon class="cls-1" points="20 5 18 5 18 2 15 2 15 0 20 0 20 5"/><polygon class="cls-1" points="20 20 15 20 15 18 18 18 18 15 20 15 20 20"/><polygon class="cls-1" points="5 20 0 20 0 15 2 15 2 18 5 18 5 20"/></svg>