<svg id="Layer_1" data-name="Layer 1" xmlns="http://www.w3.org/2000/svg" viewBox="0 0 17.04 20"><defs><style>.cls-1{fill:#707377;}</style></defs><title>extended-warranty</title><path class="cls-1" d="M498.52,1600h-6.18l-1.77-4.08a2.11,2.11,0,0,1-1.14,0l-1.77,4.08h-6.18l2.78-6.43a3.1,3.1,0,0,1-.58-2.1,1.35,1.35,0,0,0-.58-1.41,2.47,2.47,0,0,1,0-4.12,1.35,1.35,0,0,0,.58-1.41,2.42,2.42,0,0,1,2.85-2.85,1.35,1.35,0,0,0,1.41-.58,2.47,2.47,0,0,1,4.12,0,1.35,1.35,0,0,0,1.41.58,2.42,2.42,0,0,1,2.85,2.85,1.35,1.35,0,0,0,.58,1.41,2.47,2.47,0,0,1,0,4.12,1.35,1.35,0,0,0-.58,1.41,3.11,3.11,0,0,1-.58,2.1Zm-4.87-2h1.82l-1.6-3.7h-0.41a3,3,0,0,0-.82.08,1.89,1.89,0,0,0-.42.33Zm-9.13,0h1.82l1.42-3.28a1.89,1.89,0,0,0-.42-0.33,3,3,0,0,0-.82-0.08h-0.41Zm5.48-4h0a2.89,2.89,0,0,0,.66-0.54,4,4,0,0,1,1.22-.91,4.19,4.19,0,0,1,1.54-.23,2.83,2.83,0,0,0,.83-0.09,3.83,3.83,0,0,0,.06-0.81,4.19,4.19,0,0,1,.23-1.54,4,4,0,0,1,.91-1.22,0.68,0.68,0,0,0,0-1.33,4,4,0,0,1-.91-1.22,4.19,4.19,0,0,1-.23-1.54,2.83,2.83,0,0,0-.09-0.83,3.83,3.83,0,0,0-.81-0.06,4.19,4.19,0,0,1-1.54-.23,4,4,0,0,1-1.22-.91A2.66,2.66,0,0,0,490,1582a2.83,2.83,0,0,0-.66.54,4,4,0,0,1-1.22.91,4.19,4.19,0,0,1-1.54.23,2.83,2.83,0,0,0-.83.09,3.83,3.83,0,0,0-.06.81,4.19,4.19,0,0,1-.23,1.54,4,4,0,0,1-.91,1.22,2.66,2.66,0,0,0-.54.67,2.83,2.83,0,0,0,.54.66,4,4,0,0,1,.91,1.22,4.19,4.19,0,0,1,.23,1.54,2.83,2.83,0,0,0,.09.83,3.83,3.83,0,0,0,.81.06,4.19,4.19,0,0,1,1.54.23,4,4,0,0,1,1.22.91A2.71,2.71,0,0,0,490,1594Zm-1-2.59-2.71-2.71,1.41-1.41,1.29,1.29,3.29-3.29,1.41,1.41Z" transform="translate(-481.48 -1580)"/></svg>