<svg id="Layer_1" data-name="Layer 1" xmlns="http://www.w3.org/2000/svg" viewBox="0 0 27.78 12"><defs><style>.cls-1{fill:#707377;}</style></defs><title>field-of-view</title><path class="cls-1" d="M811.46,396h-2.92a2.54,2.54,0,0,1-2.54-2.54v-6.92a2.54,2.54,0,0,1,2.54-2.54h2.92a2.54,2.54,0,0,1,2.54,2.54v6.92A2.54,2.54,0,0,1,811.46,396Zm-2.92-10a0.54,0.54,0,0,0-.54.54v6.92a0.54,0.54,0,0,0,.54.54h2.92a0.54,0.54,0,0,0,.54-0.54v-6.92a0.54,0.54,0,0,0-.54-0.54h-2.92ZM799,386h5v-2h-7v12h2V386Zm4,3h-4v2h4v-2Zm19.72-5-2.23,8.85L818.28,384h-2.06l3,12h2.53l3-12h-2.06Z" transform="translate(-797 -384)"/></svg>