<svg id="Layer_1" data-name="Layer 1" xmlns="http://www.w3.org/2000/svg" viewBox="0 0 21.99 21.99"><defs><style>.cls-1{fill:#707377;}</style></defs><title>file-repair</title><path class="cls-1" d="M84.87,641a5.87,5.87,0,0,1-4.15-10L91,620.72a5.87,5.87,0,0,1,8.3,8.3L89,639.28A5.85,5.85,0,0,1,84.87,641Zm10.26-20a3.86,3.86,0,0,0-2.74,1.13L82.13,632.4a3.87,3.87,0,0,0,0,5.47h0a3.87,3.87,0,0,0,5.47,0L97.87,627.6A3.87,3.87,0,0,0,95.13,621Z" transform="translate(-79 -619)"/><rect class="cls-1" x="91.75" y="622.38" width="2" height="9.74" transform="translate(-495.37 -369.7) rotate(-45)"/><rect class="cls-1" x="85.93" y="627.57" width="2" height="9.74" transform="translate(-500.74 -372.29) rotate(-45)"/><rect class="cls-1" x="84.83" y="627.66" width="8.1" height="2" transform="translate(-497.5 -372.03) rotate(-45)"/><rect class="cls-1" x="87.18" y="630.16" width="7.39" height="2" transform="translate(-498.68 -369.88) rotate(-45)"/><rect class="cls-1" x="89.22" y="625.67" width="2" height="9.11" transform="translate(-498.21 -370.62) rotate(-45)"/></svg>