<svg id="Layer_1" data-name="Layer 1" xmlns="http://www.w3.org/2000/svg" viewBox="0 0 20.03 19.49"><defs><style>.cls-1{fill:#707377;}</style></defs><title>flight-assist</title><path class="cls-1" d="M410,1197a3,3,0,0,1-3-2.51l-0.74-.74A1,1,0,0,1,406,1193v-6a1,1,0,0,1,.29-0.71l0.74-.74a3,3,0,0,1,5.93,0l0.74,0.74a1,1,0,0,1,.29.71v6a1,1,0,0,1-.29.71l-0.76.76A3,3,0,0,1,410,1197Zm-2-4.37,0.71,0.71a1,1,0,0,1,.29.71,1,1,0,0,0,1,1,1,1,0,0,0,1-1,1,1,0,0,1,.59-0.91l0.41-.41v-5.17l-0.71-.71A1,1,0,0,1,411,1186a1,1,0,0,0-2,0,1,1,0,0,1-.29.71l-0.71.71v5.17Z" transform="translate(-399.98 -1180.42)"/><path class="cls-1" d="M402.54,1196.47l-0.76-1.29,3.27-1.94a2.23,2.23,0,0,0,1-1.85V1191h1.5v0.39a3.74,3.74,0,0,1-1.67,3.12Z" transform="translate(-399.98 -1180.42)"/><circle class="cls-1" cx="2.52" cy="16.08" r="1.5"/><path class="cls-1" d="M417.23,1196.47l-3.27-1.94a3.76,3.76,0,0,1-1.71-3.14V1191h1.5v0.39a2.25,2.25,0,0,0,1,1.87l3.24,1.92Z" transform="translate(-399.98 -1180.42)"/><circle class="cls-1" cx="17.28" cy="16.08" r="1.5"/><rect class="cls-1" x="412.12" y="1184.22" width="5.55" height="1.5" transform="translate(-1135.19 -498.99) rotate(-47.06)"/><circle class="cls-1" cx="17.28" cy="3.08" r="1.5"/><rect class="cls-1" x="404.63" y="1182.19" width="1.5" height="5.55" transform="translate(-1098.68 -586.65) rotate(-42.95)"/><circle class="cls-1" cx="3.02" cy="3.08" r="1.5"/><path class="cls-1" d="M400.73,1186.58a0.75,0.75,0,0,1-.54-1.27l4.53-4.66a0.75,0.75,0,1,1,1.08,1l-4.53,4.66A0.75,0.75,0,0,1,400.73,1186.58Z" transform="translate(-399.98 -1180.42)"/><path class="cls-1" d="M419.27,1186.58a0.75,0.75,0,0,1-.54-0.23l-4.53-4.66a0.75,0.75,0,1,1,1.08-1l4.53,4.66A0.75,0.75,0,0,1,419.27,1186.58Z" transform="translate(-399.98 -1180.42)"/><path class="cls-1" d="M405.27,1199.91a0.75,0.75,0,0,1-.54-0.23L400.2,1195a0.75,0.75,0,0,1,1.08-1l4.53,4.66A0.75,0.75,0,0,1,405.27,1199.91Z" transform="translate(-399.98 -1180.42)"/><path class="cls-1" d="M414.73,1199.91a0.75,0.75,0,0,1-.54-1.27l4.53-4.66a0.75,0.75,0,0,1,1.08,1l-4.53,4.66A0.75,0.75,0,0,1,414.73,1199.91Z" transform="translate(-399.98 -1180.42)"/></svg>