<svg id="Layer_1" data-name="Layer 1" xmlns="http://www.w3.org/2000/svg" viewBox="0 0 20 20"><defs><style>.cls-1{fill:#707377;}</style></defs><title>headphones</title><path class="cls-1" d="M180,236h-2v-5.67a8,8,0,1,0-16,0V236h-2v-5.67a10,10,0,1,1,20,0V236Z" transform="translate(-160 -220)"/><path class="cls-1" d="M180,240h-3.5a2.5,2.5,0,0,1-2.5-2.5v-4a2.5,2.5,0,0,1,2.5-2.5H180v9Zm-3.5-7a0.5,0.5,0,0,0-.5.5v4a0.5,0.5,0,0,0,.5.5H178v-5h-1.5Z" transform="translate(-160 -220)"/><path class="cls-1" d="M163.5,240H160v-9h3.5a2.5,2.5,0,0,1,2.5,2.5v4A2.5,2.5,0,0,1,163.5,240Zm-1.5-2h1.5a0.5,0.5,0,0,0,.5-0.5v-4a0.5,0.5,0,0,0-.5-0.5H162v5Z" transform="translate(-160 -220)"/></svg>