<svg id="Layer_1" data-name="Layer 1" xmlns="http://www.w3.org/2000/svg" viewBox="0 0 34 20"><defs><style>.cls-1{fill:#707377;}</style></defs><title>hmd-360</title><path class="cls-1" d="M640.69,1674.23a4.72,4.72,0,1,1,4.72-4.72A4.73,4.73,0,0,1,640.69,1674.23Zm0-7.45a2.72,2.72,0,1,0,2.72,2.72A2.73,2.73,0,0,0,640.69,1666.78Z" transform="translate(-631 -1660)"/><path class="cls-1" d="M655.68,1674.23a4.72,4.72,0,1,1,4.72-4.72A4.73,4.73,0,0,1,655.68,1674.23Zm0-7.45a2.72,2.72,0,1,0,2.72,2.72A2.73,2.73,0,0,0,655.68,1666.78Z" transform="translate(-631 -1660)"/><path class="cls-1" d="M665,1680H651.42l-3.23-4.94L645,1680H631v-20h34v20Zm-12.5-2H663v-16H633v16h10.87l4.31-6.6Z" transform="translate(-631 -1660)"/></svg>