<svg id="Layer_1" data-name="Layer 1" xmlns="http://www.w3.org/2000/svg" viewBox="0 0 19 19"><defs><style>.cls-1{fill:#707377;}</style></defs><title>leds</title><path class="cls-1" d="M810,475a5,5,0,1,1,5-5A5,5,0,0,1,810,475Zm0-8a3,3,0,1,0,3,3A3,3,0,0,0,810,467Z" transform="translate(-800.5 -460.5)"/><circle class="cls-1" cx="9.44" cy="1.5" r="1.5"/><path class="cls-1" d="M815.61,465.8a1.5,1.5,0,1,1,1.06-.44A1.49,1.49,0,0,1,815.61,465.8Z" transform="translate(-800.5 -460.5)"/><circle class="cls-1" cx="17.5" cy="9.44" r="1.5"/><path class="cls-1" d="M815.7,477.11a1.5,1.5,0,1,1,1.06-.44A1.49,1.49,0,0,1,815.7,477.11Z" transform="translate(-800.5 -460.5)"/><circle class="cls-1" cx="9.56" cy="17.5" r="1.5"/><path class="cls-1" d="M804.39,477.2a1.5,1.5,0,1,1,1.06-.44A1.49,1.49,0,0,1,804.39,477.2Z" transform="translate(-800.5 -460.5)"/><circle class="cls-1" cx="1.5" cy="9.56" r="1.5"/><path class="cls-1" d="M804.3,465.89a1.5,1.5,0,1,1,1.06-.44A1.49,1.49,0,0,1,804.3,465.89Z" transform="translate(-800.5 -460.5)"/></svg>