<svg id="Layer_1" data-name="Layer 1" xmlns="http://www.w3.org/2000/svg" viewBox="0 0 16 20"><defs><style>.cls-1{fill:#707377;}</style></defs><title>mic</title><path class="cls-1" d="M330,717a8,8,0,0,1-8-8v-1h2v1a6,6,0,0,0,12,0v-1h2v1A8,8,0,0,1,330,717Z" transform="translate(-322 -700)"/><path class="cls-1" d="M330,713a4,4,0,0,1-4-4v-5a4,4,0,0,1,8,0v5A4,4,0,0,1,330,713Zm0-11a2,2,0,0,0-2,2v5a2,2,0,0,0,4,0v-5A2,2,0,0,0,330,702Z" transform="translate(-322 -700)"/><rect class="cls-1" x="7" y="16" width="2" height="3"/><rect class="cls-1" x="4" y="18" width="8" height="2"/></svg>