<svg id="Layer_1" data-name="Layer 1" xmlns="http://www.w3.org/2000/svg" viewBox="0 0 20 20.18"><defs><style>.cls-1{fill:#707377;}</style></defs><title>music</title><path class="cls-1" d="M324,1280a4,4,0,1,1,4-4A4,4,0,0,1,324,1280Zm0-6a2,2,0,1,0,2,2A2,2,0,0,0,324,1274Z" transform="translate(-320 -1259.82)"/><path class="cls-1" d="M336,1278a4,4,0,1,1,4-4A4,4,0,0,1,336,1278Zm0-6a2,2,0,1,0,2,2A2,2,0,0,0,336,1272Z" transform="translate(-320 -1259.82)"/><polygon class="cls-1" points="8 16.18 6 16.18 6 2.33 20 0 20 14.18 18 14.18 18 2.36 8 4.03 8 16.18"/><rect class="cls-1" x="326.92" y="1265.5" width="12.17" height="2" transform="translate(-523.87 -1187.76) rotate(-9.47)"/></svg>