<svg id="Layer_1" data-name="Layer 1" xmlns="http://www.w3.org/2000/svg" viewBox="0 0 25 21"><defs><style>.cls-1{fill:#707377;}</style></defs><title>nightlapse-photo</title><path class="cls-1" d="M657.93,75a2.61,2.61,0,1,1-3.46-3.46,2.57,2.57,0,0,0-.24,1.07,2.62,2.62,0,0,0,2.62,2.62A2.57,2.57,0,0,0,657.93,75Z" transform="translate(-638 -59)"/><polygon class="cls-1" points="7.64 10.05 5 7.41 5 4 7 4 7 6.59 9.05 8.64 7.64 10.05"/><polygon class="cls-1" points="10.44 5 14 5 14 0.04 8.79 5 10.44 5"/><path class="cls-1" d="M645,73a7,7,0,1,1,6.06-10.5l-1.73,1A5,5,0,1,0,645,71v2Z" transform="translate(-638 -59)"/><path class="cls-1" d="M663,80H647V70h3.54l1.3-3h6.31l1.3,3H663V80Zm-14-2h12V72h-2.86l-1.3-3h-3.69l-1.3,3H649v6Z" transform="translate(-638 -59)"/></svg>