<svg id="Layer_1" data-name="Layer 1" xmlns="http://www.w3.org/2000/svg" viewBox="0 0 24.02 16"><defs><style>.cls-1{fill:#707377;}</style></defs><title>orbit</title><circle class="cls-1" cx="12.5" cy="9.5" r="2.5"/><path class="cls-1" d="M810,1197a8,8,0,0,1-6.1-2.83c-3.41.67-5.31,0.36-5.79-1s0.8-2.91,3.92-4.82a8,8,0,0,1,13.29-5.36c5.82-1.32,6.39.26,6.59,0.79s0.72,2-3.91,4.81c0,0.12,0,.25,0,0.37A8,8,0,0,1,810,1197Zm-3.82-3.38a6,6,0,0,0,9.77-3.84A51,51,0,0,1,806.18,1193.62Zm-6.07-1.18a7.92,7.92,0,0,0,2.62-.11,7.92,7.92,0,0,1-.56-1.68A8.12,8.12,0,0,0,800.11,1192.45ZM810,1183a6,6,0,0,0-5.24,8.93,48.08,48.08,0,0,0,11.07-4.35A6,6,0,0,0,810,1183Zm6.78,1.76a7.91,7.91,0,0,1,.82,1.75,8.58,8.58,0,0,0,2.28-1.94A8.82,8.82,0,0,0,816.78,1184.76Z" transform="translate(-798 -1181)"/></svg>