<svg id="Layer_1" data-name="Layer 1" xmlns="http://www.w3.org/2000/svg" viewBox="0 0 20.01 19.46"><defs><style>.cls-1{fill:#707377;}</style></defs><title>pairing-stopped</title><path class="cls-1" d="M167.37,711h-2.49a3,3,0,0,1-2.3-4.79l-1.42-1.42a5.05,5.05,0,0,0-1.16,3.27,4.91,4.91,0,0,0,4.88,4.94h4.49Z" transform="translate(-160 -699.97)"/><polygon class="cls-1" points="7 15.03 7 17.02 13.37 17.02 11.37 15.03 7 15.03"/><path class="cls-1" d="M180,718l-2-2a5.07,5.07,0,0,0,2-4.05,4.91,4.91,0,0,0-4.88-4.94H169l-2-2h6v-2h-8l-3-3-1.41,1.41,18,18.05Zm-4.89-9a3,3,0,0,1,2.88,3,3,3,0,0,1-1.41,2.53L171,709h4.09Z" transform="translate(-160 -699.97)"/></svg>