<svg id="Layer_1" data-name="Layer 1" xmlns="http://www.w3.org/2000/svg" viewBox="0 0 22.18 16"><defs><style>.cls-1{fill:#707377;}</style></defs><title>password-hidden</title><path class="cls-1" d="M730,1438a12,12,0,0,1-10.92-7.61l-0.17-.4,0.17-.39c2.06-4.69,6.25-7.6,10.92-7.6s8.85,2.91,10.92,7.6l0.17,0.39-0.17.4A12,12,0,0,1,730,1438Zm-8.9-8a9.6,9.6,0,1,0,8.9-6A10,10,0,0,0,721.1,1430Z" transform="translate(-718.91 -1422)"/><path class="cls-1" d="M734,1430a4,4,0,1,1-4-4,3.88,3.88,0,0,1,1.19.19A2,2,0,0,0,730,1428a2,2,0,0,0,2,2,2,2,0,0,0,1.81-1.19A3.88,3.88,0,0,1,734,1430Z" transform="translate(-718.91 -1422)"/></svg>