<svg id="Layer_1" data-name="Layer 1" xmlns="http://www.w3.org/2000/svg" viewBox="0 0 20 20.02"><defs><style>.cls-1{fill:#707377;}</style></defs><title>power-plug</title><path class="cls-1" d="M171,480h-1a10.24,10.24,0,1,1,4.58-1.21L173.67,477a7.88,7.88,0,1,0-4.67.92V473h2v7Z" transform="translate(-160 -459.98)"/><path class="cls-1" d="M170,475a5,5,0,0,1-5-4.75V468h10v2.25A5,5,0,0,1,170,475Zm-3-5v0.25a3,3,0,0,0,6,0V470h-6Z" transform="translate(-160 -459.98)"/><rect class="cls-1" x="7" y="5.02" width="2" height="5"/><rect class="cls-1" x="11" y="5.02" width="2" height="5"/></svg>