<svg id="Layer_1" data-name="Layer 1" xmlns="http://www.w3.org/2000/svg" viewBox="0 0 20 20"><defs><style>.cls-1{fill:#707377;}</style></defs><title>select-all</title><polygon class="cls-1" points="2 5 0 5 0 0 5 0 5 2 2 2 2 5"/><polygon class="cls-1" points="20 5 18 5 18 2 15 2 15 0 20 0 20 5"/><polygon class="cls-1" points="9 14.41 5.29 10.71 6.71 9.29 9 11.59 14.29 6.29 15.71 7.71 9 14.41"/><rect class="cls-1" x="7" width="6" height="2"/><polygon class="cls-1" points="20 20 15 20 15 18 18 18 18 15 20 15 20 20"/><polygon class="cls-1" points="5 20 0 20 0 15 2 15 2 18 5 18 5 20"/><rect class="cls-1" x="7" y="18" width="6" height="2"/><rect class="cls-1" y="7" width="2" height="6"/><rect class="cls-1" x="18" y="7" width="2" height="6"/></svg>