<svg id="Layer_1" data-name="Layer 1" xmlns="http://www.w3.org/2000/svg" viewBox="0 0 25 18"><defs><style>.cls-1{fill:#707377;}</style></defs><title>ship-scale</title><path class="cls-1" d="M177.16,1199H161a4,4,0,0,1-4-4v-3a2,2,0,0,1,2-2h23v1a9.45,9.45,0,0,1-4.61,7.87ZM159,1192v3a2,2,0,0,0,2,2h15.62a7.54,7.54,0,0,0,3.31-5H159Z" transform="translate(-157 -1181)"/><path class="cls-1" d="M164,1194.5a1.5,1.5,0,1,1-1.5-1.5A1.5,1.5,0,0,1,164,1194.5Zm2.5-1.5a1.5,1.5,0,1,0,1.5,1.5A1.5,1.5,0,0,0,166.5,1193Zm4,0a1.5,1.5,0,1,0,1.5,1.5A1.5,1.5,0,0,0,170.5,1193Zm4,0a1.5,1.5,0,1,0,1.5,1.5A1.5,1.5,0,0,0,174.5,1193Z" transform="translate(-157 -1181)"/><polygon class="cls-1" points="2 14 0 14 0 9.72 3.43 4 19.5 4 23.8 9.64 22.2 10.86 18.5 6 4.57 6 2 10.28 2 14"/><path class="cls-1" d="M172,1187h-5.9v-6H172v6Zm-3.9-2H170v-2h-1.9v2Z" transform="translate(-157 -1181)"/><polyline class="cls-1" points="6 5 5 2 2 2 3 5"/></svg>