<svg id="Layer_1" data-name="Layer 1" xmlns="http://www.w3.org/2000/svg" viewBox="0 0 20 20"><defs><style>.cls-1{fill:#707377;}</style></defs><title>shutter</title><path class="cls-1" d="M330,400a10,10,0,1,1,10-10A10,10,0,0,1,330,400Zm-3-2.58a8.25,8.25,0,0,0,5.91,0L327,394v3.38Zm5-2.8,2.92,1.69a8,8,0,0,0,3-5.1Zm-9.92-3.51a8,8,0,0,0,2.92,5.13v-6.82Zm4.92,0.62,3,1.73,3-1.73v-3.46l-3-1.73-3,1.73v3.46Zm8-8v6.82l2.92-1.69A8,8,0,0,0,335,383.76Zm-9.92-.06a8,8,0,0,0-3,5.1l5.91-3.41Zm2-1.15L333,386v-3.37A8.26,8.26,0,0,0,327.09,382.55Z" transform="translate(-320 -380)"/></svg>