<svg id="Layer_1" data-name="Layer 1" xmlns="http://www.w3.org/2000/svg" viewBox="0 0 20 14"><defs><style>.cls-1{fill:#707377;}</style></defs><title>speed</title><path class="cls-1" d="M810,1037a4,4,0,1,1,4-4A4,4,0,0,1,810,1037Zm0-6a2,2,0,1,0,2,2A2,2,0,0,0,810,1031Z" transform="translate(-800 -1023)"/><rect class="cls-1" x="810.55" y="1026.5" width="9.9" height="2" transform="translate(-1287.7 -145.41) rotate(-45)"/><path class="cls-1" d="M814.62,1024.14l-1.5,1.5A7.91,7.91,0,0,0,810,1025a8,8,0,0,0-8,8,4.44,4.44,0,0,0,.07,1h-2a6.93,6.93,0,0,1,0-1A10,10,0,0,1,814.62,1024.14Z" transform="translate(-800 -1023)"/><path class="cls-1" d="M820,1033a6.93,6.93,0,0,1,0,1h-2a4.44,4.44,0,0,0,.07-1,7.87,7.87,0,0,0-.64-3.11l1.5-1.5A10,10,0,0,1,820,1033Z" transform="translate(-800 -1023)"/></svg>