<svg id="Layer_1" data-name="Layer 1" xmlns="http://www.w3.org/2000/svg" viewBox="0 0 12 22"><defs><style>.cls-1{fill:#707377;}</style></defs><title>temperature</title><path class="cls-1" d="M170,641a6.2,6.2,0,0,1-1.27-.13A6,6,0,0,1,166,630.55V623a4,4,0,0,1,8,0v7.55a6,6,0,0,1-.22,9.1A6,6,0,0,1,170,641Zm0-20a2,2,0,0,0-2,2v8.52l-0.4.3a4,4,0,1,0,4.79,0l-0.4-.3V623A2,2,0,0,0,170,621Z" transform="translate(-164 -619)"/><path class="cls-1" d="M170,637a2.29,2.29,0,0,1-.46,0,2,2,0,0,1-1.5-1.56,2,2,0,0,1,.77-2l1.19-.9v0l1.19,0.9A2,2,0,0,1,170,637Z" transform="translate(-164 -619)"/><path class="cls-1" d="M170,638a3.31,3.31,0,0,1-.66-0.07,3,3,0,0,1-2.28-2.36,3,3,0,0,1,1.15-3L169,632v-5h2v5l0.79,0.6A3,3,0,0,1,170,638Zm0-4.23-0.59.44a1,1,0,0,0-.39,1,1,1,0,0,0,1.69.49,1,1,0,0,0-.12-1.49Z" transform="translate(-164 -619)"/></svg>