<svg id="Layer_1" data-name="Layer 1" xmlns="http://www.w3.org/2000/svg" viewBox="0 0 28 20"><defs><style>.cls-1{fill:#707377;}</style></defs><title>timelapse-video</title><path class="cls-1" d="M419,80H406V68h13v2.36l4-1.16v9.69l-4-1.23V80Zm-11-2h9V75l4,1.23V71.87L417,73V70h-9v8Z" transform="translate(-395 -60)"/><polygon class="cls-1" points="7.64 10.05 5 7.41 5 4 7 4 7 6.59 9.05 8.64 7.64 10.05"/><polygon class="cls-1" points="10.44 5 14 5 14 0.04 8.79 5 10.44 5"/><path class="cls-1" d="M407.83,63.13A7,7,0,1,0,404,73.71V71.59a5.11,5.11,0,0,1-2,.41,5,5,0,1,1,4.17-7.76" transform="translate(-395 -60)"/></svg>