<svg id="Layer_1" data-name="Layer 1" xmlns="http://www.w3.org/2000/svg" viewBox="0 0 25 21"><defs><style>.cls-1{fill:#707377;}</style></defs><title>timelapse-photo</title><circle class="cls-1" cx="17" cy="15" r="2"/><polygon class="cls-1" points="7.64 10.05 5 7.41 5 4 7 4 7 6.59 9.05 8.64 7.64 10.05"/><polygon class="cls-1" points="10.44 5 14 5 14 0.04 8.79 5 10.44 5"/><path class="cls-1" d="M324,74a7,7,0,1,1,6.06-10.5l-1.73,1A5,5,0,1,0,324,72v2Z" transform="translate(-317 -60)"/><path class="cls-1" d="M342,81H326V71h3.54l1.3-3h6.31l1.3,3H342V81Zm-14-2h12V73h-2.86l-1.3-3h-3.69l-1.3,3H328v6Z" transform="translate(-317 -60)"/></svg>