<svg id="Layer_1" data-name="Layer 1" xmlns="http://www.w3.org/2000/svg" viewBox="0 0 22 18"><defs><style>.cls-1{fill:#707377;}</style></defs><title>touch-display-brightness</title><polygon class="cls-1" points="22 18 17 18 17 16 20 16 20 2 2 2 2 16 5 16 5 18 0 18 0 0 22 0 22 18"/><path class="cls-1" d="M170,795a4,4,0,1,1,4-4A4,4,0,0,1,170,795Zm0-6a2,2,0,1,0,2,2A2,2,0,0,0,170,789Z" transform="translate(-159 -781)"/><rect class="cls-1" x="10" y="3" width="2" height="2"/><rect class="cls-1" x="173.24" y="785.76" width="2" height="2" transform="translate(-664.29 -427.36) rotate(-45)"/><rect class="cls-1" x="16" y="9" width="2" height="2"/><rect class="cls-1" x="173.24" y="794.24" width="2" height="2" transform="translate(-670.29 -424.87) rotate(-45)"/><rect class="cls-1" x="10" y="15" width="2" height="2"/><rect class="cls-1" x="164.76" y="794.24" width="2" height="2" transform="translate(-672.77 -430.87) rotate(-45)"/><rect class="cls-1" x="4" y="9" width="2" height="2"/><rect class="cls-1" x="164.76" y="785.76" width="2" height="2" transform="translate(-666.77 -433.36) rotate(-45)"/></svg>