<svg id="Layer_1" data-name="Layer 1" xmlns="http://www.w3.org/2000/svg" viewBox="0 0 23 16"><defs><style>.cls-1{fill:#707377;}</style></defs><title>track-order-2</title><polygon class="cls-1" points="15 10.41 12.29 7.71 13.71 6.29 15 7.59 18.29 4.29 19.71 5.71 15 10.41"/><path class="cls-1" d="M501,1675H487v-14h14v14Zm-12-2h10v-10H489v10Z" transform="translate(-478 -1661)"/><polygon class="cls-1" points="9 14 0 14 0 7.68 3.98 2 10 2 10 4 5.02 4 2 8.31 2 12 9 12 9 14"/><circle class="cls-1" cx="18.5" cy="13.5" r="2.5"/><circle class="cls-1" cx="5.5" cy="13.5" r="2.5"/><path class="cls-1" d="M482,1669l2-3h2v3h-4Z" transform="translate(-478 -1661)"/></svg>