<svg id="Layer_1" data-name="Layer 1" xmlns="http://www.w3.org/2000/svg" viewBox="0 0 23 23"><defs><style>.cls-1{fill:#707377;}</style></defs><title>usb-charging</title><path class="cls-1" d="M416,708H402V698h14v2h2v6h-2v2Zm-12-2h10v-2h2v-2h-2v-2H404v6Z" transform="translate(-399 -698)"/><rect class="cls-1" x="6" y="3" width="2" height="4"/><rect class="cls-1" x="9" y="3" width="2" height="4"/><rect class="cls-1" x="12" y="3" width="2" height="4"/><circle class="cls-1" cx="2" cy="17" r="2"/><circle class="cls-1" cx="14" cy="13" r="2"/><circle class="cls-1" cx="16" cy="21" r="2"/><rect class="cls-1" x="3" y="16" width="16" height="2"/><polygon class="cls-1" points="19 14 19 20 23 17 19 14"/><polygon class="cls-1" points="6.71 17.71 5.29 16.29 9.59 12 14 12 14 14 10.41 14 6.71 17.71"/><polygon class="cls-1" points="17 22 11.59 22 7.29 17.71 8.71 16.29 12.41 20 17 20 17 22"/></svg>