<svg id="Layer_1" data-name="Layer 1" xmlns="http://www.w3.org/2000/svg" viewBox="0 0 23 25"><defs><style>.cls-1{fill:#707377;}</style></defs><title>usb-pairing</title><path class="cls-1" d="M251,705h-5a4,4,0,0,1,0-8h5v2h-5a2,2,0,0,0,0,4h5v2Z" transform="translate(-239 -697)"/><path class="cls-1" d="M252,708h-5v-2h5a2,2,0,0,0,0-4h-5v-2h5A4,4,0,0,1,252,708Z" transform="translate(-239 -697)"/><circle class="cls-1" cx="2" cy="19" r="2"/><circle class="cls-1" cx="14" cy="15" r="2"/><circle class="cls-1" cx="16" cy="23" r="2"/><rect class="cls-1" x="3" y="18" width="16" height="2"/><polygon class="cls-1" points="19 16 19 22 23 19 19 16"/><polygon class="cls-1" points="6.71 19.71 5.29 18.29 9.59 14 14 14 14 16 10.41 16 6.71 19.71"/><polygon class="cls-1" points="17 24 11.59 24 7.29 19.71 8.71 18.29 12.41 22 17 22 17 24"/></svg>