<svg id="Layer_1" data-name="Layer 1" xmlns="http://www.w3.org/2000/svg" viewBox="0 0 16 20.23"><defs><style>.cls-1{fill:#707377;}</style></defs><title>user-radar-location</title><path class="cls-1" d="M491.52,1108.32a2.48,2.48,0,0,0,.87-1.88A2.41,2.41,0,0,0,490,1104a2.38,2.38,0,0,0-2.39,2.38,2.57,2.57,0,0,0,.87,1.92,4.48,4.48,0,0,0-2.18,3.67h7.4A4.49,4.49,0,0,0,491.52,1108.32Z" transform="translate(-482 -1100)"/><path class="cls-1" d="M490,1120.23l-0.58-.41c-0.3-.21-7.42-5.31-7.42-11.82a8,8,0,0,1,16,0c0,6.44-7.12,11.6-7.42,11.81Zm0-18.23a6,6,0,0,0-6,6c0,4.5,4.39,8.44,6,9.74,1.61-1.31,6-5.29,6-9.74A6,6,0,0,0,490,1102Z" transform="translate(-482 -1100)"/></svg>