<svg id="Layer_1" data-name="Layer 1" xmlns="http://www.w3.org/2000/svg" viewBox="0 0 16 20.03"><defs><style>.cls-1{fill:#707377;}</style></defs><title>waterproof</title><path class="cls-1" d="M250,1200a7.94,7.94,0,0,1-8-7.86c0-6.32,7.11-11.53,7.41-11.75L250,1180l0.58,0.42c0.3,0.22,7.42,5.37,7.42,11.75A7.94,7.94,0,0,1,250,1200Zm0-17.53c-1.61,1.32-6,5.33-6,9.67a6,6,0,0,0,12,0C256,1187.74,251.62,1183.78,250,1182.47Zm0,13.53a4.14,4.14,0,0,1-4-4h2a2.07,2.07,0,0,0,2,2v2Z" transform="translate(-242 -1179.97)"/></svg>