<svg id="Layer_1" data-name="Layer 1" xmlns="http://www.w3.org/2000/svg" viewBox="0 0 20 20"><defs><style>.cls-1{fill:#707377;}</style></defs><title>wdr</title><path class="cls-1" d="M340,240H320V220h20v20Zm-18-2h16V222H322v16Z" transform="translate(-320 -220)"/><rect class="cls-1" x="328.96" y="226.5" width="7.07" height="2.01" transform="translate(-383.48 81.75) rotate(-45)"/><polygon class="cls-1" points="16 10 14 10 14 6 10 6 10 4 16 4 16 10"/><polygon class="cls-1" points="10.71 10.71 7.42 14 10 14 10 16 4 16 4 10 6 10 6 12.58 9.29 9.29 10.71 10.71 2 2 2 18 18 18 10.71 10.71"/></svg>