<svg id="Layer_1" data-name="Layer 1" xmlns="http://www.w3.org/2000/svg" viewBox="0 0 20.84 25"><defs><style>.cls-1{fill:#707377;}</style></defs><title>wireless-pairing</title><path class="cls-1" d="M739.94,625a12,12,0,0,0-17.87,0l-1.48-1.34a14,14,0,0,1,20.84,0Z" transform="translate(-720.58 -619)"/><path class="cls-1" d="M737.08,627.81a8,8,0,0,0-12.16,0l-1.52-1.3a10,10,0,0,1,15.2,0Z" transform="translate(-720.58 -619)"/><path class="cls-1" d="M734,630.41a4,4,0,0,0-6.08,0l-1.52-1.3a6,6,0,0,1,9.12,0Z" transform="translate(-720.58 -619)"/><path class="cls-1" d="M733,641h-5a4,4,0,0,1,0-8h5v2h-5a2,2,0,0,0,0,4h5v2Z" transform="translate(-720.58 -619)"/><path class="cls-1" d="M734,644h-5v-2h5a2,2,0,0,0,0-4h-5v-2h5A4,4,0,0,1,734,644Z" transform="translate(-720.58 -619)"/></svg>